<?xml version="1.0" encoding="UTF-8" standalone="no"?>
<!-- Created with Inkscape (http://www.inkscape.org/) -->

<svg
   xmlns:dc="http://purl.org/dc/elements/1.1/"
   xmlns:cc="http://creativecommons.org/ns#"
   xmlns:rdf="http://www.w3.org/1999/02/22-rdf-syntax-ns#"
   xmlns:svg="http://www.w3.org/2000/svg"
   xmlns="http://www.w3.org/2000/svg"
   xmlns:sodipodi="http://sodipodi.sourceforge.net/DTD/sodipodi-0.dtd"
   xmlns:inkscape="http://www.inkscape.org/namespaces/inkscape"
   version="1.1"
   id="svg76"
   xml:space="preserve"
   width="1122.52"
   height="793.70135"
   viewBox="0 0 1122.52 793.70135"
   sodipodi:docname="livre.svg"
   inkscape:version="0.92.3 (2405546, 2018-03-11)"><metadata
     id="metadata82"><rdf:RDF><cc:Work
         rdf:about=""><dc:format>image/svg+xml</dc:format><dc:type
           rdf:resource="http://purl.org/dc/dcmitype/StillImage" /><dc:title></dc:title></cc:Work></rdf:RDF></metadata><defs
     id="defs80"><clipPath
       clipPathUnits="userSpaceOnUse"
       id="clipPath92"><path
         d="M 0,595.276 H 841.89 V 0 H 0 Z"
         id="path90"
         inkscape:connector-curvature="0" /></clipPath></defs><sodipodi:namedview
     pagecolor="#ffffff"
     bordercolor="#666666"
     borderopacity="1"
     objecttolerance="10"
     gridtolerance="10"
     guidetolerance="10"
     inkscape:pageopacity="0"
     inkscape:pageshadow="2"
     inkscape:window-width="640"
     inkscape:window-height="480"
     id="namedview78"
     showgrid="false"
     inkscape:zoom="0.29734106"
     inkscape:cx="561.26001"
     inkscape:cy="396.85068"
     inkscape:window-x="0"
     inkscape:window-y="0"
     inkscape:window-maximized="0"
     inkscape:current-layer="g84" /><g
     id="g84"
     inkscape:groupmode="layer"
     inkscape:label="livre"
     transform="matrix(1.3333333,0,0,-1.3333333,0,793.70133)"><g
       id="g86"><g
         id="g88"
         clip-path="url(#clipPath92)"><g
           id="g94"
           transform="translate(159.0898,994.6198)"><path
             d="M 0,0 C -89.456,-9.815 46.619,-309.914 -16.777,-356.051"
             style="fill:#231f20;fill-opacity:1;fill-rule:nonzero;stroke:none"
             id="path96"
             inkscape:connector-curvature="0" /></g><g
           id="g98"
           transform="translate(235.4619,172.5295)"><path
             d="m 0,0 c 0,-7.571 -6.138,-13.709 -13.709,-13.709 -7.571,0 -13.709,6.138 -13.709,13.709 0,7.571 6.138,13.71 13.709,13.71 C -6.138,13.71 0,7.571 0,0"
             style="fill:#231f20;fill-opacity:1;fill-rule:nonzero;stroke:none"
             id="path100"
             inkscape:connector-curvature="0" /></g><g
           id="g102"
           transform="translate(773.9287,245.9611)"><path
             d="m 0,0 c 0,-7.571 -6.138,-13.709 -13.709,-13.709 -7.571,0 -13.709,6.138 -13.709,13.709 0,7.571 6.138,13.709 13.709,13.709 C -6.138,13.709 0,7.571 0,0"
             style="fill:#231f20;fill-opacity:1;fill-rule:nonzero;stroke:none"
             id="path104"
             inkscape:connector-curvature="0" /></g><g
           id="g106"
           transform="translate(768.9834,235.5852)"><path
             d="m 0,0 v 0 c 0,0 -134.946,-103.841 -306.652,-109.585 -80.732,-2.701 -177.557,85.278 -230.877,37.249 l -19.395,18.975 c 0,0 53.817,69.296 103.898,69.148 80.776,-0.238 107.143,-54.469 214.469,-54.469 68.35,0 219.67,58.192 219.67,58.192 z"
             style="fill:#231f20;fill-opacity:1;fill-rule:nonzero;stroke:none"
             id="path108"
             inkscape:connector-curvature="0" /></g><g
           id="g110"
           transform="translate(216.2671,268.8039)"><path
             d="m 0,0 c 0,-7.571 -6.138,-13.709 -13.709,-13.709 -7.572,0 -13.709,6.138 -13.709,13.709 0,7.571 6.137,13.709 13.709,13.709 C -6.138,13.709 0,7.571 0,0"
             style="fill:#231f20;fill-opacity:1;fill-rule:nonzero;stroke:none"
             id="path112"
             inkscape:connector-curvature="0" /></g><g
           id="g114"
           transform="translate(644.0508,362.1067)"><path
             d="m 0,0 c 0,-7.571 -6.138,-13.709 -13.709,-13.709 -7.571,0 -13.709,6.138 -13.709,13.709 0,7.571 6.138,13.709 13.709,13.709 C -6.138,13.709 0,7.571 0,0"
             style="fill:#231f20;fill-opacity:1;fill-rule:nonzero;stroke:none"
             id="path116"
             inkscape:connector-curvature="0" /></g><g
           id="g118"
           transform="translate(639.1055,351.7312)"><path
             d="m 0,0 v 0 c 0,0 -112.602,-74.358 -206.64,-85.148 -111.901,-12.84 -131.781,63.067 -220.207,-7.06 l -19.395,18.975 c 0,0 74.32,78.327 124.367,76.453 80.824,-3.027 62.595,-19.574 169.92,-19.574 68.35,0 133.068,35.863 133.068,35.863 z"
             style="fill:#231f20;fill-opacity:1;fill-rule:nonzero;stroke:none"
             id="path120"
             inkscape:connector-curvature="0" /></g><g
           id="g122"
           transform="translate(152.7388,283.1985)"><path
             d="m 0,0 c 0.339,-7.563 -5.518,-13.97 -13.082,-14.309 -7.564,-0.338 -13.97,5.518 -14.309,13.081 -0.339,7.565 5.518,13.971 13.081,14.31 C -6.746,13.421 -0.339,7.564 0,0"
             style="fill:#231f20;fill-opacity:1;fill-rule:nonzero;stroke:none"
             id="path124"
             inkscape:connector-curvature="0" /></g><g
           id="g126"
           transform="translate(431.7109,460.2834)"><path
             d="m 0,0 c 0.339,-7.563 -5.518,-13.97 -13.081,-14.309 -7.564,-0.339 -13.97,5.518 -14.31,13.081 -0.338,7.564 5.518,13.971 13.082,14.31 C -6.745,13.421 -0.339,7.564 0,0"
             style="fill:#231f20;fill-opacity:1;fill-rule:nonzero;stroke:none"
             id="path128"
             inkscape:connector-curvature="0" /></g><g
           id="g130"
           transform="translate(431.7109,460.2834)"><path
             d="m 0,0 v 0 c 0,0 8.583,-90.936 -180.644,-90.274 -66.344,0.232 -36.999,-45.202 -101.917,-96.261 l -20.469,17.761 c 0,0 9.177,17.511 12.525,36.581 6.557,37.355 60.656,107.515 128.459,110.554 126.779,5.682 122.254,15.174 137.829,29.697 z"
             style="fill:#231f20;fill-opacity:1;fill-rule:nonzero;stroke:none"
             id="path132"
             inkscape:connector-curvature="0" /></g><g
           id="g134"
           transform="translate(198.2114,224.718)"><path
             d="m 0,0 c 0,-11.917 -9.661,-21.578 -21.578,-21.578 -11.917,0 -21.578,9.661 -21.578,21.578 0,11.917 9.661,21.578 21.578,21.578 C -9.661,21.578 0,11.917 0,0"
             style="fill:#231f20;fill-opacity:1;fill-rule:nonzero;stroke:none"
             id="path136"
             inkscape:connector-curvature="0" /></g><g
           id="g138"
           transform="translate(100.2676,149.5471)"><path
             d="m 0,0 v 70.005 c 26.789,12.171 27.929,25.711 40.02,19.348 12.092,-6.365 1.585,-54.07 3.813,-57.188 2.242,-3.14 26.687,0.224 36.879,-0.981 4.517,-0.535 3.864,-6.777 3.937,-12.475 L 56.589,-12.092 C 44.505,-14.931 10.768,-14.001 10.768,-14.001 -0.203,-13.275 0,0 0,0"
             style="fill:#231f20;fill-opacity:1;fill-rule:nonzero;stroke:none"
             id="path140"
             inkscape:connector-curvature="0" /></g></g></g></g></svg>