<?xml version="1.0" encoding="UTF-8" standalone="no"?>
<!-- Created with Inkscape (http://www.inkscape.org/) -->

<svg
   xmlns:dc="http://purl.org/dc/elements/1.1/"
   xmlns:cc="http://creativecommons.org/ns#"
   xmlns:rdf="http://www.w3.org/1999/02/22-rdf-syntax-ns#"
   xmlns:svg="http://www.w3.org/2000/svg"
   xmlns="http://www.w3.org/2000/svg"
   xmlns:sodipodi="http://sodipodi.sourceforge.net/DTD/sodipodi-0.dtd"
   xmlns:inkscape="http://www.inkscape.org/namespaces/inkscape"
   version="1.1"
   id="svg142"
   xml:space="preserve"
   width="1122.52"
   height="793.70135"
   viewBox="0 0 1122.52 793.70135"
   sodipodi:docname="oeuil.svg"
   inkscape:version="0.92.3 (2405546, 2018-03-11)"><metadata
     id="metadata148"><rdf:RDF><cc:Work
         rdf:about=""><dc:format>image/svg+xml</dc:format><dc:type
           rdf:resource="http://purl.org/dc/dcmitype/StillImage" /><dc:title></dc:title></cc:Work></rdf:RDF></metadata><defs
     id="defs146"><clipPath
       clipPathUnits="userSpaceOnUse"
       id="clipPath158"><path
         d="M 0,595.276 H 841.89 V 0 H 0 Z"
         id="path156"
         inkscape:connector-curvature="0" /></clipPath></defs><sodipodi:namedview
     pagecolor="#ffffff"
     bordercolor="#666666"
     borderopacity="1"
     objecttolerance="10"
     gridtolerance="10"
     guidetolerance="10"
     inkscape:pageopacity="0"
     inkscape:pageshadow="2"
     inkscape:window-width="640"
     inkscape:window-height="480"
     id="namedview144"
     showgrid="false"
     inkscape:zoom="0.29734106"
     inkscape:cx="561.26001"
     inkscape:cy="396.85068"
     inkscape:window-x="0"
     inkscape:window-y="0"
     inkscape:window-maximized="0"
     inkscape:current-layer="g150" /><g
     id="g150"
     inkscape:groupmode="layer"
     inkscape:label="oeuil"
     transform="matrix(1.3333333,0,0,-1.3333333,0,793.70133)"><g
       id="g152"><g
         id="g154"
         clip-path="url(#clipPath158)"><g
           id="g160"
           transform="translate(368.7622,255.6428)"><path
             d="m 0,0 c 0,-25.721 -20.851,-46.572 -46.572,-46.572 -25.72,0 -46.572,20.851 -46.572,46.572 0,25.721 20.852,46.572 46.572,46.572 C -20.851,46.572 0,25.721 0,0"
             style="fill:#231f20;fill-opacity:1;fill-rule:nonzero;stroke:none"
             id="path162"
             inkscape:connector-curvature="0" /></g><g
           id="g164"
           transform="translate(186.5073,310.9236)"><path
             d="m 0,0 c 0,-8.338 -6.759,-15.097 -15.097,-15.097 -8.338,0 -15.097,6.759 -15.097,15.097 0,8.338 6.759,15.098 15.097,15.098 C -6.759,15.098 0,8.338 0,0"
             style="fill:#231f20;fill-opacity:1;fill-rule:nonzero;stroke:none"
             id="path166"
             inkscape:connector-curvature="0" /></g><g
           id="g168"
           transform="translate(620.0928,240.5451)"><path
             d="m 0,0 c 0,-8.338 -6.76,-15.097 -15.098,-15.097 -8.338,0 -15.096,6.759 -15.096,15.097 0,8.338 6.758,15.098 15.096,15.098 C -6.76,15.098 0,8.338 0,0"
             style="fill:#231f20;fill-opacity:1;fill-rule:nonzero;stroke:none"
             id="path170"
             inkscape:connector-curvature="0" /></g><g
           id="g172"
           transform="translate(664.8818,429.0339)"><path
             d="m 0,0 c 0,-8.338 -6.759,-15.098 -15.097,-15.098 -8.339,0 -15.097,6.76 -15.097,15.098 0,8.338 6.758,15.097 15.097,15.097 C -6.759,15.097 0,8.338 0,0"
             style="fill:#231f20;fill-opacity:1;fill-rule:nonzero;stroke:none"
             id="path174"
             inkscape:connector-curvature="0" /></g><g
           id="g176"
           transform="translate(659.4355,417.6076)"><path
             d="m 0,0 -73.054,-74.559 c 0,0 -41.27,-47.384 -96.424,-47.222 -88.956,0.261 -76.512,41.624 -194.706,41.624 -85.787,0 -113.158,-36.748 -113.158,-36.748 l -21.359,20.896 73.613,75.147 c 0,0 41.271,47.385 96.424,47.223 88.956,-0.262 76.513,-41.624 194.707,-41.624 75.27,0 113.158,36.748 113.158,36.748 z"
             style="fill:#231f20;fill-opacity:1;fill-rule:nonzero;stroke:none"
             id="path178"
             inkscape:connector-curvature="0" /></g><g
           id="g180"
           transform="translate(616.082,230.3772)"><path
             d="m 0,0 c 0,0 -184.422,-220.626 -433.988,-69.397 -29.238,18.116 27.371,76.515 42.301,61.585 20.681,-13.495 183.858,-142.516 369.169,27.622 z"
             style="fill:#231f20;fill-opacity:1;fill-rule:nonzero;stroke:none"
             id="path182"
             inkscape:connector-curvature="0" /></g><g
           id="g184"
           transform="translate(159.0898,994.6198)"><path
             d="M 0,0 C -89.456,-9.815 46.619,-309.914 -16.777,-356.051"
             style="fill:#231f20;fill-opacity:1;fill-rule:nonzero;stroke:none"
             id="path186"
             inkscape:connector-curvature="0" /></g></g></g></g></svg>