<?xml version="1.0" encoding="UTF-8" standalone="no"?>
<!-- Created with Inkscape (http://www.inkscape.org/) -->

<svg
   xmlns:dc="http://purl.org/dc/elements/1.1/"
   xmlns:cc="http://creativecommons.org/ns#"
   xmlns:rdf="http://www.w3.org/1999/02/22-rdf-syntax-ns#"
   xmlns:svg="http://www.w3.org/2000/svg"
   xmlns="http://www.w3.org/2000/svg"
   xmlns:sodipodi="http://sodipodi.sourceforge.net/DTD/sodipodi-0.dtd"
   xmlns:inkscape="http://www.inkscape.org/namespaces/inkscape"
   version="1.1"
   id="svg300"
   xml:space="preserve"
   width="1122.52"
   height="793.70135"
   viewBox="0 0 1122.52 793.70135"
   sodipodi:docname="palamente+vague.svg"
   inkscape:version="0.92.3 (2405546, 2018-03-11)"><metadata
     id="metadata306"><rdf:RDF><cc:Work
         rdf:about=""><dc:format>image/svg+xml</dc:format><dc:type
           rdf:resource="http://purl.org/dc/dcmitype/StillImage" /><dc:title></dc:title></cc:Work></rdf:RDF></metadata><defs
     id="defs304"><clipPath
       clipPathUnits="userSpaceOnUse"
       id="clipPath316"><path
         d="M 0,595.276 H 841.89 V 0 H 0 Z"
         id="path314"
         inkscape:connector-curvature="0" /></clipPath></defs><sodipodi:namedview
     pagecolor="#ffffff"
     bordercolor="#666666"
     borderopacity="1"
     objecttolerance="10"
     gridtolerance="10"
     guidetolerance="10"
     inkscape:pageopacity="0"
     inkscape:pageshadow="2"
     inkscape:window-width="640"
     inkscape:window-height="480"
     id="namedview302"
     showgrid="false"
     inkscape:zoom="0.29734106"
     inkscape:cx="561.26001"
     inkscape:cy="396.85068"
     inkscape:window-x="0"
     inkscape:window-y="0"
     inkscape:window-maximized="0"
     inkscape:current-layer="g308" /><g
     id="g308"
     inkscape:groupmode="layer"
     inkscape:label="palamente+vague"
     transform="matrix(1.3333333,0,0,-1.3333333,0,793.70133)"><g
       id="g310"><g
         id="g312"
         clip-path="url(#clipPath316)"><g
           id="g318"
           transform="translate(159.0898,994.6198)"><path
             d="M 0,0 C -89.456,-9.815 46.619,-309.914 -16.777,-356.051"
             style="fill:#231f20;fill-opacity:1;fill-rule:nonzero;stroke:none"
             id="path320"
             inkscape:connector-curvature="0" /></g><g
           id="g322"
           transform="translate(816.8193,167.0002)"><path
             d="M 0,0 -34.96,-12.48 C -37.146,0 -13.11,0.713 0,0"
             style="fill:#231f20;fill-opacity:1;fill-rule:nonzero;stroke:none"
             id="path324"
             inkscape:connector-curvature="0" /></g><g
           id="g326"
           transform="translate(423.6855,264.7278)"><path
             d="m 0,0 c -0.469,4.175 -1.001,8.348 -1.691,12.49 -0.146,0.874 -1.104,1.614 -2.107,2.989 -5.741,-8.991 -10.709,-17.948 -15.739,-26.876 -5.057,-8.977 -7.652,-19.219 -13.428,-27.529 -5.873,0.821 -6.909,5.356 -8.715,8.954 -2.756,5.492 -5.057,11.211 -7.655,16.786 -3.633,7.793 -7.353,15.546 -11.061,23.305 -0.357,0.749 -0.889,1.415 -2.201,3.467 -4.118,-21.693 -10.903,-41.263 -11.455,-62.529 -3.088,-1.626 -5.821,-4.36 -8.117,-1.1 2.32,9.076 4.658,17.527 6.619,26.064 l 8.902,45.528 c 0.182,1.746 -0.313,3.688 0.294,5.227 0.542,1.374 2.019,2.858 3.389,3.264 0.949,0.282 2.937,-0.879 3.547,-1.928 1.346,-2.312 2.344,-4.897 3.07,-7.487 L -43.76,-8.356 c 2.232,-4.649 4.694,-9.237 7.56,-13.513 2.307,-3.444 4.63,-3.311 7.266,-0.177 1.103,1.311 1.994,2.841 2.769,4.378 l 20.25,42.009 c 0.957,1.987 2.163,3.872 3.415,5.695 1.089,1.587 2.801,2.354 4.601,1.636 1.765,-0.704 2.253,-2.329 2.355,-4.3 0.428,-8.203 0.733,-16.435 1.709,-24.582 0.993,-8.283 2.739,-16.476 4.122,-24.713 1.141,-6.797 2.193,-13.608 3.377,-20.397 0.29,-1.664 0.94,-3.266 1.426,-4.895 -3.636,-3.199 -3.636,-3.199 -8.822,-4.056 -0.563,2.537 -1.602,5.105 -1.619,7.679 z"
             style="fill:#231f20;fill-opacity:1;fill-rule:nonzero;stroke:none"
             id="path328"
             inkscape:connector-curvature="0" /></g><g
           id="g330"
           transform="translate(541.9316,290.1848)"><path
             d="m 0,0 c -0.528,-5.356 -1.78,-13.627 -1.857,-18.272 -0.207,-12.331 0.007,-24.668 -0.187,-36.999 -0.103,-6.523 0.781,-12.807 3.179,-18.995 -4.527,-3.842 -8.615,-0.863 -12.529,0.042 0.688,8.262 1.585,16.052 1.916,23.867 0.342,8.041 0.33,16.111 0.107,24.158 -0.22,7.938 0.855,15.971 -1.286,24.305 1.21,1.304 2.73,2.942 4.232,4.561 0,0.272 3.056,3.675 2.931,3.819"
             style="fill:#231f20;fill-opacity:1;fill-rule:nonzero;stroke:none"
             id="path332"
             inkscape:connector-curvature="0" /></g><g
           id="g334"
           transform="translate(304.2178,251.1516)"><path
             d="m 0,0 c -4.436,9.366 -8.904,18.907 -13.5,28.388 -0.676,1.395 -1.955,2.499 -3.541,4.463 -8.122,-11.44 -14.777,-22.781 -22.197,-33.98 4.26,-2.857 8.752,-2.544 12.945,-2.934 2.855,-0.266 21.501,1.078 21.501,1.078 0,0 3.925,0.491 4.792,2.985 m -57.916,-39.767 c -3.936,0.642 -7.523,1.227 -11.316,1.845 6.22,8.714 12.294,16.733 17.834,25.106 7.217,10.907 13.987,22.108 21.002,33.15 l 11.072,18.355 c 1.549,3.446 3.877,5.57 7.56,6.676 1.468,-4.364 2.889,-8.656 4.363,-12.929 0.397,-1.154 -0.129,-0.05 0.397,-1.154 6.682,-14.026 14.303,-30.324 21.167,-44.261 3.152,-6.402 6.876,-12.522 10.358,-18.8 -2.592,-3.812 -5.953,-4.802 -10.273,-4.411 -1.525,10.456 -5.089,20.213 -11.419,28.566 -11.166,0 -21.726,0.14 -32.278,-0.072 -3.925,-0.079 -7.951,-0.572 -11.706,-1.655 -2.407,-0.694 -4.871,-1.892 -5.954,-5.07 0,0 -6.518,-12.107 -7.5,-19.142 -0.255,-1.824 -1.799,-3.468 -3.307,-6.204"
             style="fill:#231f20;fill-opacity:1;fill-rule:nonzero;stroke:none"
             id="path336"
             inkscape:connector-curvature="0" /></g><g
           id="g338"
           transform="translate(174.6597,251.1516)"><path
             d="m 0,0 c -4.436,9.366 -8.904,18.907 -13.5,28.388 -0.676,1.395 -1.955,2.499 -3.541,4.463 -8.122,-11.44 -14.777,-22.781 -22.197,-33.98 4.26,-2.857 8.752,-2.544 12.945,-2.934 2.855,-0.266 21.501,1.078 21.501,1.078 0,0 3.925,0.491 4.792,2.985 m -57.916,-39.767 c -3.936,0.642 -7.523,1.227 -11.316,1.845 6.22,8.714 12.294,16.733 17.834,25.106 7.217,10.907 13.987,22.108 21.002,33.15 l 11.072,18.355 c 1.549,3.446 3.877,5.57 7.56,6.676 1.468,-4.364 2.889,-8.656 4.363,-12.929 0.397,-1.154 -0.129,-0.05 0.397,-1.154 6.682,-14.026 14.303,-30.324 21.167,-44.261 3.152,-6.402 6.876,-12.522 10.358,-18.8 -2.592,-3.812 -5.953,-4.802 -10.273,-4.411 -1.525,10.456 -5.089,20.213 -11.419,28.566 -11.166,0 -21.726,0.14 -32.278,-0.072 -3.925,-0.079 -7.951,-0.572 -11.706,-1.655 -2.407,-0.694 -4.871,-1.892 -5.954,-5.07 0,0 -6.518,-12.107 -7.5,-19.142 -0.255,-1.824 -1.799,-3.468 -3.307,-6.204"
             style="fill:#231f20;fill-opacity:1;fill-rule:nonzero;stroke:none"
             id="path340"
             inkscape:connector-curvature="0" /></g><g
           id="g342"
           transform="translate(510.7314,286.2336)"><path
             d="m 0,0 c -12.815,0.607 -25.257,1.196 -38.262,1.812 -1.98,-9.321 -5.003,-15.162 -1.519,-27.13 1.495,-2.603 5.784,-2.51 9.031,-2.26 0,0 12.986,-0.958 19.344,1.283 0.677,0.238 1.94,-1.18 3.135,-1.964 -0.827,-1.793 -1.536,-3.328 -2.454,-5.316 -2.605,0.197 -5.288,0.453 -7.976,0.594 -6.46,0.336 -12.921,0.761 -19.386,0.848 -2.189,0.03 -3.382,-1.605 -3.644,-3.966 -0.675,-6.078 -0.774,-11.159 -0.29,-18.277 0.534,-4.17 0.199,-7.887 0.199,-12.425 14.432,0.282 28.283,-1.293 42.448,3.069 0,-1.999 0.106,-3.459 -0.022,-4.897 -0.272,-3.041 -1.204,-4.219 -4.069,-4.13 -3.936,0.122 -7.225,0.53 -11.829,1.071 -1.61,0.19 -3.445,0.383 -5.191,0.392 -7.291,0.037 -14.584,0.117 -21.873,-0.026 -2.604,-0.051 -5.196,-0.692 -8.251,-1.129 0,1.824 -0.245,3.634 0.088,5.195 1.142,5.356 1.268,8.848 1.278,13.307 0.044,19.602 0.018,39.205 0.018,59.008 3.977,1.011 7.512,3.318 9.199,2.268 0.893,-0.556 1.255,-0.898 2.51,-0.863 9.991,0.282 23.927,-0.006 33.919,0.145 C -1.776,6.637 0.059,5.752 2.32,5.179 1.401,3.127 0.636,1.419 0,0"
             style="fill:#231f20;fill-opacity:1;fill-rule:nonzero;stroke:none"
             id="path344"
             inkscape:connector-curvature="0" /></g><g
           id="g346"
           transform="translate(720.917,285.969)"><path
             d="m 0,0 c -12.815,0.606 -25.257,1.196 -38.262,1.812 -1.98,-9.322 -5.773,-17.86 -1.518,-27.13 1.494,-2.603 5.783,-2.511 9.03,-2.26 0,0 12.986,-0.959 19.344,1.282 0.677,0.239 1.94,-1.18 3.135,-1.964 -0.827,-1.792 -1.536,-3.327 -2.454,-5.315 -2.604,0.197 -5.287,0.452 -7.976,0.593 -6.46,0.337 -12.921,0.762 -19.385,0.849 -2.19,0.029 -3.383,-1.605 -3.644,-3.966 -0.676,-6.078 -0.775,-11.159 -0.291,-18.277 0.534,-4.171 0.199,-7.888 0.199,-12.425 14.432,0.281 28.283,-1.294 42.448,3.069 0,-2 0.107,-3.459 -0.022,-4.898 -0.272,-3.041 -1.203,-4.218 -4.068,-4.129 -3.937,0.122 -7.226,0.53 -11.83,1.071 -1.61,0.189 -3.445,0.382 -5.19,0.391 -7.292,0.037 -14.585,0.118 -21.874,-0.025 -2.603,-0.052 -5.196,-0.693 -8.251,-1.129 0,1.823 -0.245,3.633 0.088,5.194 1.142,5.357 1.268,8.849 1.278,13.308 0.044,19.601 0.019,39.205 0.019,59.008 3.976,1.01 7.511,3.318 9.198,2.268 0.893,-0.556 1.255,-0.898 2.51,-0.863 9.992,0.282 23.927,-0.007 33.919,0.145 C -1.775,6.637 0.06,5.752 2.32,5.178 1.401,3.127 0.636,1.418 0,0"
             style="fill:#231f20;fill-opacity:1;fill-rule:nonzero;stroke:none"
             id="path348"
             inkscape:connector-curvature="0" /></g><g
           id="g350"
           transform="translate(59.5498,245.1652)"><path
             d="m 0,0 c 7.024,-0.258 12.895,1.658 18.443,4.157 11.93,5.371 17.682,13.392 16.378,26.245 -0.274,2.704 -1.132,4.671 -3.018,6.535 C 25.157,43.503 16.956,45.485 7.992,45.219 2.459,45.054 0.075,42.629 0.03,36.938 -0.067,24.893 0,12.846 0,0 m -9.104,-29.154 c 2.193,7.497 1.491,22.96 1.491,22.96 -0.276,0.634 -0.236,1.55 -0.02,2.235 0,0 0.802,19.403 1.391,29.095 0.274,4.509 -0.243,13.534 -0.243,13.534 -0.711,3.363 -0.339,6.098 1.05,9.502 10.463,0.154 21.209,1.583 31.68,-1.435 C 32.659,44.888 39.064,42.194 41.217,34.954 42.921,29.225 43.093,23.673 40.026,17.782 34.993,8.117 27.396,2.013 17.497,-1.608 14.066,-2.862 10.438,-3.599 6.872,-4.456 1.257,-5.806 -0.022,-5.51 0.416,-14.501 c 0,0 -0.881,-6.439 -0.438,-10.367 0.231,-2.064 0.357,-5.219 -1.495,-5.173 0,0 -7.587,-2.969 -7.587,0.887"
             style="fill:#231f20;fill-opacity:1;fill-rule:nonzero;stroke:none"
             id="path352"
             inkscape:connector-curvature="0" /></g><g
           id="g354"
           transform="translate(662.2334,292.0051)"><path
             d="m 0,0 c -0.586,-5.624 -1.731,-6.976 -5.717,-5.854 -8.874,2.496 -17.785,0.915 -27.278,1.407 -2.155,-3.032 -2.836,-20.763 -2.836,-20.763 l -0.096,-37.692 c 0,0 0.926,-4.791 1.327,-7.203 0.865,-5.184 -0.51,-6.826 -5.782,-6.979 -1.003,-0.029 -5.046,0.926 -5.046,0.926 3.221,23.364 1.735,47.07 1.94,71.442 0,0 -12.894,1.121 -18.826,-0.376 -3.416,-0.861 -5.586,-0.322 -7.988,1.209 0.542,1.652 1.075,3.273 1.7,5.176 0.873,0.065 1.898,0.313 2.772,0.162 7.705,-1.34 24.516,-1.179 24.516,-1.179 l 20.418,-0.38 C -20.896,-0.104 -7.364,0 0,0"
             style="fill:#231f20;fill-opacity:1;fill-rule:nonzero;stroke:none"
             id="path356"
             inkscape:connector-curvature="0" /></g><g
           id="g358"
           transform="translate(171.6187,146.4299)"><path
             d="M 0,0 C 7.064,0.971 13.096,6.792 21.54,4.685 22.015,3.843 23.018,2.676 23.371,1.337 25.438,-6.511 23.702,-8.545 15.665,-8.786 11.016,-8.926 6.97,-7.414 2.848,-5.639 0.354,-4.564 -0.665,-3.039 0,0"
             style="fill:#231f20;fill-opacity:1;fill-rule:nonzero;stroke:none"
             id="path360"
             inkscape:connector-curvature="0" /></g><g
           id="g362"
           transform="translate(230.8057,473.1028)"><path
             d="M 0,0 C -81.532,-8.946 42.49,-282.462 -15.291,-324.513"
             style="fill:#231f20;fill-opacity:1;fill-rule:nonzero;stroke:none"
             id="path364"
             inkscape:connector-curvature="0" /></g><g
           id="g366"
           transform="translate(508.3359,326.9948)"><path
             d="M 0,0 C 81.858,-16.372 83.143,-205.449 173.026,-192.287"
             style="fill:#231f20;fill-opacity:1;fill-rule:nonzero;stroke:none"
             id="path368"
             inkscape:connector-curvature="0" /></g></g></g></g></svg>