<svg id="svg" version="1.1" width="400" height="287.6923076923077" viewBox="0 0 400 287.6923076923077" xmlns="http://www.w3.org/2000/svg" xmlns:xlink="http://www.w3.org/1999/xlink" ><g id="svgg"><path id="path0" d="M233.669 33.859 C 232.324 35.212,230.551 36.757,229.731 37.293 C 228.910 37.829,228.045 38.543,227.809 38.881 C 227.348 39.538,224.280 42.123,221.187 44.460 C 220.140 45.252,217.915 46.971,216.243 48.281 C 214.571 49.590,212.564 51.101,211.784 51.638 C 211.003 52.175,210.007 52.890,209.571 53.228 C 207.456 54.863,205.045 56.644,203.714 57.554 C 202.904 58.108,200.993 59.540,199.466 60.737 C 197.940 61.933,195.784 63.540,194.676 64.307 C 193.568 65.075,191.755 66.501,190.647 67.476 C 189.540 68.452,188.115 69.557,187.482 69.932 C 186.849 70.307,185.800 71.042,185.150 71.566 C 184.501 72.090,183.888 72.518,183.789 72.518 C 183.487 72.518,180.483 74.503,180.275 74.841 C 180.168 75.014,179.544 75.385,178.888 75.666 C 178.233 75.948,176.992 76.779,176.132 77.513 C 175.271 78.248,174.417 78.849,174.233 78.849 C 174.049 78.849,173.341 79.270,172.659 79.784 C 170.885 81.121,166.927 83.933,165.827 84.638 C 165.313 84.967,164.892 85.341,164.892 85.469 C 164.892 85.596,164.197 86.093,163.347 86.573 C 162.497 87.052,160.988 88.133,159.994 88.974 C 157.762 90.864,156.304 92.015,154.958 92.950 C 154.389 93.345,153.400 94.090,152.761 94.604 C 152.123 95.119,151.399 95.540,151.154 95.540 C 150.723 95.540,147.642 97.427,147.328 97.884 C 147.243 98.007,146.696 98.307,146.112 98.551 C 145.150 98.953,144.173 100.182,144.173 100.991 C 144.173 101.556,146.538 103.022,147.449 103.022 C 147.937 103.022,148.986 103.338,149.780 103.725 C 152.015 104.814,155.311 106.187,155.689 106.187 C 155.877 106.187,156.632 106.496,157.368 106.873 C 160.131 108.290,161.906 109.029,163.022 109.226 C 163.655 109.339,164.627 109.658,165.181 109.937 C 165.736 110.216,166.772 110.599,167.484 110.788 C 168.195 110.978,168.971 111.294,169.209 111.491 C 169.446 111.688,170.612 112.373,171.799 113.013 C 175.600 115.063,177.076 115.876,179.200 117.088 C 180.342 117.740,181.443 118.275,181.646 118.277 C 181.849 118.279,182.554 118.589,183.214 118.966 C 183.873 119.343,184.909 119.809,185.516 120.002 C 186.122 120.194,186.878 120.512,187.194 120.708 C 187.511 120.904,188.288 121.227,188.921 121.427 C 189.554 121.627,190.378 121.983,190.751 122.218 C 191.125 122.453,191.967 122.800,192.622 122.989 C 194.664 123.579,194.907 126.400,193.209 129.810 C 193.005 130.220,192.647 131.321,192.413 132.256 C 192.179 133.192,191.398 135.640,190.678 137.698 C 189.958 139.755,189.365 141.608,189.361 141.814 C 189.356 142.020,188.640 143.681,187.770 145.506 C 186.899 147.330,186.187 149.076,186.187 149.385 C 186.187 149.694,185.863 150.586,185.468 151.367 C 185.072 152.148,184.748 153.200,184.748 153.706 C 184.748 154.212,184.440 155.155,184.063 155.802 C 183.686 156.449,183.282 157.561,183.166 158.273 C 183.049 158.986,182.774 159.919,182.554 160.348 C 182.335 160.777,181.954 161.995,181.709 163.054 C 181.463 164.113,181.011 165.473,180.703 166.075 C 180.395 166.678,180.144 167.379,180.144 167.633 C 180.144 167.886,179.743 168.960,179.253 170.018 C 178.763 171.077,178.062 172.590,177.694 173.381 C 177.326 174.173,176.934 175.144,176.821 175.540 C 176.709 175.935,176.310 176.788,175.934 177.435 C 175.559 178.082,175.252 178.775,175.252 178.974 C 175.252 179.173,175.001 179.687,174.695 180.117 C 174.389 180.547,174.048 181.279,173.937 181.744 C 172.861 186.239,170.680 187.883,169.104 185.386 C 167.855 183.407,167.377 183.299,163.519 184.123 C 162.074 184.432,161.865 184.237,162.446 183.123 C 162.681 182.672,162.875 182.004,162.876 181.640 C 162.877 181.276,163.086 180.576,163.341 180.083 C 163.811 179.175,163.341 177.266,162.647 177.266 C 162.515 177.266,161.574 176.457,160.556 175.468 C 159.538 174.478,158.399 173.475,158.024 173.237 C 157.650 173.000,157.031 172.567,156.649 172.275 C 156.017 171.791,155.894 171.783,155.285 172.182 C 154.918 172.423,154.112 172.704,153.495 172.807 C 152.879 172.910,151.454 173.318,150.330 173.715 C 148.083 174.506,146.845 174.514,146.360 173.739 C 145.611 172.542,147.172 171.246,151.172 169.745 C 154.786 168.389,155.306 165.146,151.736 166.220 C 148.543 167.181,147.013 166.410,148.183 164.428 C 149.105 162.864,148.964 162.287,147.397 161.219 C 146.639 160.702,145.183 159.442,144.161 158.418 C 143.138 157.394,142.089 156.554,141.829 156.552 C 141.569 156.549,141.283 156.355,141.193 156.120 C 141.077 155.820,140.782 155.743,140.193 155.861 C 139.733 155.953,138.620 155.875,137.719 155.688 C 136.126 155.357,136.063 155.368,135.393 156.091 C 134.673 156.868,132.886 157.143,132.510 156.534 C 131.984 155.683,135.053 152.641,136.691 152.389 C 141.257 151.687,141.309 149.360,136.758 149.354 C 135.478 149.352,132.468 150.788,132.180 151.537 C 131.798 152.535,130.064 153.448,129.218 153.097 C 127.473 152.374,126.330 154.066,127.477 155.676 C 128.301 156.834,129.478 157.414,130.838 157.332 L 131.942 157.266 131.980 159.281 L 132.017 161.295 133.850 162.962 C 135.435 164.404,135.821 164.621,136.699 164.561 C 138.193 164.459,138.412 164.704,138.227 166.268 C 138.101 167.334,138.182 167.768,138.601 168.279 L 139.137 168.930 140.363 168.318 C 141.038 167.981,142.100 167.127,142.723 166.419 C 144.120 164.832,144.696 164.878,145.216 166.619 C 145.766 168.459,145.738 168.557,144.477 169.200 C 143.410 169.745,141.871 171.385,141.871 171.978 C 141.871 173.647,140.960 173.526,139.189 171.622 C 138.211 170.570,136.822 169.111,136.102 168.380 C 135.383 167.649,134.473 166.662,134.080 166.187 C 132.124 163.824,122.432 154.731,119.817 152.806 C 119.065 152.252,117.665 151.079,116.707 150.200 C 115.748 149.321,113.863 147.708,112.518 146.616 C 109.253 143.967,107.630 142.503,106.762 141.425 C 105.853 140.297,100.890 136.039,98.909 134.687 C 97.285 133.579,96.114 132.447,94.101 130.039 C 93.388 129.186,92.450 128.146,92.014 127.726 C 90.614 126.376,91.025 126.055,93.392 126.651 C 96.043 127.319,97.250 126.036,95.228 124.698 C 94.608 124.288,94.101 123.856,94.101 123.738 C 94.101 123.620,93.697 123.356,93.203 123.151 C 92.418 122.826,91.227 121.406,91.224 120.791 C 91.222 120.416,93.316 120.558,93.790 120.966 C 95.063 122.061,97.270 122.021,97.969 120.890 C 98.313 120.334,97.581 119.137,96.899 119.137 C 95.713 119.137,95.050 117.727,95.857 116.920 C 96.188 116.589,98.129 117.500,98.129 117.986 C 98.129 118.113,98.486 118.350,98.921 118.512 C 99.356 118.674,100.283 119.348,100.981 120.010 C 103.063 121.983,105.202 122.172,104.618 120.330 C 104.400 119.645,101.525 116.705,99.471 115.067 C 97.568 113.550,97.742 113.530,92.777 115.858 C 91.970 116.237,91.213 116.547,91.095 116.547 C 90.168 116.547,87.234 120.075,87.206 121.223 C 87.192 121.831,87.096 121.840,86.101 121.323 C 84.252 120.363,83.738 118.561,85.312 118.561 C 85.637 118.561,86.512 118.237,87.255 117.842 C 87.999 117.446,88.807 117.122,89.052 117.122 C 89.296 117.122,89.496 116.999,89.496 116.849 C 89.496 116.699,89.820 116.227,90.216 115.800 C 90.612 115.373,90.935 114.871,90.935 114.684 C 90.935 114.498,91.246 114.053,91.626 113.696 C 93.308 112.116,94.467 107.371,93.577 105.708 C 92.839 104.329,90.949 104.654,90.940 106.162 C 90.925 108.449,89.239 110.997,88.973 109.134 C 88.689 107.143,82.216 111.187,81.571 113.758 C 81.290 114.876,80.751 115.221,79.946 114.798 C 78.792 114.191,71.551 106.782,71.980 106.647 C 72.197 106.579,72.947 106.350,73.648 106.139 C 74.832 105.782,74.998 105.604,76.011 103.597 C 77.657 100.337,80.315 99.176,81.609 101.151 C 82.469 102.464,83.406 101.495,82.841 99.876 C 81.793 96.869,74.543 98.261,73.807 101.610 C 73.565 102.713,73.068 102.901,71.336 102.546 C 70.063 102.286,69.899 102.318,69.257 102.960 C 68.366 103.851,65.666 102.202,64.947 100.326 C 64.836 100.037,64.491 99.735,64.181 99.654 C 63.870 99.573,63.544 99.280,63.456 99.003 C 63.369 98.726,63.048 98.384,62.745 98.243 C 62.441 98.101,60.987 96.820,59.514 95.396 C 55.927 91.929,54.839 91.145,53.561 91.109 C 51.676 91.055,51.913 92.347,54.151 94.322 C 55.152 95.206,58.050 98.011,60.592 100.555 C 65.231 105.199,66.350 106.250,70.072 109.455 C 73.084 112.050,83.950 123.053,84.748 124.316 C 86.189 126.598,93.667 134.172,97.109 136.835 C 98.336 137.784,101.390 140.526,103.896 142.928 C 107.916 146.782,109.562 148.210,112.207 150.140 C 112.590 150.419,113.237 150.974,113.646 151.372 C 114.555 152.260,119.657 156.649,122.590 159.067 C 124.612 160.734,131.290 167.359,133.538 169.928 C 136.159 172.924,138.642 175.456,140.526 177.054 C 141.661 178.017,144.273 180.455,146.331 182.471 C 148.388 184.488,150.460 186.463,150.935 186.859 C 151.410 187.255,152.432 188.117,153.206 188.774 C 153.980 189.430,154.951 190.178,155.364 190.434 C 155.777 190.690,156.452 191.232,156.864 191.637 C 160.593 195.306,164.230 198.404,165.152 198.696 C 165.468 198.797,165.983 199.293,166.296 199.799 C 167.379 201.547,168.428 202.329,169.425 202.129 C 170.428 201.929,170.411 201.957,171.516 198.561 C 172.223 196.387,172.444 196.024,173.504 195.298 C 175.314 194.058,175.688 193.352,175.120 192.254 C 174.178 190.431,174.134 190.091,174.695 188.906 C 174.991 188.281,175.237 187.576,175.243 187.338 C 175.249 187.101,175.493 186.515,175.785 186.036 C 176.077 185.558,176.476 184.679,176.672 184.085 C 176.868 183.490,177.647 181.745,178.403 180.207 C 179.158 178.669,179.868 177.022,179.980 176.547 C 180.091 176.072,180.397 175.360,180.660 174.964 C 181.312 173.979,182.428 171.360,182.885 169.737 C 183.094 168.998,183.520 167.897,183.833 167.290 C 184.856 165.307,185.672 163.061,186.167 160.863 C 186.434 159.676,186.811 158.414,187.005 158.059 C 187.199 157.703,187.494 156.667,187.660 155.756 C 187.827 154.846,188.136 153.712,188.348 153.237 C 189.100 151.554,190.268 148.617,190.637 147.482 C 190.842 146.849,191.280 145.813,191.609 145.180 C 192.386 143.687,194.730 137.366,195.398 134.964 C 195.684 133.935,196.111 132.576,196.345 131.942 C 196.580 131.309,196.993 130.029,197.263 129.096 C 197.532 128.164,198.054 127.099,198.423 126.731 L 199.093 126.060 201.633 127.231 C 203.030 127.875,205.233 128.907,206.530 129.525 C 207.826 130.142,209.084 130.647,209.326 130.647 C 209.948 130.647,215.430 133.307,216.978 134.361 C 217.691 134.845,218.401 135.244,218.557 135.247 C 218.917 135.253,221.610 136.505,224.317 137.924 C 224.791 138.173,226.432 138.970,227.963 139.696 C 229.493 140.421,231.436 141.485,232.279 142.060 C 233.123 142.635,234.849 143.616,236.115 144.241 C 237.381 144.866,239.324 145.876,240.432 146.486 C 241.540 147.096,242.719 147.602,243.053 147.610 C 243.387 147.619,244.114 147.934,244.669 148.310 C 245.223 148.686,246.146 149.149,246.719 149.338 C 247.293 149.527,247.833 149.798,247.921 149.939 C 248.165 150.334,253.810 153.271,255.108 153.678 C 256.266 154.041,258.520 155.080,259.856 155.868 C 260.252 156.101,261.191 156.561,261.942 156.889 C 262.694 157.218,263.309 157.601,263.309 157.740 C 263.309 157.879,263.989 158.313,264.820 158.705 C 265.651 159.096,267.626 160.124,269.209 160.988 C 270.791 161.851,273.511 163.157,275.252 163.888 C 276.993 164.620,278.676 165.336,278.993 165.479 C 279.621 165.764,281.062 166.297,284.173 167.397 C 285.281 167.789,286.446 168.335,286.763 168.611 C 287.079 168.887,287.986 169.476,288.777 169.919 C 289.568 170.362,290.604 171.013,291.079 171.364 C 291.554 171.716,292.266 172.102,292.662 172.222 C 293.058 172.342,293.794 172.750,294.297 173.127 C 294.801 173.504,295.342 173.813,295.498 173.813 C 295.655 173.813,296.149 174.117,296.597 174.488 C 297.422 175.174,300.680 177.011,303.647 178.464 C 304.544 178.903,305.361 179.396,305.462 179.560 C 305.563 179.723,305.879 179.856,306.164 179.856 C 306.449 179.856,307.151 180.174,307.724 180.563 C 308.297 180.952,309.318 181.417,309.994 181.597 C 310.670 181.777,311.417 182.090,311.655 182.293 C 311.892 182.497,312.669 182.941,313.381 183.281 C 314.094 183.620,315.324 184.284,316.115 184.757 C 316.906 185.229,317.878 185.757,318.273 185.931 C 318.669 186.104,319.770 186.621,320.719 187.080 C 321.669 187.539,322.863 187.914,323.373 187.914 C 324.294 187.914,327.584 189.395,327.940 189.970 C 328.172 190.346,332.070 192.230,332.616 192.230 C 332.838 192.230,334.266 192.838,335.790 193.582 C 337.314 194.325,339.142 195.005,339.853 195.092 C 341.093 195.245,341.188 195.328,342.244 197.163 L 343.344 199.074 342.742 200.904 C 342.314 202.205,342.059 204.063,341.859 207.338 C 341.705 209.871,341.450 213.108,341.292 214.532 C 341.135 215.957,340.923 219.324,340.822 222.014 C 340.640 226.869,339.986 229.640,339.023 229.640 C 338.886 229.640,338.605 230.061,338.398 230.576 C 337.906 231.797,335.009 237.061,334.320 237.986 C 333.360 239.274,331.189 242.679,330.632 243.772 C 330.332 244.359,329.981 244.883,329.852 244.937 C 328.565 245.475,328.001 248.394,329.051 249.082 C 330.443 249.994,331.822 248.900,334.029 245.134 C 335.646 242.373,336.042 241.732,337.118 240.127 C 337.749 239.187,338.498 237.964,338.783 237.410 C 339.526 235.965,340.441 234.516,341.484 233.135 L 342.392 231.931 343.426 233.140 C 343.995 233.804,344.460 234.497,344.460 234.679 C 344.460 234.981,344.785 235.529,347.014 238.993 C 347.422 239.626,348.341 240.912,349.057 241.852 C 349.774 242.791,350.554 243.913,350.791 244.345 C 351.029 244.778,351.719 246.016,352.325 247.098 C 353.146 248.564,353.501 249.614,353.720 251.223 C 354.046 253.625,354.286 254.011,355.540 254.149 C 358.758 254.505,357.089 246.207,353.022 241.626 C 352.586 241.136,352.230 240.615,352.230 240.469 C 352.230 240.130,350.296 237.206,349.917 236.971 C 349.760 236.874,349.437 236.383,349.200 235.880 C 348.962 235.376,348.336 234.239,347.807 233.353 C 346.770 231.615,345.545 228.573,345.024 226.442 C 344.653 224.925,344.798 217.596,345.332 210.791 C 345.732 205.700,345.759 204.806,345.618 201.007 C 345.490 197.539,347.623 194.007,349.872 193.964 C 350.592 193.950,354.312 192.224,355.161 191.511 C 355.631 191.115,356.170 190.791,356.358 190.791 C 356.547 190.791,357.152 190.485,357.703 190.111 C 358.254 189.736,359.144 189.333,359.680 189.216 C 360.589 189.016,364.015 187.367,364.721 186.789 C 364.894 186.647,365.591 186.383,366.270 186.201 C 368.088 185.715,368.803 184.211,367.727 183.136 L 366.995 182.404 364.864 183.417 C 363.693 183.974,361.381 184.963,359.728 185.616 C 358.076 186.269,356.392 187.037,355.987 187.324 C 354.226 188.570,348.155 191.637,347.261 191.731 C 346.542 191.807,346.578 192.373,346.729 183.248 C 346.767 180.901,346.671 179.071,346.490 178.734 C 345.228 176.375,346.730 173.869,350.072 172.762 C 352.469 171.968,354.985 168.901,355.386 166.285 C 355.516 165.440,355.779 163.971,355.972 163.022 C 356.945 158.222,355.306 154.932,351.085 153.217 C 346.743 151.453,344.374 152.196,339.529 156.838 C 334.415 161.739,335.328 171.271,341.031 172.523 C 342.185 172.777,344.008 174.517,343.769 175.138 C 343.669 175.399,343.461 178.283,343.307 181.547 C 342.803 192.199,342.866 191.950,340.844 191.261 C 340.086 191.003,339.068 190.791,338.582 190.790 C 338.096 190.790,337.286 190.538,336.783 190.231 C 336.280 189.924,335.353 189.535,334.725 189.366 C 332.961 188.891,327.862 186.355,326.763 185.407 C 325.623 184.423,323.543 183.597,322.206 183.597 C 320.930 183.597,320.614 183.471,319.724 182.610 C 318.570 181.491,315.717 180.320,313.368 180.000 C 312.505 179.883,311.475 179.569,311.079 179.303 C 310.683 179.037,309.129 178.202,307.626 177.449 C 306.122 176.695,304.374 175.767,303.741 175.387 C 303.108 175.006,301.923 174.374,301.109 173.983 C 300.294 173.591,299.582 173.158,299.526 173.021 C 299.470 172.883,298.583 172.273,297.554 171.665 C 296.525 171.056,295.357 170.338,294.958 170.068 C 294.560 169.798,293.912 169.479,293.520 169.360 C 293.127 169.240,292.547 168.919,292.230 168.646 C 291.490 168.008,288.945 166.331,288.718 166.331 C 288.622 166.331,288.128 166.014,287.620 165.627 C 287.113 165.240,286.324 164.834,285.867 164.726 C 285.410 164.618,284.583 164.294,284.029 164.006 C 282.678 163.303,278.909 161.803,277.866 161.553 C 277.404 161.443,275.915 160.806,274.556 160.137 C 273.198 159.469,270.921 158.363,269.496 157.678 C 268.072 156.994,266.583 156.221,266.187 155.960 C 263.565 154.231,263.094 153.957,262.746 153.957 C 262.532 153.957,261.956 153.652,261.466 153.279 C 260.976 152.906,260.252 152.508,259.856 152.394 C 259.079 152.170,246.763 146.051,244.082 144.555 C 241.961 143.373,241.197 143.022,240.745 143.022 C 240.543 143.022,240.145 142.765,239.861 142.452 C 239.578 142.138,238.921 141.802,238.403 141.705 C 237.884 141.608,237.222 141.309,236.931 141.041 C 236.095 140.271,230.535 137.277,224.892 134.559 C 222.043 133.186,218.871 131.626,217.842 131.091 C 212.841 128.491,211.792 127.979,209.834 127.186 C 208.675 126.716,207.560 126.331,207.356 126.331 C 207.153 126.331,205.382 125.509,203.421 124.505 L 199.856 122.679 199.940 121.158 C 199.987 120.321,200.327 118.909,200.697 118.020 C 201.067 117.130,201.582 115.665,201.840 114.763 C 202.098 113.861,202.425 113.052,202.565 112.965 C 202.705 112.878,202.977 112.127,203.169 111.296 C 203.361 110.464,203.679 109.525,203.876 109.209 C 204.073 108.892,204.456 107.870,204.727 106.938 C 204.998 106.006,205.389 104.970,205.595 104.636 C 205.802 104.302,206.122 103.402,206.306 102.635 C 206.490 101.869,206.817 100.962,207.033 100.621 C 207.249 100.279,207.514 99.547,207.623 98.993 C 207.731 98.439,208.061 97.468,208.355 96.835 C 209.028 95.387,210.266 92.100,210.849 90.216 C 211.094 89.424,211.396 88.647,211.521 88.489 C 211.645 88.331,211.963 87.367,212.227 86.348 C 212.490 85.329,212.937 84.034,213.218 83.470 C 213.500 82.907,213.809 81.944,213.903 81.331 C 213.998 80.718,214.265 80.006,214.495 79.748 C 214.885 79.313,215.287 78.323,216.556 74.676 C 216.831 73.885,217.363 72.577,217.737 71.770 C 218.111 70.963,218.417 70.131,218.417 69.922 C 218.417 69.565,219.352 67.311,220.862 64.029 C 221.225 63.237,222.018 61.489,222.624 60.144 C 223.229 58.799,223.869 57.504,224.045 57.266 C 224.222 57.029,224.938 55.696,225.636 54.305 C 227.618 50.358,228.305 49.080,228.849 48.334 C 229.126 47.953,229.353 47.432,229.353 47.175 C 229.353 46.918,229.607 46.478,229.917 46.197 C 230.228 45.916,230.633 45.216,230.817 44.641 C 231.001 44.067,231.311 43.403,231.506 43.165 C 231.701 42.928,232.346 41.712,232.939 40.463 C 233.693 38.875,234.451 37.795,235.464 36.866 C 237.535 34.966,238.370 33.555,238.142 32.339 C 237.803 30.530,236.559 30.952,233.669 33.859 M225.954 45.910 C 225.905 46.379,225.567 47.216,225.203 47.770 C 224.149 49.377,223.448 50.624,222.129 53.237 C 221.450 54.583,220.661 55.992,220.376 56.370 C 220.090 56.747,219.856 57.265,219.855 57.521 C 219.854 57.776,219.466 58.763,218.993 59.712 C 218.519 60.662,218.131 61.607,218.131 61.813 C 218.130 62.020,217.877 62.667,217.568 63.252 C 216.762 64.780,215.252 68.220,215.252 68.528 C 215.252 68.838,213.391 73.724,212.800 74.964 C 211.993 76.661,210.727 80.163,210.524 81.265 C 210.411 81.882,210.130 82.673,209.900 83.024 C 209.670 83.375,209.234 84.489,208.930 85.500 C 207.958 88.741,207.157 91.032,206.325 92.950 C 205.879 93.978,205.156 95.856,204.718 97.122 C 204.281 98.388,203.765 99.683,203.571 100.000 C 203.019 100.905,201.793 104.174,201.413 105.755 C 201.223 106.547,200.870 107.583,200.628 108.058 C 200.045 109.207,199.219 111.449,197.027 117.842 C 196.138 120.435,195.541 120.633,192.834 119.229 C 191.821 118.703,190.810 118.273,190.586 118.273 C 190.362 118.273,189.314 117.874,188.255 117.385 C 184.696 115.742,184.032 115.456,183.309 115.259 C 182.329 114.991,178.850 113.240,177.266 112.218 C 176.554 111.758,175.388 111.070,174.676 110.688 C 173.964 110.306,172.604 109.578,171.655 109.071 C 170.705 108.563,169.799 108.055,169.640 107.941 C 169.131 107.575,165.377 106.244,163.597 105.799 C 161.344 105.235,158.430 104.259,156.947 103.570 C 156.296 103.269,155.663 103.022,155.539 103.022 C 155.415 103.022,154.361 102.538,153.196 101.946 C 150.075 100.361,150.536 98.523,154.417 97.078 C 154.718 96.966,155.755 96.218,156.722 95.415 C 157.688 94.613,159.340 93.309,160.393 92.518 C 161.446 91.727,163.051 90.492,163.960 89.775 C 164.868 89.058,166.129 88.124,166.763 87.701 C 167.396 87.278,168.820 86.278,169.928 85.478 C 174.217 82.382,177.284 80.288,177.529 80.288 C 177.641 80.288,178.044 79.996,178.425 79.640 C 178.805 79.284,179.330 78.863,179.591 78.705 C 180.040 78.433,183.052 76.444,184.851 75.231 C 185.303 74.926,186.088 74.417,186.594 74.101 C 187.101 73.784,187.702 73.357,187.930 73.152 C 188.159 72.947,189.058 72.266,189.928 71.640 C 190.799 71.014,191.698 70.344,191.927 70.151 C 192.156 69.957,192.998 69.319,193.798 68.732 C 194.597 68.145,195.511 67.463,195.827 67.217 C 198.034 65.498,200.637 63.560,202.131 62.525 C 204.355 60.984,205.006 60.507,206.454 59.357 C 207.099 58.845,207.931 58.198,208.305 57.918 C 208.678 57.639,209.390 57.073,209.887 56.661 C 210.385 56.249,211.114 55.742,211.507 55.535 C 212.237 55.151,213.490 54.194,218.282 50.360 C 219.766 49.173,221.655 47.748,222.481 47.194 C 223.306 46.640,224.251 45.896,224.581 45.540 C 225.407 44.647,226.067 44.825,225.954 45.910 M31.789 50.340 C 29.103 50.984,27.050 53.550,27.050 56.264 C 27.050 57.926,27.538 58.870,29.138 60.303 C 31.332 62.268,31.710 62.508,32.843 62.660 C 34.344 62.861,34.636 63.278,34.129 64.492 C 33.427 66.171,33.906 67.363,35.427 67.725 C 36.339 67.943,37.030 67.287,37.170 66.072 C 37.296 64.976,37.999 64.541,39.050 64.908 C 40.198 65.310,40.328 66.774,39.299 67.728 C 38.461 68.505,38.465 68.487,38.836 69.462 C 39.163 70.322,40.486 69.898,41.617 68.570 C 42.500 67.534,43.620 68.077,43.093 69.286 C 42.707 70.173,40.794 72.230,40.357 72.230 C 38.653 72.230,39.456 75.055,41.539 76.387 C 42.368 76.918,43.207 77.545,43.403 77.781 C 43.599 78.017,44.388 78.481,45.157 78.812 C 46.105 79.219,46.748 79.739,47.153 80.426 C 48.132 82.086,49.247 81.809,52.141 79.188 C 54.252 77.276,55.137 80.830,53.122 83.126 C 51.058 85.478,50.677 86.662,51.720 87.482 C 52.801 88.332,53.372 88.195,54.412 86.835 C 55.847 84.958,57.294 83.680,58.561 83.172 C 60.796 82.275,61.840 81.451,62.151 80.335 C 62.652 78.534,60.890 77.949,58.721 79.197 C 56.927 80.230,56.047 78.948,57.197 76.978 C 57.900 75.774,57.707 74.584,56.742 74.172 C 56.009 73.860,53.035 70.929,50.995 68.509 C 50.125 67.477,49.974 67.406,49.150 67.643 C 47.152 68.216,45.909 66.460,47.175 64.851 C 47.867 63.972,47.909 63.609,47.398 62.912 C 47.052 62.438,46.924 62.473,45.501 63.431 C 44.051 64.407,43.243 64.540,42.230 63.972 C 41.574 63.604,42.051 61.911,43.018 61.174 C 44.356 60.153,44.716 59.451,44.300 58.674 C 43.980 58.077,43.963 58.081,43.043 58.972 C 42.530 59.469,41.612 60.014,41.004 60.182 C 40.395 60.350,38.991 60.920,37.883 61.449 C 35.747 62.470,34.820 62.427,34.820 61.307 C 34.820 60.933,34.484 60.656,33.741 60.417 C 30.945 59.519,29.339 55.820,31.067 54.256 C 32.468 52.987,36.167 52.806,37.124 53.959 C 37.585 54.515,37.683 54.498,38.673 53.688 L 39.505 53.008 38.877 52.126 C 38.447 51.522,37.913 51.184,37.182 51.051 C 36.595 50.945,35.765 50.681,35.338 50.465 C 34.509 50.046,33.209 50.000,31.789 50.340 M50.576 71.799 C 50.853 72.037,51.629 72.699,52.302 73.271 C 53.738 74.493,53.794 74.732,52.734 75.135 C 51.815 75.484,49.028 77.292,48.773 77.705 C 48.291 78.484,42.869 74.351,42.876 73.210 C 42.882 72.187,43.913 71.905,45.445 72.509 C 47.079 73.153,47.869 72.991,48.201 71.943 C 48.425 71.239,49.824 71.154,50.576 71.799 M62.870 83.560 C 62.558 83.778,61.849 84.052,61.295 84.171 C 57.621 84.956,53.969 89.499,56.096 90.637 C 56.907 91.071,58.310 91.002,58.808 90.504 C 59.428 89.884,59.482 89.935,59.691 91.328 C 60.022 93.532,60.380 93.772,62.207 93.014 C 64.738 91.966,64.810 92.047,64.325 95.396 C 63.914 98.238,63.963 98.440,65.324 99.534 C 67.374 101.181,68.552 101.092,70.359 99.150 C 73.390 95.894,73.179 93.941,70.031 96.113 C 68.239 97.350,66.419 97.426,66.872 96.246 C 66.964 96.005,67.237 95.046,67.479 94.114 C 67.932 92.366,69.132 89.745,69.897 88.834 C 70.294 88.361,70.258 88.256,69.483 87.635 C 68.181 86.591,65.699 86.251,65.055 87.028 C 64.868 87.253,64.205 87.523,63.581 87.629 C 62.942 87.737,62.446 87.983,62.446 88.193 C 62.446 88.398,62.219 88.631,61.942 88.711 C 61.665 88.790,61.199 88.954,60.906 89.074 C 60.487 89.246,60.395 89.179,60.476 88.760 C 60.532 88.467,60.901 88.151,61.295 88.058 C 61.689 87.965,62.058 87.647,62.115 87.352 C 62.171 87.057,62.667 86.177,63.216 85.396 C 64.470 83.612,64.275 82.583,62.870 83.560 M73.372 93.693 C 72.997 94.681,73.222 94.964,74.382 94.964 C 76.097 94.964,76.327 94.745,75.618 93.786 C 74.820 92.707,73.764 92.663,73.372 93.693 M88.921 111.025 C 88.921 112.747,86.567 114.812,86.123 113.478 C 86.062 113.294,86.457 112.698,87.002 112.154 C 87.546 111.610,88.080 110.886,88.188 110.546 C 88.502 109.558,88.921 109.831,88.921 111.025 M104.466 129.415 C 103.217 129.658,101.622 131.150,101.412 132.274 C 101.196 133.424,101.722 135.540,102.223 135.540 C 102.405 135.540,102.820 135.781,103.147 136.075 C 104.882 137.640,107.367 137.233,105.846 135.633 C 103.992 133.684,104.299 132.359,106.697 131.954 C 107.293 131.853,108.296 131.478,108.926 131.120 C 110.070 130.471,110.074 130.471,111.316 131.013 C 112.769 131.648,113.381 131.511,113.381 130.553 C 113.381 129.877,113.325 129.862,109.856 129.664 C 107.917 129.553,106.072 129.420,105.755 129.369 C 105.439 129.318,104.858 129.339,104.466 129.415 M116.479 135.141 C 116.160 135.842,116.041 135.882,114.723 135.726 C 113.034 135.526,111.084 136.486,110.184 137.960 C 109.451 139.163,109.447 139.150,111.157 141.445 C 113.754 144.932,114.569 145.844,115.387 146.184 C 115.824 146.365,116.337 146.796,116.526 147.141 C 117.901 149.656,121.104 150.210,123.216 148.299 C 123.520 148.024,123.923 147.923,124.234 148.044 C 124.703 148.226,124.687 148.294,124.055 148.810 C 123.214 149.495,123.144 151.292,123.934 151.870 C 124.900 152.576,125.574 152.290,126.378 150.832 C 126.889 149.904,127.488 149.279,128.176 148.952 C 129.269 148.433,129.351 148.296,128.946 147.656 C 128.753 147.352,128.232 147.292,126.792 147.407 C 124.780 147.569,124.209 147.166,125.569 146.546 C 126.522 146.112,127.576 144.024,127.199 143.318 C 126.535 142.077,121.471 141.436,120.034 142.412 C 119.541 142.747,118.761 143.275,118.302 143.584 C 116.737 144.640,116.075 144.632,115.516 143.551 C 115.242 143.022,114.760 142.239,114.443 141.811 C 113.313 140.283,114.036 139.137,116.130 139.137 C 119.081 139.137,121.226 136.974,119.993 135.242 C 119.138 134.042,117.008 133.980,116.479 135.141 M123.910 144.099 C 123.601 144.409,123.437 143.975,123.654 143.422 C 123.858 142.904,123.873 142.903,123.974 143.404 C 124.032 143.693,124.003 144.006,123.910 144.099 M123.286 144.934 C 123.571 145.678,122.618 146.517,121.600 146.417 C 120.425 146.302,120.290 145.496,121.349 144.922 C 122.411 144.346,123.062 144.350,123.286 144.934 M349.006 156.803 C 349.334 156.979,350.032 157.123,350.557 157.123 C 353.756 157.125,354.094 166.261,350.995 168.973 C 347.509 172.024,340.926 170.592,339.836 166.546 C 338.725 162.418,341.925 157.420,346.475 156.178 C 346.965 156.044,348.121 156.330,349.006 156.803 M141.007 158.271 C 141.121 159.066,141.305 159.307,141.886 159.422 C 143.405 159.724,144.260 160.645,143.852 161.540 C 143.473 162.373,141.038 163.741,139.936 163.741 C 138.433 163.741,137.591 163.373,137.259 162.572 C 137.073 162.123,136.625 161.561,136.265 161.325 C 134.598 160.233,135.483 158.359,137.238 159.266 C 139.135 160.247,141.443 159.600,140.072 158.472 C 139.637 158.113,139.281 157.654,139.281 157.452 C 139.281 156.499,140.861 157.249,141.007 158.271 M156.101 174.709 C 156.264 174.861,156.003 174.964,155.453 174.964 C 154.809 174.964,154.532 174.829,154.532 174.513 C 154.532 174.043,155.520 174.166,156.101 174.709 M147.447 175.468 C 147.529 175.745,147.681 176.453,147.785 177.042 C 147.917 177.789,148.401 178.546,149.383 179.544 C 150.158 180.331,150.791 181.112,150.791 181.279 C 150.791 181.446,150.976 181.583,151.202 181.583 C 151.428 181.583,151.868 181.906,152.179 182.302 C 152.490 182.698,152.879 183.022,153.044 183.022 C 153.491 183.022,153.773 184.184,153.413 184.543 C 153.188 184.769,152.798 184.571,152.018 183.838 C 151.422 183.279,150.158 182.101,149.209 181.221 C 148.259 180.341,147.086 179.254,146.603 178.804 C 146.120 178.354,145.234 177.559,144.635 177.037 C 143.298 175.872,143.432 175.324,145.092 175.176 C 145.774 175.114,146.549 175.042,146.815 175.014 C 147.081 174.987,147.366 175.191,147.447 175.468 M158.793 176.920 C 160.024 177.941,159.827 178.444,157.762 179.562 C 155.619 180.723,153.669 180.538,153.669 179.175 C 153.669 179.007,153.313 178.579,152.878 178.223 L 152.086 177.575 152.878 177.564 C 153.394 177.558,153.669 177.704,153.669 177.986 C 153.669 178.782,154.788 178.427,155.938 177.266 C 157.281 175.909,157.537 175.878,158.793 176.920 M158.406 184.820 C 158.485 185.176,158.585 185.921,158.627 186.475 C 158.784 188.509,162.863 188.815,165.135 186.962 C 165.611 186.575,166.602 187.721,166.612 188.670 C 166.621 189.478,166.171 189.815,164.537 190.227 C 163.792 190.414,163.034 190.747,162.851 190.967 C 162.174 191.784,160.921 191.437,159.613 190.072 C 158.930 189.360,158.276 188.777,158.158 188.777 C 157.888 188.777,154.135 185.619,154.005 185.284 C 153.952 185.147,154.478 185.036,155.173 185.036 C 155.868 185.036,156.688 184.846,156.995 184.613 C 157.793 184.010,158.241 184.076,158.406 184.820 M169.185 192.048 C 169.774 193.001,169.775 193.046,169.275 194.688 C 168.657 196.718,168.484 196.793,166.965 195.693 C 165.575 194.686,165.624 194.133,167.278 192.204 C 168.425 190.867,168.454 190.865,169.185 192.048 " stroke="none" fill="#474647" fill-rule="evenodd"></path><path id="path1" d="M0.000 143.885 L 0.000 287.770 200.000 287.770 L 400.000 287.770 400.000 143.885 L 400.000 0.000 200.000 0.000 L 0.000 0.000 0.000 143.885 M238.142 32.339 C 238.370 33.555,237.535 34.966,235.464 36.866 C 234.451 37.795,233.693 38.875,232.939 40.463 C 232.346 41.712,231.701 42.928,231.506 43.165 C 231.311 43.403,231.001 44.067,230.817 44.641 C 230.633 45.216,230.228 45.916,229.917 46.197 C 229.607 46.478,229.353 46.918,229.353 47.175 C 229.353 47.432,229.126 47.953,228.849 48.334 C 228.305 49.080,227.618 50.358,225.636 54.305 C 224.938 55.696,224.222 57.029,224.045 57.266 C 223.869 57.504,223.229 58.799,222.624 60.144 C 222.018 61.489,221.225 63.237,220.862 64.029 C 219.352 67.311,218.417 69.565,218.417 69.922 C 218.417 70.131,218.111 70.963,217.737 71.770 C 217.363 72.577,216.831 73.885,216.556 74.676 C 215.287 78.323,214.885 79.313,214.495 79.748 C 214.265 80.006,213.998 80.718,213.903 81.331 C 213.809 81.944,213.500 82.907,213.218 83.470 C 212.937 84.034,212.490 85.329,212.227 86.348 C 211.963 87.367,211.645 88.331,211.521 88.489 C 211.396 88.647,211.094 89.424,210.849 90.216 C 210.266 92.100,209.028 95.387,208.355 96.835 C 208.061 97.468,207.731 98.439,207.623 98.993 C 207.514 99.547,207.249 100.279,207.033 100.621 C 206.817 100.962,206.490 101.869,206.306 102.635 C 206.122 103.402,205.802 104.302,205.595 104.636 C 205.389 104.970,204.998 106.006,204.727 106.938 C 204.456 107.870,204.073 108.892,203.876 109.209 C 203.679 109.525,203.361 110.464,203.169 111.296 C 202.977 112.127,202.705 112.878,202.565 112.965 C 202.425 113.052,202.098 113.861,201.840 114.763 C 201.582 115.665,201.067 117.130,200.697 118.020 C 200.327 118.909,199.987 120.321,199.940 121.158 L 199.856 122.679 203.421 124.505 C 205.382 125.509,207.153 126.331,207.356 126.331 C 207.560 126.331,208.675 126.716,209.834 127.186 C 211.792 127.979,212.841 128.491,217.842 131.091 C 218.871 131.626,222.043 133.186,224.892 134.559 C 230.535 137.277,236.095 140.271,236.931 141.041 C 237.222 141.309,237.884 141.608,238.403 141.705 C 238.921 141.802,239.578 142.138,239.861 142.452 C 240.145 142.765,240.543 143.022,240.745 143.022 C 241.197 143.022,241.961 143.373,244.082 144.555 C 246.763 146.051,259.079 152.170,259.856 152.394 C 260.252 152.508,260.976 152.906,261.466 153.279 C 261.956 153.652,262.532 153.957,262.746 153.957 C 263.094 153.957,263.565 154.231,266.187 155.960 C 266.583 156.221,268.072 156.994,269.496 157.678 C 270.921 158.363,273.198 159.469,274.556 160.137 C 275.915 160.806,277.404 161.443,277.866 161.553 C 278.909 161.803,282.678 163.303,284.029 164.006 C 284.583 164.294,285.410 164.618,285.867 164.726 C 286.324 164.834,287.113 165.240,287.620 165.627 C 288.128 166.014,288.622 166.331,288.718 166.331 C 288.945 166.331,291.490 168.008,292.230 168.646 C 292.547 168.919,293.127 169.240,293.520 169.360 C 293.912 169.479,294.560 169.798,294.958 170.068 C 295.357 170.338,296.525 171.056,297.554 171.665 C 298.583 172.273,299.470 172.883,299.526 173.021 C 299.582 173.158,300.294 173.591,301.109 173.983 C 301.923 174.374,303.108 175.006,303.741 175.387 C 304.374 175.767,306.122 176.695,307.626 177.449 C 309.129 178.202,310.683 179.037,311.079 179.303 C 311.475 179.569,312.505 179.883,313.368 180.000 C 315.717 180.320,318.570 181.491,319.724 182.610 C 320.614 183.471,320.930 183.597,322.206 183.597 C 323.543 183.597,325.623 184.423,326.763 185.407 C 327.862 186.355,332.961 188.891,334.725 189.366 C 335.353 189.535,336.280 189.924,336.783 190.231 C 337.286 190.538,338.096 190.790,338.582 190.790 C 339.068 190.791,340.086 191.003,340.844 191.261 C 342.866 191.950,342.803 192.199,343.307 181.547 C 343.461 178.283,343.669 175.399,343.769 175.138 C 344.008 174.517,342.185 172.777,341.031 172.523 C 335.328 171.271,334.415 161.739,339.529 156.838 C 344.374 152.196,346.743 151.453,351.085 153.217 C 355.306 154.932,356.945 158.222,355.972 163.022 C 355.779 163.971,355.516 165.440,355.386 166.285 C 354.985 168.901,352.469 171.968,350.072 172.762 C 346.730 173.869,345.228 176.375,346.490 178.734 C 346.671 179.071,346.767 180.901,346.729 183.248 C 346.578 192.373,346.542 191.807,347.261 191.731 C 348.155 191.637,354.226 188.570,355.987 187.324 C 356.392 187.037,358.076 186.269,359.728 185.616 C 361.381 184.963,363.693 183.974,364.864 183.417 L 366.995 182.404 367.727 183.136 C 368.803 184.211,368.088 185.715,366.270 186.201 C 365.591 186.383,364.894 186.647,364.721 186.789 C 364.015 187.367,360.589 189.016,359.680 189.216 C 359.144 189.333,358.254 189.736,357.703 190.111 C 357.152 190.485,356.547 190.791,356.358 190.791 C 356.170 190.791,355.631 191.115,355.161 191.511 C 354.312 192.224,350.592 193.950,349.872 193.964 C 347.623 194.007,345.490 197.539,345.618 201.007 C 345.759 204.806,345.732 205.700,345.332 210.791 C 344.798 217.596,344.653 224.925,345.024 226.442 C 345.545 228.573,346.770 231.615,347.807 233.353 C 348.336 234.239,348.962 235.376,349.200 235.880 C 349.437 236.383,349.760 236.874,349.917 236.971 C 350.296 237.206,352.230 240.130,352.230 240.469 C 352.230 240.615,352.586 241.136,353.022 241.626 C 357.089 246.207,358.758 254.505,355.540 254.149 C 354.286 254.011,354.046 253.625,353.720 251.223 C 353.501 249.614,353.146 248.564,352.325 247.098 C 351.719 246.016,351.029 244.778,350.791 244.345 C 350.554 243.913,349.774 242.791,349.057 241.852 C 348.341 240.912,347.422 239.626,347.014 238.993 C 344.785 235.529,344.460 234.981,344.460 234.679 C 344.460 234.497,343.995 233.804,343.426 233.140 L 342.392 231.931 341.484 233.135 C 340.441 234.516,339.526 235.965,338.783 237.410 C 338.498 237.964,337.749 239.187,337.118 240.127 C 336.042 241.732,335.646 242.373,334.029 245.134 C 331.822 248.900,330.443 249.994,329.051 249.082 C 328.001 248.394,328.565 245.475,329.852 244.937 C 329.981 244.883,330.332 244.359,330.632 243.772 C 331.189 242.679,333.360 239.274,334.320 237.986 C 335.009 237.061,337.906 231.797,338.398 230.576 C 338.605 230.061,338.886 229.640,339.023 229.640 C 339.986 229.640,340.640 226.869,340.822 222.014 C 340.923 219.324,341.135 215.957,341.292 214.532 C 341.450 213.108,341.705 209.871,341.859 207.338 C 342.059 204.063,342.314 202.205,342.742 200.904 L 343.344 199.074 342.244 197.163 C 341.188 195.328,341.093 195.245,339.853 195.092 C 339.142 195.005,337.314 194.325,335.790 193.582 C 334.266 192.838,332.838 192.230,332.616 192.230 C 332.070 192.230,328.172 190.346,327.940 189.970 C 327.584 189.395,324.294 187.914,323.373 187.914 C 322.863 187.914,321.669 187.539,320.719 187.080 C 319.770 186.621,318.669 186.104,318.273 185.931 C 317.878 185.757,316.906 185.229,316.115 184.757 C 315.324 184.284,314.094 183.620,313.381 183.281 C 312.669 182.941,311.892 182.497,311.655 182.293 C 311.417 182.090,310.670 181.777,309.994 181.597 C 309.318 181.417,308.297 180.952,307.724 180.563 C 307.151 180.174,306.449 179.856,306.164 179.856 C 305.879 179.856,305.563 179.723,305.462 179.560 C 305.361 179.396,304.544 178.903,303.647 178.464 C 300.680 177.011,297.422 175.174,296.597 174.488 C 296.149 174.117,295.655 173.813,295.498 173.813 C 295.342 173.813,294.801 173.504,294.297 173.127 C 293.794 172.750,293.058 172.342,292.662 172.222 C 292.266 172.102,291.554 171.716,291.079 171.364 C 290.604 171.013,289.568 170.362,288.777 169.919 C 287.986 169.476,287.079 168.887,286.763 168.611 C 286.446 168.335,285.281 167.789,284.173 167.397 C 281.062 166.297,279.621 165.764,278.993 165.479 C 278.676 165.336,276.993 164.620,275.252 163.888 C 273.511 163.157,270.791 161.851,269.209 160.988 C 267.626 160.124,265.651 159.096,264.820 158.705 C 263.989 158.313,263.309 157.879,263.309 157.740 C 263.309 157.601,262.694 157.218,261.942 156.889 C 261.191 156.561,260.252 156.101,259.856 155.868 C 258.520 155.080,256.266 154.041,255.108 153.678 C 253.810 153.271,248.165 150.334,247.921 149.939 C 247.833 149.798,247.293 149.527,246.719 149.338 C 246.146 149.149,245.223 148.686,244.669 148.310 C 244.114 147.934,243.387 147.619,243.053 147.610 C 242.719 147.602,241.540 147.096,240.432 146.486 C 239.324 145.876,237.381 144.866,236.115 144.241 C 234.849 143.616,233.123 142.635,232.279 142.060 C 231.436 141.485,229.493 140.421,227.963 139.696 C 226.432 138.970,224.791 138.173,224.317 137.924 C 221.610 136.505,218.917 135.253,218.557 135.247 C 218.401 135.244,217.691 134.845,216.978 134.361 C 215.430 133.307,209.948 130.647,209.326 130.647 C 209.084 130.647,207.826 130.142,206.530 129.525 C 205.233 128.907,203.030 127.875,201.633 127.231 L 199.093 126.060 198.423 126.731 C 198.054 127.099,197.532 128.164,197.263 129.096 C 196.993 130.029,196.580 131.309,196.345 131.942 C 196.111 132.576,195.684 133.935,195.398 134.964 C 194.730 137.366,192.386 143.687,191.609 145.180 C 191.280 145.813,190.842 146.849,190.637 147.482 C 190.268 148.617,189.100 151.554,188.348 153.237 C 188.136 153.712,187.827 154.846,187.660 155.756 C 187.494 156.667,187.199 157.703,187.005 158.059 C 186.811 158.414,186.434 159.676,186.167 160.863 C 185.672 163.061,184.856 165.307,183.833 167.290 C 183.520 167.897,183.094 168.998,182.885 169.737 C 182.428 171.360,181.312 173.979,180.660 174.964 C 180.397 175.360,180.091 176.072,179.980 176.547 C 179.868 177.022,179.158 178.669,178.403 180.207 C 177.647 181.745,176.868 183.490,176.672 184.085 C 176.476 184.679,176.077 185.558,175.785 186.036 C 175.493 186.515,175.249 187.101,175.243 187.338 C 175.237 187.576,174.991 188.281,174.695 188.906 C 174.134 190.091,174.178 190.431,175.120 192.254 C 175.688 193.352,175.314 194.058,173.504 195.298 C 172.444 196.024,172.223 196.387,171.516 198.561 C 170.411 201.957,170.428 201.929,169.425 202.129 C 168.428 202.329,167.379 201.547,166.296 199.799 C 165.983 199.293,165.468 198.797,165.152 198.696 C 164.230 198.404,160.593 195.306,156.864 191.637 C 156.452 191.232,155.777 190.690,155.364 190.434 C 154.951 190.178,153.980 189.430,153.206 188.774 C 152.432 188.117,151.410 187.255,150.935 186.859 C 150.460 186.463,148.388 184.488,146.331 182.471 C 144.273 180.455,141.661 178.017,140.526 177.054 C 138.642 175.456,136.159 172.924,133.538 169.928 C 131.290 167.359,124.612 160.734,122.590 159.067 C 119.657 156.649,114.555 152.260,113.646 151.372 C 113.237 150.974,112.590 150.419,112.207 150.140 C 109.562 148.210,107.916 146.782,103.896 142.928 C 101.390 140.526,98.336 137.784,97.109 136.835 C 93.667 134.172,86.189 126.598,84.748 124.316 C 83.950 123.053,73.084 112.050,70.072 109.455 C 66.350 106.250,65.231 105.199,60.592 100.555 C 58.050 98.011,55.152 95.206,54.151 94.322 C 51.913 92.347,51.676 91.055,53.561 91.109 C 54.839 91.145,55.927 91.929,59.514 95.396 C 60.987 96.820,62.441 98.101,62.745 98.243 C 63.048 98.384,63.369 98.726,63.456 99.003 C 63.544 99.280,63.870 99.573,64.181 99.654 C 64.491 99.735,64.836 100.037,64.947 100.326 C 65.666 102.202,68.366 103.851,69.257 102.960 C 69.899 102.318,70.063 102.286,71.336 102.546 C 73.068 102.901,73.565 102.713,73.807 101.610 C 74.543 98.261,81.793 96.869,82.841 99.876 C 83.406 101.495,82.469 102.464,81.609 101.151 C 80.315 99.176,77.657 100.337,76.011 103.597 C 74.998 105.604,74.832 105.782,73.648 106.139 C 72.947 106.350,72.197 106.579,71.980 106.647 C 71.551 106.782,78.792 114.191,79.946 114.798 C 80.751 115.221,81.290 114.876,81.571 113.758 C 82.216 111.187,88.689 107.143,88.973 109.134 C 89.239 110.997,90.925 108.449,90.940 106.162 C 90.949 104.654,92.839 104.329,93.577 105.708 C 94.467 107.371,93.308 112.116,91.626 113.696 C 91.246 114.053,90.935 114.498,90.935 114.684 C 90.935 114.871,90.612 115.373,90.216 115.800 C 89.820 116.227,89.496 116.699,89.496 116.849 C 89.496 116.999,89.296 117.122,89.052 117.122 C 88.807 117.122,87.999 117.446,87.255 117.842 C 86.512 118.237,85.637 118.561,85.312 118.561 C 83.738 118.561,84.252 120.363,86.101 121.323 C 87.096 121.840,87.192 121.831,87.206 121.223 C 87.234 120.075,90.168 116.547,91.095 116.547 C 91.213 116.547,91.970 116.237,92.777 115.858 C 97.742 113.530,97.568 113.550,99.471 115.067 C 101.525 116.705,104.400 119.645,104.618 120.330 C 105.202 122.172,103.063 121.983,100.981 120.010 C 100.283 119.348,99.356 118.674,98.921 118.512 C 98.486 118.350,98.129 118.113,98.129 117.986 C 98.129 117.500,96.188 116.589,95.857 116.920 C 95.050 117.727,95.713 119.137,96.899 119.137 C 97.581 119.137,98.313 120.334,97.969 120.890 C 97.270 122.021,95.063 122.061,93.790 120.966 C 93.316 120.558,91.222 120.416,91.224 120.791 C 91.227 121.406,92.418 122.826,93.203 123.151 C 93.697 123.356,94.101 123.620,94.101 123.738 C 94.101 123.856,94.608 124.288,95.228 124.698 C 97.250 126.036,96.043 127.319,93.392 126.651 C 91.025 126.055,90.614 126.376,92.014 127.726 C 92.450 128.146,93.388 129.186,94.101 130.039 C 96.114 132.447,97.285 133.579,98.909 134.687 C 100.890 136.039,105.853 140.297,106.762 141.425 C 107.630 142.503,109.253 143.967,112.518 146.616 C 113.863 147.708,115.748 149.321,116.707 150.200 C 117.665 151.079,119.065 152.252,119.817 152.806 C 122.432 154.731,132.124 163.824,134.080 166.187 C 134.473 166.662,135.383 167.649,136.102 168.380 C 136.822 169.111,138.211 170.570,139.189 171.622 C 140.960 173.526,141.871 173.647,141.871 171.978 C 141.871 171.385,143.410 169.745,144.477 169.200 C 145.738 168.557,145.766 168.459,145.216 166.619 C 144.696 164.878,144.120 164.832,142.723 166.419 C 142.100 167.127,141.038 167.981,140.363 168.318 L 139.137 168.930 138.601 168.279 C 138.182 167.768,138.101 167.334,138.227 166.268 C 138.412 164.704,138.193 164.459,136.699 164.561 C 135.821 164.621,135.435 164.404,133.850 162.962 L 132.017 161.295 131.980 159.281 L 131.942 157.266 130.838 157.332 C 129.478 157.414,128.301 156.834,127.477 155.676 C 126.330 154.066,127.473 152.374,129.218 153.097 C 130.064 153.448,131.798 152.535,132.180 151.537 C 132.468 150.788,135.478 149.352,136.758 149.354 C 141.309 149.360,141.257 151.687,136.691 152.389 C 135.053 152.641,131.984 155.683,132.510 156.534 C 132.886 157.143,134.673 156.868,135.393 156.091 C 136.063 155.368,136.126 155.357,137.719 155.688 C 138.620 155.875,139.733 155.953,140.193 155.861 C 140.782 155.743,141.077 155.820,141.193 156.120 C 141.283 156.355,141.569 156.549,141.829 156.552 C 142.089 156.554,143.138 157.394,144.161 158.418 C 145.183 159.442,146.639 160.702,147.397 161.219 C 148.964 162.287,149.105 162.864,148.183 164.428 C 147.013 166.410,148.543 167.181,151.736 166.220 C 155.306 165.146,154.786 168.389,151.172 169.745 C 147.172 171.246,145.611 172.542,146.360 173.739 C 146.845 174.514,148.083 174.506,150.330 173.715 C 151.454 173.318,152.879 172.910,153.495 172.807 C 154.112 172.704,154.918 172.423,155.285 172.182 C 155.894 171.783,156.017 171.791,156.649 172.275 C 157.031 172.567,157.650 173.000,158.024 173.237 C 158.399 173.475,159.538 174.478,160.556 175.468 C 161.574 176.457,162.515 177.266,162.647 177.266 C 163.341 177.266,163.811 179.175,163.341 180.083 C 163.086 180.576,162.877 181.276,162.876 181.640 C 162.875 182.004,162.681 182.672,162.446 183.123 C 161.865 184.237,162.074 184.432,163.519 184.123 C 167.377 183.299,167.855 183.407,169.104 185.386 C 170.680 187.883,172.861 186.239,173.937 181.744 C 174.048 181.279,174.389 180.547,174.695 180.117 C 175.001 179.687,175.252 179.173,175.252 178.974 C 175.252 178.775,175.559 178.082,175.934 177.435 C 176.310 176.788,176.709 175.935,176.821 175.540 C 176.934 175.144,177.326 174.173,177.694 173.381 C 178.062 172.590,178.763 171.077,179.253 170.018 C 179.743 168.960,180.144 167.886,180.144 167.633 C 180.144 167.379,180.395 166.678,180.703 166.075 C 181.011 165.473,181.463 164.113,181.709 163.054 C 181.954 161.995,182.335 160.777,182.554 160.348 C 182.774 159.919,183.049 158.986,183.166 158.273 C 183.282 157.561,183.686 156.449,184.063 155.802 C 184.440 155.155,184.748 154.212,184.748 153.706 C 184.748 153.200,185.072 152.148,185.468 151.367 C 185.863 150.586,186.187 149.694,186.187 149.385 C 186.187 149.076,186.899 147.330,187.770 145.506 C 188.640 143.681,189.356 142.020,189.361 141.814 C 189.365 141.608,189.958 139.755,190.678 137.698 C 191.398 135.640,192.179 133.192,192.413 132.256 C 192.647 131.321,193.005 130.220,193.209 129.810 C 194.907 126.400,194.664 123.579,192.622 122.989 C 191.967 122.800,191.125 122.453,190.751 122.218 C 190.378 121.983,189.554 121.627,188.921 121.427 C 188.288 121.227,187.511 120.904,187.194 120.708 C 186.878 120.512,186.122 120.194,185.516 120.002 C 184.909 119.809,183.873 119.343,183.214 118.966 C 182.554 118.589,181.849 118.279,181.646 118.277 C 181.443 118.275,180.342 117.740,179.200 117.088 C 177.076 115.876,175.600 115.063,171.799 113.013 C 170.612 112.373,169.446 111.688,169.209 111.491 C 168.971 111.294,168.195 110.978,167.484 110.788 C 166.772 110.599,165.736 110.216,165.181 109.937 C 164.627 109.658,163.655 109.339,163.022 109.226 C 161.906 109.029,160.131 108.290,157.368 106.873 C 156.632 106.496,155.877 106.187,155.689 106.187 C 155.311 106.187,152.015 104.814,149.780 103.725 C 148.986 103.338,147.937 103.022,147.449 103.022 C 146.538 103.022,144.173 101.556,144.173 100.991 C 144.173 100.182,145.150 98.953,146.112 98.551 C 146.696 98.307,147.243 98.007,147.328 97.884 C 147.642 97.427,150.723 95.540,151.154 95.540 C 151.399 95.540,152.123 95.119,152.761 94.604 C 153.400 94.090,154.389 93.345,154.958 92.950 C 156.304 92.015,157.762 90.864,159.994 88.974 C 160.988 88.133,162.497 87.052,163.347 86.573 C 164.197 86.093,164.892 85.596,164.892 85.469 C 164.892 85.341,165.313 84.967,165.827 84.638 C 166.927 83.933,170.885 81.121,172.659 79.784 C 173.341 79.270,174.049 78.849,174.233 78.849 C 174.417 78.849,175.271 78.248,176.132 77.513 C 176.992 76.779,178.233 75.948,178.888 75.666 C 179.544 75.385,180.168 75.014,180.275 74.841 C 180.483 74.503,183.487 72.518,183.789 72.518 C 183.888 72.518,184.501 72.090,185.150 71.566 C 185.800 71.042,186.849 70.307,187.482 69.932 C 188.115 69.557,189.540 68.452,190.647 67.476 C 191.755 66.501,193.568 65.075,194.676 64.307 C 195.784 63.540,197.940 61.933,199.466 60.737 C 200.993 59.540,202.904 58.108,203.714 57.554 C 205.045 56.644,207.456 54.863,209.571 53.228 C 210.007 52.890,211.003 52.175,211.784 51.638 C 212.564 51.101,214.571 49.590,216.243 48.281 C 217.915 46.971,220.140 45.252,221.187 44.460 C 224.280 42.123,227.348 39.538,227.809 38.881 C 228.045 38.543,228.910 37.829,229.731 37.293 C 230.551 36.757,232.324 35.212,233.669 33.859 C 236.559 30.952,237.803 30.530,238.142 32.339 M224.581 45.540 C 224.251 45.896,223.306 46.640,222.481 47.194 C 221.655 47.748,219.766 49.173,218.282 50.360 C 213.490 54.194,212.237 55.151,211.507 55.535 C 211.114 55.742,210.385 56.249,209.887 56.661 C 209.390 57.073,208.678 57.639,208.305 57.918 C 207.931 58.198,207.099 58.845,206.454 59.357 C 205.006 60.507,204.355 60.984,202.131 62.525 C 200.637 63.560,198.034 65.498,195.827 67.217 C 195.511 67.463,194.597 68.145,193.798 68.732 C 192.998 69.319,192.156 69.957,191.927 70.151 C 191.698 70.344,190.799 71.014,189.928 71.640 C 189.058 72.266,188.159 72.947,187.930 73.152 C 187.702 73.357,187.101 73.784,186.594 74.101 C 186.088 74.417,185.303 74.926,184.851 75.231 C 183.052 76.444,180.040 78.433,179.591 78.705 C 179.330 78.863,178.805 79.284,178.425 79.640 C 178.044 79.996,177.641 80.288,177.529 80.288 C 177.284 80.288,174.217 82.382,169.928 85.478 C 168.820 86.278,167.396 87.278,166.763 87.701 C 166.129 88.124,164.868 89.058,163.960 89.775 C 163.051 90.492,161.446 91.727,160.393 92.518 C 159.340 93.309,157.688 94.613,156.722 95.415 C 155.755 96.218,154.718 96.966,154.417 97.078 C 150.536 98.523,150.075 100.361,153.196 101.946 C 154.361 102.538,155.415 103.022,155.539 103.022 C 155.663 103.022,156.296 103.269,156.947 103.570 C 158.430 104.259,161.344 105.235,163.597 105.799 C 165.377 106.244,169.131 107.575,169.640 107.941 C 169.799 108.055,170.705 108.563,171.655 109.071 C 172.604 109.578,173.964 110.306,174.676 110.688 C 175.388 111.070,176.554 111.758,177.266 112.218 C 178.850 113.240,182.329 114.991,183.309 115.259 C 184.032 115.456,184.696 115.742,188.255 117.385 C 189.314 117.874,190.362 118.273,190.586 118.273 C 190.810 118.273,191.821 118.703,192.834 119.229 C 195.541 120.633,196.138 120.435,197.027 117.842 C 199.219 111.449,200.045 109.207,200.628 108.058 C 200.870 107.583,201.223 106.547,201.413 105.755 C 201.793 104.174,203.019 100.905,203.571 100.000 C 203.765 99.683,204.281 98.388,204.718 97.122 C 205.156 95.856,205.879 93.978,206.325 92.950 C 207.157 91.032,207.958 88.741,208.930 85.500 C 209.234 84.489,209.670 83.375,209.900 83.024 C 210.130 82.673,210.411 81.882,210.524 81.265 C 210.727 80.163,211.993 76.661,212.800 74.964 C 213.391 73.724,215.252 68.838,215.252 68.528 C 215.252 68.220,216.762 64.780,217.568 63.252 C 217.877 62.667,218.130 62.020,218.131 61.813 C 218.131 61.607,218.519 60.662,218.993 59.712 C 219.466 58.763,219.854 57.776,219.855 57.521 C 219.856 57.265,220.090 56.747,220.376 56.370 C 220.661 55.992,221.450 54.583,222.129 53.237 C 223.448 50.624,224.149 49.377,225.203 47.770 C 226.500 45.794,226.001 44.007,224.581 45.540 M35.338 50.465 C 35.765 50.681,36.595 50.945,37.182 51.051 C 37.913 51.184,38.447 51.522,38.877 52.126 L 39.505 53.008 38.673 53.688 C 37.683 54.498,37.585 54.515,37.124 53.959 C 36.167 52.806,32.468 52.987,31.067 54.256 C 29.339 55.820,30.945 59.519,33.741 60.417 C 34.484 60.656,34.820 60.933,34.820 61.307 C 34.820 62.427,35.747 62.470,37.883 61.449 C 38.991 60.920,40.395 60.350,41.004 60.182 C 41.612 60.014,42.530 59.469,43.043 58.972 C 43.963 58.081,43.980 58.077,44.300 58.674 C 44.716 59.451,44.356 60.153,43.018 61.174 C 42.051 61.911,41.574 63.604,42.230 63.972 C 43.243 64.540,44.051 64.407,45.501 63.431 C 46.924 62.473,47.052 62.438,47.398 62.912 C 47.909 63.609,47.867 63.972,47.175 64.851 C 45.909 66.460,47.152 68.216,49.150 67.643 C 49.974 67.406,50.125 67.477,50.995 68.509 C 53.035 70.929,56.009 73.860,56.742 74.172 C 57.707 74.584,57.900 75.774,57.197 76.978 C 56.047 78.948,56.927 80.230,58.721 79.197 C 60.890 77.949,62.652 78.534,62.151 80.335 C 61.840 81.451,60.796 82.275,58.561 83.172 C 57.294 83.680,55.847 84.958,54.412 86.835 C 53.372 88.195,52.801 88.332,51.720 87.482 C 50.677 86.662,51.058 85.478,53.122 83.126 C 55.137 80.830,54.252 77.276,52.141 79.188 C 49.247 81.809,48.132 82.086,47.153 80.426 C 46.748 79.739,46.105 79.219,45.157 78.812 C 44.388 78.481,43.599 78.017,43.403 77.781 C 43.207 77.545,42.368 76.918,41.539 76.387 C 39.456 75.055,38.653 72.230,40.357 72.230 C 40.794 72.230,42.707 70.173,43.093 69.286 C 43.620 68.077,42.500 67.534,41.617 68.570 C 40.486 69.898,39.163 70.322,38.836 69.462 C 38.465 68.487,38.461 68.505,39.299 67.728 C 40.328 66.774,40.198 65.310,39.050 64.908 C 37.999 64.541,37.296 64.976,37.170 66.072 C 37.030 67.287,36.339 67.943,35.427 67.725 C 33.906 67.363,33.427 66.171,34.129 64.492 C 34.636 63.278,34.344 62.861,32.843 62.660 C 31.710 62.508,31.332 62.268,29.138 60.303 C 27.041 58.424,26.482 56.305,27.465 53.954 C 28.642 51.137,32.920 49.241,35.338 50.465 M48.201 71.943 C 47.869 72.991,47.079 73.153,45.445 72.509 C 43.913 71.905,42.882 72.187,42.876 73.210 C 42.869 74.351,48.291 78.484,48.773 77.705 C 49.028 77.292,51.815 75.484,52.734 75.135 C 53.794 74.732,53.738 74.493,52.302 73.271 C 51.629 72.699,50.853 72.037,50.576 71.799 C 49.824 71.154,48.425 71.239,48.201 71.943 M64.058 83.571 C 64.144 83.794,63.765 84.615,63.216 85.396 C 62.667 86.177,62.171 87.057,62.115 87.352 C 62.058 87.647,61.689 87.965,61.295 88.058 C 60.901 88.151,60.532 88.467,60.476 88.760 C 60.395 89.179,60.487 89.246,60.906 89.074 C 61.199 88.954,61.665 88.790,61.942 88.711 C 62.219 88.631,62.446 88.398,62.446 88.193 C 62.446 87.983,62.942 87.737,63.581 87.629 C 64.205 87.523,64.868 87.253,65.055 87.028 C 65.699 86.251,68.181 86.591,69.483 87.635 C 70.258 88.256,70.294 88.361,69.897 88.834 C 69.132 89.745,67.932 92.366,67.479 94.114 C 67.237 95.046,66.964 96.005,66.872 96.246 C 66.419 97.426,68.239 97.350,70.031 96.113 C 73.179 93.941,73.390 95.894,70.359 99.150 C 68.552 101.092,67.374 101.181,65.324 99.534 C 63.963 98.440,63.914 98.238,64.325 95.396 C 64.810 92.047,64.738 91.966,62.207 93.014 C 60.380 93.772,60.022 93.532,59.691 91.328 C 59.482 89.935,59.428 89.884,58.808 90.504 C 58.310 91.002,56.907 91.071,56.096 90.637 C 53.969 89.499,57.621 84.956,61.295 84.171 C 61.849 84.052,62.558 83.778,62.870 83.560 C 63.589 83.060,63.863 83.062,64.058 83.571 M75.618 93.786 C 76.327 94.745,76.097 94.964,74.382 94.964 C 73.222 94.964,72.997 94.681,73.372 93.693 C 73.764 92.663,74.820 92.707,75.618 93.786 M88.188 110.546 C 88.080 110.886,87.546 111.610,87.002 112.154 C 86.457 112.698,86.062 113.294,86.123 113.478 C 86.567 114.812,88.921 112.747,88.921 111.025 C 88.921 109.831,88.502 109.558,88.188 110.546 M109.856 129.664 C 113.325 129.862,113.381 129.877,113.381 130.553 C 113.381 131.511,112.769 131.648,111.316 131.013 C 110.074 130.471,110.070 130.471,108.926 131.120 C 108.296 131.478,107.293 131.853,106.697 131.954 C 104.299 132.359,103.992 133.684,105.846 135.633 C 107.367 137.233,104.882 137.640,103.147 136.075 C 102.820 135.781,102.405 135.540,102.223 135.540 C 101.722 135.540,101.196 133.424,101.412 132.274 C 101.720 130.628,104.021 129.090,105.755 129.369 C 106.072 129.420,107.917 129.553,109.856 129.664 M119.993 135.242 C 121.226 136.974,119.081 139.137,116.130 139.137 C 114.036 139.137,113.313 140.283,114.443 141.811 C 114.760 142.239,115.242 143.022,115.516 143.551 C 116.075 144.632,116.737 144.640,118.302 143.584 C 118.761 143.275,119.541 142.747,120.034 142.412 C 121.471 141.436,126.535 142.077,127.199 143.318 C 127.576 144.024,126.522 146.112,125.569 146.546 C 124.209 147.166,124.780 147.569,126.792 147.407 C 128.232 147.292,128.753 147.352,128.946 147.656 C 129.351 148.296,129.269 148.433,128.176 148.952 C 127.488 149.279,126.889 149.904,126.378 150.832 C 125.574 152.290,124.900 152.576,123.934 151.870 C 123.144 151.292,123.214 149.495,124.055 148.810 C 124.687 148.294,124.703 148.226,124.234 148.044 C 123.923 147.923,123.520 148.024,123.216 148.299 C 121.104 150.210,117.901 149.656,116.526 147.141 C 116.337 146.796,115.824 146.365,115.387 146.184 C 114.569 145.844,113.754 144.932,111.157 141.445 C 109.447 139.150,109.451 139.163,110.184 137.960 C 111.084 136.486,113.034 135.526,114.723 135.726 C 116.041 135.882,116.160 135.842,116.479 135.141 C 117.008 133.980,119.138 134.042,119.993 135.242 M123.654 143.422 C 123.536 143.722,123.507 144.035,123.590 144.118 C 123.853 144.380,124.084 143.950,123.974 143.404 C 123.873 142.903,123.858 142.904,123.654 143.422 M121.349 144.922 C 120.290 145.496,120.425 146.302,121.600 146.417 C 122.618 146.517,123.571 145.678,123.286 144.934 C 123.062 144.350,122.411 144.346,121.349 144.922 M346.475 156.178 C 341.925 157.420,338.725 162.418,339.836 166.546 C 340.926 170.592,347.509 172.024,350.995 168.973 C 354.094 166.261,353.756 157.125,350.557 157.123 C 350.032 157.123,349.334 156.979,349.006 156.803 C 348.121 156.330,346.965 156.044,346.475 156.178 M139.281 157.452 C 139.281 157.654,139.637 158.113,140.072 158.472 C 141.443 159.600,139.135 160.247,137.238 159.266 C 135.483 158.359,134.598 160.233,136.265 161.325 C 136.625 161.561,137.073 162.123,137.259 162.572 C 138.042 164.462,142.865 163.707,143.852 161.540 C 144.260 160.645,143.405 159.724,141.886 159.422 C 141.305 159.307,141.121 159.066,141.007 158.271 C 140.861 157.249,139.281 156.499,139.281 157.452 M154.532 174.513 C 154.532 174.829,154.809 174.964,155.453 174.964 C 156.436 174.964,156.293 174.594,155.180 174.258 C 154.701 174.113,154.532 174.179,154.532 174.513 M145.092 175.176 C 143.432 175.324,143.298 175.872,144.635 177.037 C 145.234 177.559,146.120 178.354,146.603 178.804 C 147.086 179.254,148.259 180.341,149.209 181.221 C 150.158 182.101,151.422 183.279,152.018 183.838 C 152.798 184.571,153.188 184.769,153.413 184.543 C 153.773 184.184,153.491 183.022,153.044 183.022 C 152.879 183.022,152.490 182.698,152.179 182.302 C 151.868 181.906,151.428 181.583,151.202 181.583 C 150.976 181.583,150.791 181.446,150.791 181.279 C 150.791 181.112,150.158 180.331,149.383 179.544 C 148.401 178.546,147.917 177.789,147.785 177.042 C 147.472 175.275,147.322 174.962,146.815 175.014 C 146.549 175.042,145.774 175.114,145.092 175.176 M155.938 177.266 C 154.788 178.427,153.669 178.782,153.669 177.986 C 153.669 177.704,153.394 177.558,152.878 177.564 L 152.086 177.575 152.878 178.223 C 153.313 178.579,153.669 179.007,153.669 179.175 C 153.669 180.538,155.619 180.723,157.762 179.562 C 159.827 178.444,160.024 177.941,158.793 176.920 C 157.537 175.878,157.281 175.909,155.938 177.266 M156.995 184.613 C 156.688 184.846,155.868 185.036,155.173 185.036 C 154.478 185.036,153.952 185.147,154.005 185.284 C 154.135 185.619,157.888 188.777,158.158 188.777 C 158.276 188.777,158.930 189.360,159.613 190.072 C 160.921 191.437,162.174 191.784,162.851 190.967 C 163.034 190.747,163.792 190.414,164.537 190.227 C 166.171 189.815,166.621 189.478,166.612 188.670 C 166.602 187.721,165.611 186.575,165.135 186.962 C 162.863 188.815,158.784 188.509,158.627 186.475 C 158.446 184.126,158.125 183.759,156.995 184.613 M167.278 192.204 C 165.624 194.133,165.575 194.686,166.965 195.693 C 168.484 196.793,168.657 196.718,169.275 194.688 C 170.144 191.837,168.910 190.302,167.278 192.204 " stroke="none" fill="#ffffff" fill-rule="evenodd"></path></g></svg>
