<?xml version="1.0" encoding="UTF-8" standalone="no"?>
<!-- Created with Inkscape (http://www.inkscape.org/) -->

<svg
   xmlns:dc="http://purl.org/dc/elements/1.1/"
   xmlns:cc="http://creativecommons.org/ns#"
   xmlns:rdf="http://www.w3.org/1999/02/22-rdf-syntax-ns#"
   xmlns:svg="http://www.w3.org/2000/svg"
   xmlns="http://www.w3.org/2000/svg"
   xmlns:sodipodi="http://sodipodi.sourceforge.net/DTD/sodipodi-0.dtd"
   xmlns:inkscape="http://www.inkscape.org/namespaces/inkscape"
   version="1.1"
   id="svg238"
   xml:space="preserve"
   width="1122.52"
   height="793.70135"
   viewBox="0 0 1122.52 793.70135"
   sodipodi:docname="palamente.svg"
   inkscape:version="0.92.3 (2405546, 2018-03-11)"><metadata
     id="metadata244"><rdf:RDF><cc:Work
         rdf:about=""><dc:format>image/svg+xml</dc:format><dc:type
           rdf:resource="http://purl.org/dc/dcmitype/StillImage" /><dc:title></dc:title></cc:Work></rdf:RDF></metadata><defs
     id="defs242"><clipPath
       clipPathUnits="userSpaceOnUse"
       id="clipPath254"><path
         d="M 0,595.276 H 841.89 V 0 H 0 Z"
         id="path252"
         inkscape:connector-curvature="0" /></clipPath></defs><sodipodi:namedview
     pagecolor="#ffffff"
     bordercolor="#666666"
     borderopacity="1"
     objecttolerance="10"
     gridtolerance="10"
     guidetolerance="10"
     inkscape:pageopacity="0"
     inkscape:pageshadow="2"
     inkscape:window-width="640"
     inkscape:window-height="480"
     id="namedview240"
     showgrid="false"
     inkscape:zoom="0.29734106"
     inkscape:cx="561.26001"
     inkscape:cy="396.85068"
     inkscape:window-x="0"
     inkscape:window-y="0"
     inkscape:window-maximized="0"
     inkscape:current-layer="g246" /><g
     id="g246"
     inkscape:groupmode="layer"
     inkscape:label="palamente"
     transform="matrix(1.3333333,0,0,-1.3333333,0,793.70133)"><g
       id="g248"><g
         id="g250"
         clip-path="url(#clipPath254)"><g
           id="g256"
           transform="translate(461.3691,274.9592)"><path
             d="m 0,0 c -0.515,4.581 -1.098,9.159 -1.855,13.704 -0.161,0.96 -1.212,1.77 -2.312,3.279 -6.299,-9.864 -11.75,-19.692 -17.269,-29.488 -5.547,-9.849 -8.396,-21.086 -14.733,-30.204 -6.444,0.902 -7.58,5.877 -9.561,9.825 -3.024,6.027 -5.549,12.301 -8.4,18.417 -3.986,8.551 -8.068,17.057 -12.135,25.57 -0.393,0.822 -0.976,1.552 -2.416,3.804 -4.518,-23.802 -11.963,-45.273 -12.568,-68.606 -3.388,-1.784 -6.386,-4.783 -8.906,-1.206 2.546,9.958 5.111,19.229 7.262,28.596 l 9.768,49.952 c 0.199,1.916 -0.344,4.047 0.323,5.736 0.594,1.508 2.215,3.135 3.718,3.581 1.041,0.309 3.222,-0.965 3.891,-2.115 1.477,-2.537 2.572,-5.373 3.369,-8.215 l 13.812,-31.798 c 2.448,-5.1 5.149,-10.135 8.293,-14.826 2.532,-3.777 5.081,-3.632 7.974,-0.194 1.209,1.438 2.187,3.117 3.038,4.803 l 22.218,46.092 c 1.05,2.18 2.373,4.248 3.746,6.249 1.195,1.741 3.074,2.582 5.048,1.794 C 4.242,33.978 4.776,32.195 4.89,30.033 5.358,21.032 5.693,12 6.765,3.062 c 1.089,-9.089 3.005,-18.078 4.522,-27.116 1.252,-7.457 2.406,-14.93 3.705,-22.38 0.319,-1.825 1.031,-3.582 1.564,-5.37 -3.989,-3.509 -3.989,-3.509 -9.68,-4.45 -0.616,2.783 -1.756,5.602 -1.774,8.427 z"
             style="fill:#231f20;fill-opacity:1;fill-rule:nonzero;stroke:none"
             id="path258"
             inkscape:connector-curvature="0" /></g><g
           id="g260"
           transform="translate(591.1074,302.8904)"><path
             d="m 0,0 c -0.58,-5.877 -1.953,-14.952 -2.039,-20.048 -0.227,-13.529 0.01,-27.065 -0.204,-40.594 -0.113,-7.157 0.857,-14.052 3.488,-20.841 -4.967,-4.216 -9.453,-0.946 -13.746,0.046 0.754,9.065 1.738,17.612 2.103,26.186 0.374,8.823 0.36,17.676 0.116,26.505 -0.24,8.711 0.939,17.525 -1.41,26.668 1.327,1.431 2.995,3.228 4.643,5.004 0,0.3 3.352,4.033 3.215,4.19"
             style="fill:#231f20;fill-opacity:1;fill-rule:nonzero;stroke:none"
             id="path262"
             inkscape:connector-curvature="0" /></g><g
           id="g264"
           transform="translate(330.2905,260.0637)"><path
             d="m 0,0 c -4.867,10.276 -9.769,20.745 -14.811,31.146 -0.743,1.532 -2.146,2.743 -3.886,4.898 -8.911,-12.552 -16.213,-24.995 -24.354,-37.282 4.674,-3.135 9.602,-2.792 14.203,-3.22 3.132,-0.292 23.591,1.183 23.591,1.183 0,0 4.306,0.54 5.257,3.275 m -63.544,-43.631 c -4.319,0.704 -8.254,1.346 -12.416,2.025 6.825,9.56 13.489,18.358 19.567,27.544 7.918,11.967 15.347,24.257 23.043,36.373 l 12.149,20.139 c 1.699,3.779 4.253,6.111 8.294,7.324 1.61,-4.788 3.17,-9.497 4.786,-14.186 0.437,-1.266 -0.14,-0.055 0.437,-1.266 7.331,-15.388 15.693,-33.271 23.223,-48.562 3.459,-7.024 7.545,-13.739 11.366,-20.628 -2.845,-4.182 -6.532,-5.268 -11.273,-4.839 -1.672,11.472 -5.582,22.179 -12.528,31.343 -12.251,0 -23.837,0.152 -35.415,-0.08 -4.306,-0.086 -8.724,-0.626 -12.843,-1.815 -2.64,-0.762 -5.345,-2.077 -6.534,-5.563 0,0 -7.151,-13.283 -8.229,-21.002 -0.279,-2.002 -1.973,-3.806 -3.627,-6.807"
             style="fill:#231f20;fill-opacity:1;fill-rule:nonzero;stroke:none"
             id="path266"
             inkscape:connector-curvature="0" /></g><g
           id="g268"
           transform="translate(188.1411,260.0637)"><path
             d="m 0,0 c -4.867,10.276 -9.769,20.745 -14.811,31.146 -0.743,1.532 -2.146,2.743 -3.886,4.898 -8.911,-12.552 -16.213,-24.995 -24.354,-37.282 4.674,-3.135 9.602,-2.792 14.203,-3.22 3.132,-0.292 23.591,1.183 23.591,1.183 0,0 4.306,0.54 5.257,3.275 m -63.544,-43.631 c -4.319,0.704 -8.254,1.346 -12.416,2.025 6.825,9.56 13.489,18.358 19.567,27.544 7.918,11.967 15.347,24.257 23.043,36.373 l 12.149,20.139 c 1.699,3.779 4.253,6.111 8.294,7.324 1.61,-4.788 3.17,-9.497 4.786,-14.186 0.437,-1.266 -0.14,-0.055 0.437,-1.266 7.331,-15.388 15.693,-33.271 23.223,-48.562 3.459,-7.024 7.545,-13.739 11.366,-20.628 -2.845,-4.182 -6.532,-5.268 -11.273,-4.839 -1.672,11.472 -5.582,22.179 -12.528,31.343 -12.251,0 -23.837,0.152 -35.415,-0.08 -4.306,-0.086 -8.724,-0.626 -12.843,-1.815 -2.64,-0.762 -5.345,-2.077 -6.534,-5.563 0,0 -7.151,-13.283 -8.229,-21.002 -0.279,-2.002 -1.973,-3.806 -3.627,-6.807"
             style="fill:#231f20;fill-opacity:1;fill-rule:nonzero;stroke:none"
             id="path270"
             inkscape:connector-curvature="0" /></g><g
           id="g272"
           transform="translate(556.874,298.5559)"><path
             d="m 0,0 c -14.061,0.666 -27.711,1.312 -41.979,1.988 -2.173,-10.227 -5.49,-16.635 -1.667,-29.767 1.639,-2.856 6.345,-2.754 9.909,-2.48 0,0 14.248,-1.052 21.223,1.408 0.743,0.262 2.128,-1.295 3.441,-2.155 -0.908,-1.967 -1.686,-3.65 -2.694,-5.832 -2.857,0.216 -5.8,0.496 -8.751,0.65 -7.087,0.371 -14.176,0.836 -21.269,0.932 -2.403,0.032 -3.711,-1.761 -3.999,-4.351 -0.74,-6.669 -0.85,-12.244 -0.318,-20.054 0.585,-4.575 0.218,-8.653 0.218,-13.632 15.835,0.31 31.032,-1.419 46.573,3.366 0,-2.193 0.118,-3.795 -0.024,-5.373 -0.299,-3.336 -1.319,-4.628 -4.463,-4.53 -4.32,0.134 -7.929,0.582 -12.98,1.175 -1.767,0.208 -3.78,0.42 -5.696,0.429 -7.999,0.041 -16.002,0.129 -23.998,-0.028 -2.856,-0.057 -5.7,-0.759 -9.053,-1.238 0,2.001 -0.269,3.986 0.096,5.699 1.253,5.877 1.392,9.708 1.403,14.601 0.048,21.506 0.02,43.014 0.02,64.742 4.363,1.11 8.242,3.641 10.092,2.489 0.98,-0.61 1.378,-0.986 2.755,-0.947 10.962,0.31 26.252,-0.007 37.216,0.159 1.997,0.031 4.01,-0.94 6.492,-1.57 C 1.538,3.431 0.698,1.556 0,0"
             style="fill:#231f20;fill-opacity:1;fill-rule:nonzero;stroke:none"
             id="path274"
             inkscape:connector-curvature="0" /></g><g
           id="g276"
           transform="translate(787.4873,298.2649)"><path
             d="m 0,0 c -14.061,0.666 -27.711,1.312 -41.98,1.988 -2.172,-10.227 -6.334,-19.595 -1.666,-29.766 1.639,-2.857 6.345,-2.755 9.908,-2.48 0,0 14.249,-1.052 21.224,1.407 0.743,0.262 2.128,-1.295 3.44,-2.155 -0.907,-1.966 -1.686,-3.65 -2.693,-5.832 -2.858,0.216 -5.801,0.496 -8.752,0.65 -7.087,0.372 -14.175,0.837 -21.268,0.932 -2.403,0.033 -3.712,-1.761 -3.999,-4.35 -0.741,-6.669 -0.85,-12.245 -0.318,-20.055 0.585,-4.575 0.217,-8.653 0.217,-13.632 15.836,0.31 31.033,-1.419 46.574,3.366 0,-2.193 0.118,-3.795 -0.024,-5.373 -0.299,-3.336 -1.32,-4.627 -4.464,-4.53 -4.319,0.134 -7.928,0.582 -12.979,1.175 -1.767,0.208 -3.78,0.42 -5.696,0.429 -8,0.041 -16.002,0.129 -23.999,-0.028 -2.856,-0.057 -5.7,-0.759 -9.052,-1.238 0,2.001 -0.269,3.986 0.096,5.699 1.253,5.877 1.392,9.708 1.403,14.601 0.048,21.507 0.02,43.014 0.02,64.742 4.362,1.11 8.241,3.641 10.092,2.49 0.98,-0.611 1.378,-0.986 2.755,-0.948 10.962,0.31 26.252,-0.007 37.215,0.159 C -1.948,7.282 0.065,6.311 2.547,5.682 1.538,3.431 0.697,1.557 0,0"
             style="fill:#231f20;fill-opacity:1;fill-rule:nonzero;stroke:none"
             id="path278"
             inkscape:connector-curvature="0" /></g><g
           id="g280"
           transform="translate(61.8447,253.4963)"><path
             d="m 0,0 c 7.706,-0.284 14.148,1.819 20.235,4.561 13.09,5.893 19.401,14.693 17.97,28.796 -0.301,2.966 -1.243,5.124 -3.311,7.168 -7.292,7.205 -16.29,9.38 -26.125,9.088 C 2.698,49.432 0.082,46.771 0.032,40.528 -0.074,27.312 0,14.094 0,0 m -9.989,-31.988 c 2.406,8.226 1.636,25.191 1.636,25.191 -0.303,0.696 -0.258,1.702 -0.022,2.452 0,0 0.88,21.29 1.526,31.923 0.301,4.947 -0.266,14.85 -0.266,14.85 -0.781,3.69 -0.372,6.69 1.152,10.425 11.48,0.169 23.27,1.737 34.758,-1.574 C 35.833,49.25 42.86,46.295 45.223,38.352 47.092,32.064 47.281,25.973 43.916,19.51 38.393,8.905 30.058,2.208 19.197,-1.765 15.433,-3.142 11.452,-3.948 7.539,-4.889 1.378,-6.371 -0.025,-6.046 0.456,-15.91 c 0,0 -0.966,-7.066 -0.481,-11.376 0.254,-2.264 0.392,-5.726 -1.639,-5.675 0,0 -8.325,-3.257 -8.325,0.973"
             style="fill:#231f20;fill-opacity:1;fill-rule:nonzero;stroke:none"
             id="path282"
             inkscape:connector-curvature="0" /></g><g
           id="g284"
           transform="translate(723.1006,304.8884)"><path
             d="m 0,0 c -0.643,-6.171 -1.899,-7.654 -6.272,-6.424 -9.737,2.739 -19.513,1.004 -29.929,1.544 -2.365,-3.327 -3.112,-22.781 -3.112,-22.781 l -0.105,-41.354 c 0,0 1.015,-5.258 1.456,-7.903 0.948,-5.688 -0.56,-7.49 -6.345,-7.659 -1.1,-0.032 -5.536,1.017 -5.536,1.017 3.534,25.635 1.903,51.644 2.129,78.386 0,0 -14.147,1.229 -20.656,-0.413 -3.748,-0.945 -6.13,-0.354 -8.764,1.327 0.595,1.811 1.179,3.59 1.865,5.678 0.957,0.072 2.082,0.344 3.041,0.178 8.455,-1.471 26.898,-1.293 26.898,-1.293 l 22.403,-0.418 C -22.927,-0.115 -8.08,0 0,0"
             style="fill:#231f20;fill-opacity:1;fill-rule:nonzero;stroke:none"
             id="path286"
             inkscape:connector-curvature="0" /></g><g
           id="g288"
           transform="translate(184.8047,145.1643)"><path
             d="M 0,0 C 7.75,1.065 14.369,7.452 23.633,5.14 24.154,4.216 25.255,2.937 25.642,1.468 27.911,-7.143 26.005,-9.375 17.187,-9.64 12.086,-9.793 7.647,-8.135 3.125,-6.187 0.389,-5.008 -0.729,-3.334 0,0"
             style="fill:#231f20;fill-opacity:1;fill-rule:nonzero;stroke:none"
             id="path290"
             inkscape:connector-curvature="0" /></g><g
           id="g292"
           transform="translate(249.7441,503.5862)"><path
             d="M 0,0 C -89.456,-9.815 46.619,-309.914 -16.777,-356.052"
             style="fill:#231f20;fill-opacity:1;fill-rule:nonzero;stroke:none"
             id="path294"
             inkscape:connector-curvature="0" /></g><g
           id="g296"
           transform="translate(554.2471,343.278)"><path
             d="M 0,0 C 89.813,-17.963 91.223,-225.416 189.842,-210.974"
             style="fill:#231f20;fill-opacity:1;fill-rule:nonzero;stroke:none"
             id="path298"
             inkscape:connector-curvature="0" /></g></g></g></g></svg>