<svg id="svg" version="1.1" width="400" height="400" viewBox="0 0 400 400" xmlns="http://www.w3.org/2000/svg" xmlns:xlink="http://www.w3.org/1999/xlink" ><g id="svgg"><path id="path0" d="M168.800 45.207 C 158.898 46.763,150.038 48.769,147.576 50.012 C 146.280 50.666,143.191 51.753,140.710 52.426 C 132.246 54.726,130.599 55.256,128.363 56.403 C 127.133 57.035,123.833 58.396,121.029 59.428 C 116.635 61.046,115.619 61.595,113.666 63.398 C 112.420 64.548,110.598 65.897,109.618 66.395 C 108.638 66.893,106.838 68.248,105.618 69.406 C 104.398 70.565,102.291 72.297,100.936 73.256 C 96.343 76.507,85.615 85.649,81.235 90.045 C 79.786 91.500,77.841 93.185,76.914 93.789 C 75.987 94.393,74.748 95.543,74.161 96.344 C 73.126 97.756,70.667 100.362,64.360 106.730 C 62.688 108.419,60.773 110.610,60.105 111.600 C 59.437 112.590,58.152 114.081,57.249 114.913 C 56.346 115.745,54.727 117.730,53.651 119.325 C 52.574 120.920,50.840 123.209,49.796 124.412 C 48.752 125.616,47.290 127.895,46.547 129.478 C 45.804 131.061,44.455 133.212,43.549 134.259 C 41.839 136.235,41.123 137.650,39.158 142.938 C 38.517 144.664,37.348 147.047,36.561 148.233 C 30.668 157.110,27.149 203.810,30.375 230.325 C 31.941 243.195,33.988 252.014,36.626 257.251 C 37.384 258.756,38.538 261.451,39.191 263.240 C 40.558 266.986,41.919 269.451,44.026 272.000 C 44.845 272.990,46.029 274.836,46.657 276.103 C 47.286 277.369,48.925 279.619,50.300 281.103 C 56.806 288.123,60.000 291.690,60.000 291.938 C 60.000 292.087,60.994 293.002,62.209 293.971 C 63.423 294.940,64.810 296.378,65.290 297.167 C 65.771 297.955,67.612 300.144,69.382 302.031 C 71.152 303.919,74.670 307.784,77.200 310.620 C 79.730 313.456,82.970 316.956,84.400 318.398 C 85.830 319.839,87.739 321.824,88.643 322.809 C 91.460 325.879,98.165 331.969,101.110 334.132 C 102.659 335.269,105.022 337.040,106.362 338.067 C 107.751 339.131,109.893 340.299,111.343 340.781 C 112.742 341.247,114.767 342.190,115.843 342.877 C 119.162 344.996,122.404 346.263,127.312 347.359 C 129.903 347.938,133.863 349.027,136.112 349.779 C 142.120 351.787,145.442 352.099,158.479 351.876 C 170.066 351.678,172.489 351.419,179.485 349.630 C 181.292 349.169,185.252 348.524,188.285 348.198 C 197.004 347.261,200.044 346.851,209.000 345.404 C 213.620 344.657,218.480 343.932,219.800 343.793 C 221.120 343.653,224.360 343.117,227.000 342.602 C 229.640 342.087,232.700 341.548,233.800 341.405 C 240.102 340.584,245.470 338.934,248.519 336.880 C 250.725 335.394,252.624 334.728,259.600 332.996 C 263.950 331.916,266.600 330.975,270.200 329.232 C 272.840 327.954,275.850 326.601,276.889 326.225 C 277.928 325.850,279.684 324.727,280.793 323.731 C 281.901 322.734,285.011 320.786,287.704 319.401 C 290.397 318.016,293.590 316.343,294.800 315.682 C 296.010 315.022,298.350 314.187,300.000 313.827 C 304.701 312.799,307.560 311.731,310.763 309.805 C 312.393 308.824,314.635 307.721,315.746 307.352 C 317.895 306.638,322.457 302.590,328.833 295.740 C 329.622 294.893,331.062 293.478,332.033 292.596 C 333.005 291.714,334.340 290.401,335.000 289.679 C 335.660 288.956,337.280 287.315,338.600 286.033 C 345.901 278.939,346.749 277.473,345.798 273.591 C 344.767 269.383,344.153 268.851,340.000 268.566 L 336.600 268.333 333.942 270.298 C 331.734 271.931,330.492 272.489,326.606 273.598 C 323.758 274.411,320.962 275.516,319.458 276.423 C 318.100 277.243,315.271 278.450,313.172 279.106 C 308.714 280.499,307.185 281.227,305.000 282.993 C 303.218 284.434,300.667 285.797,296.850 287.348 C 295.449 287.918,293.519 289.025,292.563 289.809 C 290.309 291.656,288.402 292.477,282.878 293.979 C 280.392 294.655,277.439 295.673,276.317 296.242 C 274.136 297.347,263.529 300.961,261.200 301.393 C 260.430 301.535,257.460 302.268,254.600 303.021 C 250.967 303.978,247.110 304.629,241.800 305.183 C 237.620 305.619,231.247 306.517,227.638 307.180 C 224.030 307.843,218.540 308.671,215.438 309.021 C 212.337 309.371,208.450 309.991,206.800 310.398 C 195.770 313.121,173.982 313.349,165.600 310.829 C 149.582 306.014,147.521 305.267,145.348 303.491 C 144.717 302.975,142.580 301.539,140.600 300.300 C 138.620 299.062,136.029 297.218,134.842 296.203 C 133.656 295.188,132.014 294.015,131.193 293.596 C 130.373 293.178,129.183 292.246,128.551 291.526 C 127.918 290.806,126.435 289.313,125.256 288.209 C 124.077 287.104,121.827 284.926,120.256 283.369 C 118.685 281.812,116.724 280.047,115.899 279.448 C 115.073 278.848,113.779 277.390,113.023 276.208 C 112.266 275.026,111.076 273.641,110.376 273.130 C 109.677 272.618,108.222 270.898,107.144 269.306 C 106.066 267.714,104.631 266.004,103.955 265.506 C 103.279 265.008,102.234 263.933,101.634 263.117 C 101.033 262.302,98.993 259.962,97.100 257.917 C 90.183 250.446,88.227 248.144,86.467 245.400 C 85.479 243.860,83.903 241.766,82.964 240.747 C 82.025 239.728,80.542 237.478,79.670 235.747 C 78.797 234.016,77.524 231.899,76.840 231.043 C 75.386 229.222,74.544 226.669,72.338 217.400 C 68.299 200.421,68.397 201.681,68.773 171.800 L 69.085 147.000 71.511 137.594 C 74.343 126.618,75.092 124.552,77.211 121.891 C 78.074 120.808,79.334 118.746,80.013 117.309 C 81.207 114.784,83.678 111.804,87.729 108.008 C 88.790 107.013,90.860 105.046,92.329 103.635 C 93.943 102.086,95.950 100.632,97.400 99.963 C 98.720 99.354,100.990 98.068,102.444 97.104 C 104.399 95.808,106.798 94.797,111.644 93.226 C 115.250 92.057,119.374 90.512,120.808 89.792 C 122.915 88.734,125.450 88.082,134.008 86.395 C 147.835 83.671,151.641 83.504,167.400 84.938 C 173.560 85.499,180.670 86.067,183.200 86.200 C 190.981 86.611,196.974 87.523,201.534 88.988 C 203.880 89.742,208.410 91.012,211.600 91.810 C 220.504 94.038,222.728 94.769,226.314 96.643 C 228.137 97.595,230.927 98.747,232.514 99.203 C 240.484 101.490,241.892 102.031,244.302 103.729 C 245.678 104.699,247.658 105.815,248.702 106.208 C 251.061 107.097,253.682 108.855,254.491 110.091 C 254.829 110.605,256.601 111.830,258.430 112.813 C 260.504 113.927,263.029 115.778,265.136 117.729 C 266.996 119.450,268.938 121.134,269.454 121.472 C 269.970 121.810,271.236 123.282,272.267 124.743 C 273.299 126.204,275.252 128.750,276.608 130.400 C 277.963 132.050,279.749 134.480,280.577 135.800 C 281.404 137.120,282.771 138.920,283.614 139.800 C 284.458 140.680,285.967 143.110,286.970 145.200 C 287.972 147.290,289.423 150.170,290.193 151.600 C 294.457 159.508,294.102 173.715,289.372 184.508 C 288.623 186.218,287.546 189.447,286.979 191.683 C 285.675 196.826,285.202 197.941,283.104 200.810 C 282.167 202.091,280.806 204.188,280.080 205.469 C 276.960 210.977,276.438 211.139,260.800 211.471 L 249.800 211.704 246.379 213.416 C 243.722 214.746,242.520 215.642,240.995 217.426 C 239.916 218.690,238.223 220.237,237.233 220.865 C 236.244 221.493,234.792 222.855,234.007 223.893 C 233.223 224.932,231.722 226.430,230.671 227.224 C 229.621 228.018,228.131 229.604,227.359 230.750 C 226.588 231.895,225.057 233.478,223.958 234.268 C 222.567 235.268,221.611 236.389,220.817 237.952 C 220.189 239.189,219.198 240.898,218.615 241.752 C 218.031 242.605,217.636 243.505,217.736 243.752 C 218.311 245.173,220.611 247.690,222.169 248.603 L 223.971 249.659 237.258 250.007 C 251.539 250.382,255.046 250.111,258.455 248.372 C 259.284 247.949,260.973 247.225,262.208 246.763 C 263.664 246.218,265.324 245.119,266.927 243.637 C 268.287 242.381,270.210 240.883,271.200 240.308 C 272.190 239.734,273.720 238.569,274.600 237.719 C 275.480 236.868,277.723 235.029,279.585 233.631 C 283.759 230.497,304.570 209.474,307.225 205.710 C 308.276 204.219,309.715 202.280,310.422 201.400 C 311.130 200.520,312.490 198.121,313.446 196.068 C 314.401 194.016,315.703 191.676,316.338 190.868 C 317.924 188.852,318.879 186.852,320.378 182.400 C 321.082 180.310,322.131 177.790,322.709 176.800 C 324.881 173.079,325.709 170.903,326.811 166.015 C 327.435 163.250,328.417 159.731,328.995 158.194 C 332.507 148.849,333.043 145.581,332.619 136.085 C 332.317 129.309,332.027 128.146,329.101 122.000 C 328.106 119.910,326.697 116.602,325.969 114.649 C 325.171 112.508,323.951 110.205,322.896 108.849 C 321.933 107.612,320.520 105.414,319.757 103.965 C 318.993 102.515,317.555 100.554,316.560 99.606 C 315.566 98.658,314.238 96.863,313.609 95.618 C 312.980 94.372,311.416 92.174,310.133 90.733 C 308.850 89.291,306.549 86.709,305.019 84.995 C 303.352 83.127,301.029 81.092,299.219 79.916 C 297.559 78.837,295.210 76.998,294.000 75.830 C 292.790 74.662,291.170 73.370,290.400 72.959 C 289.630 72.548,287.740 71.284,286.200 70.149 C 284.075 68.585,282.243 67.688,278.600 66.429 C 275.960 65.517,273.344 64.441,272.788 64.038 C 270.909 62.679,268.223 61.487,263.200 59.785 C 260.450 58.853,256.742 57.458,254.959 56.686 C 250.897 54.925,246.889 53.817,240.000 52.550 C 237.030 52.004,232.800 50.942,230.600 50.190 C 223.576 47.789,219.102 47.113,206.800 46.596 C 203.610 46.462,198.300 45.992,195.000 45.552 C 186.049 44.359,175.109 44.215,168.800 45.207 M179.187 126.373 C 175.352 127.103,173.430 127.896,169.000 130.577 C 167.680 131.376,165.538 132.417,164.240 132.890 C 162.197 133.635,161.256 134.388,157.240 138.486 C 154.688 141.090,152.129 143.690,151.553 144.263 C 150.976 144.836,149.518 146.298,148.311 147.511 C 145.891 149.943,144.875 150.951,138.341 157.400 C 134.936 160.761,133.620 162.367,132.769 164.200 C 132.155 165.520,130.896 167.590,129.970 168.800 C 128.233 171.069,126.992 173.527,125.830 177.000 C 125.462 178.100,124.445 180.410,123.570 182.132 C 117.956 193.191,117.960 221.562,123.576 230.867 C 124.462 232.334,125.563 234.541,126.024 235.773 C 127.506 239.734,132.074 243.682,138.285 246.370 C 140.218 247.206,143.496 248.645,145.568 249.567 C 151.338 252.135,158.610 253.194,172.474 253.486 L 183.149 253.710 186.500 252.665 C 188.344 252.091,190.650 251.031,191.626 250.310 C 192.602 249.590,194.709 248.280,196.308 247.400 C 199.073 245.879,208.382 237.532,213.000 232.433 C 213.880 231.462,215.301 230.022,216.157 229.233 C 217.014 228.445,218.757 226.720,220.031 225.400 C 221.305 224.080,222.854 222.550,223.474 222.000 C 225.796 219.938,233.211 211.741,234.962 209.300 C 235.790 208.145,236.631 207.200,236.830 207.200 C 237.586 207.200,239.970 202.863,241.020 199.581 L 242.112 196.161 241.186 193.041 C 239.711 188.072,237.548 187.002,233.940 189.455 C 232.763 190.256,230.919 191.437,229.842 192.079 C 227.470 193.495,222.105 198.337,214.823 205.634 C 206.710 213.765,206.121 214.018,196.349 213.574 C 185.147 213.064,180.319 212.174,175.400 209.712 C 174.080 209.051,172.280 208.281,171.400 208.001 C 168.248 207.000,164.417 203.137,161.842 198.365 C 160.300 195.507,159.556 189.346,159.496 178.937 L 159.444 170.074 160.521 168.447 C 163.840 163.433,177.139 164.591,184.528 170.538 C 185.448 171.278,187.370 172.560,188.800 173.386 C 190.230 174.213,192.357 175.945,193.526 177.236 C 195.840 179.791,196.719 180.177,201.244 180.633 C 205.198 181.031,206.021 180.412,219.699 166.770 C 229.779 156.716,231.758 154.551,232.651 152.601 L 233.704 150.301 232.988 146.850 C 232.357 143.806,232.107 143.259,230.862 142.200 C 230.087 141.540,228.062 139.583,226.363 137.852 C 223.830 135.271,222.635 134.400,219.730 133.020 C 217.781 132.094,215.066 130.511,213.695 129.502 C 208.755 125.865,190.530 124.212,179.187 126.373 " stroke="none" fill="#020202" fill-rule="evenodd"></path><path id="path1" d="M0.000 200.000 L 0.000 400.000 200.000 400.000 L 400.000 400.000 400.000 200.000 L 400.000 0.000 200.000 0.000 L 0.000 0.000 0.000 200.000 M195.000 45.552 C 198.300 45.992,203.610 46.462,206.800 46.596 C 219.102 47.113,223.576 47.789,230.600 50.190 C 232.800 50.942,237.030 52.004,240.000 52.550 C 246.889 53.817,250.897 54.925,254.959 56.686 C 256.742 57.458,260.450 58.853,263.200 59.785 C 268.223 61.487,270.909 62.679,272.788 64.038 C 273.344 64.441,275.960 65.517,278.600 66.429 C 282.243 67.688,284.075 68.585,286.200 70.149 C 287.740 71.284,289.630 72.548,290.400 72.959 C 291.170 73.370,292.790 74.662,294.000 75.830 C 295.210 76.998,297.559 78.837,299.219 79.916 C 301.029 81.092,303.352 83.127,305.019 84.995 C 306.549 86.709,308.850 89.291,310.133 90.733 C 311.416 92.174,312.980 94.372,313.609 95.618 C 314.238 96.863,315.566 98.658,316.560 99.606 C 317.555 100.554,318.993 102.515,319.757 103.965 C 320.520 105.414,321.933 107.612,322.896 108.849 C 323.951 110.205,325.171 112.508,325.969 114.649 C 326.697 116.602,328.106 119.910,329.101 122.000 C 332.027 128.146,332.317 129.309,332.619 136.085 C 333.043 145.581,332.507 148.849,328.995 158.194 C 328.417 159.731,327.435 163.250,326.811 166.015 C 325.709 170.903,324.881 173.079,322.709 176.800 C 322.131 177.790,321.082 180.310,320.378 182.400 C 318.879 186.852,317.924 188.852,316.338 190.868 C 315.703 191.676,314.401 194.016,313.446 196.068 C 312.490 198.121,311.130 200.520,310.422 201.400 C 309.715 202.280,308.276 204.219,307.225 205.710 C 304.570 209.474,283.759 230.497,279.585 233.631 C 277.723 235.029,275.480 236.868,274.600 237.719 C 273.720 238.569,272.190 239.734,271.200 240.308 C 270.210 240.883,268.287 242.381,266.927 243.637 C 265.324 245.119,263.664 246.218,262.208 246.763 C 260.973 247.225,259.284 247.949,258.455 248.372 C 255.046 250.111,251.539 250.382,237.258 250.007 L 223.971 249.659 222.169 248.603 C 220.611 247.690,218.311 245.173,217.736 243.752 C 217.636 243.505,218.031 242.605,218.615 241.752 C 219.198 240.898,220.189 239.189,220.817 237.952 C 221.611 236.389,222.567 235.268,223.958 234.268 C 225.057 233.478,226.588 231.895,227.359 230.750 C 228.131 229.604,229.621 228.018,230.671 227.224 C 231.722 226.430,233.223 224.932,234.007 223.893 C 234.792 222.855,236.244 221.493,237.233 220.865 C 238.223 220.237,239.916 218.690,240.995 217.426 C 242.520 215.642,243.722 214.746,246.379 213.416 L 249.800 211.704 260.800 211.471 C 276.438 211.139,276.960 210.977,280.080 205.469 C 280.806 204.188,282.167 202.091,283.104 200.810 C 285.202 197.941,285.675 196.826,286.979 191.683 C 287.546 189.447,288.623 186.218,289.372 184.508 C 294.102 173.715,294.457 159.508,290.193 151.600 C 289.423 150.170,287.972 147.290,286.970 145.200 C 285.967 143.110,284.458 140.680,283.614 139.800 C 282.771 138.920,281.404 137.120,280.577 135.800 C 279.749 134.480,277.963 132.050,276.608 130.400 C 275.252 128.750,273.299 126.204,272.267 124.743 C 271.236 123.282,269.970 121.810,269.454 121.472 C 268.938 121.134,266.996 119.450,265.136 117.729 C 263.029 115.778,260.504 113.927,258.430 112.813 C 256.601 111.830,254.829 110.605,254.491 110.091 C 253.682 108.855,251.061 107.097,248.702 106.208 C 247.658 105.815,245.678 104.699,244.302 103.729 C 241.892 102.031,240.484 101.490,232.514 99.203 C 230.927 98.747,228.137 97.595,226.314 96.643 C 222.728 94.769,220.504 94.038,211.600 91.810 C 208.410 91.012,203.880 89.742,201.534 88.988 C 196.974 87.523,190.981 86.611,183.200 86.200 C 180.670 86.067,173.560 85.499,167.400 84.938 C 151.641 83.504,147.835 83.671,134.008 86.395 C 125.450 88.082,122.915 88.734,120.808 89.792 C 119.374 90.512,115.250 92.057,111.644 93.226 C 106.798 94.797,104.399 95.808,102.444 97.104 C 100.990 98.068,98.720 99.354,97.400 99.963 C 95.950 100.632,93.943 102.086,92.329 103.635 C 90.860 105.046,88.790 107.013,87.729 108.008 C 83.678 111.804,81.207 114.784,80.013 117.309 C 79.334 118.746,78.074 120.808,77.211 121.891 C 75.092 124.552,74.343 126.618,71.511 137.594 L 69.085 147.000 68.773 171.800 C 68.397 201.681,68.299 200.421,72.338 217.400 C 74.544 226.669,75.386 229.222,76.840 231.043 C 77.524 231.899,78.797 234.016,79.670 235.747 C 80.542 237.478,82.025 239.728,82.964 240.747 C 83.903 241.766,85.479 243.860,86.467 245.400 C 88.227 248.144,90.183 250.446,97.100 257.917 C 98.993 259.962,101.033 262.302,101.634 263.117 C 102.234 263.933,103.279 265.008,103.955 265.506 C 104.631 266.004,106.066 267.714,107.144 269.306 C 108.222 270.898,109.677 272.618,110.376 273.130 C 111.076 273.641,112.266 275.026,113.023 276.208 C 113.779 277.390,115.073 278.848,115.899 279.448 C 116.724 280.047,118.685 281.812,120.256 283.369 C 121.827 284.926,124.077 287.104,125.256 288.209 C 126.435 289.313,127.918 290.806,128.551 291.526 C 129.183 292.246,130.373 293.178,131.193 293.596 C 132.014 294.015,133.656 295.188,134.842 296.203 C 136.029 297.218,138.620 299.062,140.600 300.300 C 142.580 301.539,144.717 302.975,145.348 303.491 C 147.521 305.267,149.582 306.014,165.600 310.829 C 173.982 313.349,195.770 313.121,206.800 310.398 C 208.450 309.991,212.337 309.371,215.438 309.021 C 218.540 308.671,224.030 307.843,227.638 307.180 C 231.247 306.517,237.620 305.619,241.800 305.183 C 247.110 304.629,250.967 303.978,254.600 303.021 C 257.460 302.268,260.430 301.535,261.200 301.393 C 263.529 300.961,274.136 297.347,276.317 296.242 C 277.439 295.673,280.392 294.655,282.878 293.979 C 288.402 292.477,290.309 291.656,292.563 289.809 C 293.519 289.025,295.449 287.918,296.850 287.348 C 300.667 285.797,303.218 284.434,305.000 282.993 C 307.185 281.227,308.714 280.499,313.172 279.106 C 315.271 278.450,318.100 277.243,319.458 276.423 C 320.962 275.516,323.758 274.411,326.606 273.598 C 330.492 272.489,331.734 271.931,333.942 270.298 L 336.600 268.333 340.000 268.566 C 344.153 268.851,344.767 269.383,345.798 273.591 C 346.749 277.473,345.901 278.939,338.600 286.033 C 337.280 287.315,335.660 288.956,335.000 289.679 C 334.340 290.401,333.005 291.714,332.033 292.596 C 331.062 293.478,329.622 294.893,328.833 295.740 C 322.457 302.590,317.895 306.638,315.746 307.352 C 314.635 307.721,312.393 308.824,310.763 309.805 C 307.560 311.731,304.701 312.799,300.000 313.827 C 298.350 314.187,296.010 315.022,294.800 315.682 C 293.590 316.343,290.397 318.016,287.704 319.401 C 285.011 320.786,281.901 322.734,280.793 323.731 C 279.684 324.727,277.928 325.850,276.889 326.225 C 275.850 326.601,272.840 327.954,270.200 329.232 C 266.600 330.975,263.950 331.916,259.600 332.996 C 252.624 334.728,250.725 335.394,248.519 336.880 C 245.470 338.934,240.102 340.584,233.800 341.405 C 232.700 341.548,229.640 342.087,227.000 342.602 C 224.360 343.117,221.120 343.653,219.800 343.793 C 218.480 343.932,213.620 344.657,209.000 345.404 C 200.044 346.851,197.004 347.261,188.285 348.198 C 185.252 348.524,181.292 349.169,179.485 349.630 C 166.802 352.873,145.585 352.946,136.112 349.779 C 133.863 349.027,129.903 347.938,127.312 347.359 C 122.404 346.263,119.162 344.996,115.843 342.877 C 114.767 342.190,112.742 341.247,111.343 340.781 C 109.893 340.299,107.751 339.131,106.362 338.067 C 105.022 337.040,102.659 335.269,101.110 334.132 C 98.165 331.969,91.460 325.879,88.643 322.809 C 87.739 321.824,85.830 319.839,84.400 318.398 C 82.970 316.956,79.730 313.456,77.200 310.620 C 74.670 307.784,71.152 303.919,69.382 302.031 C 67.612 300.144,65.771 297.955,65.290 297.167 C 64.810 296.378,63.423 294.940,62.209 293.971 C 60.994 293.002,60.000 292.087,60.000 291.938 C 60.000 291.690,56.806 288.123,50.300 281.103 C 48.925 279.619,47.286 277.369,46.657 276.103 C 46.029 274.836,44.845 272.990,44.026 272.000 C 41.919 269.451,40.558 266.986,39.191 263.240 C 38.538 261.451,37.384 258.756,36.626 257.251 C 32.708 249.471,29.580 231.141,29.484 215.400 C 29.329 189.893,29.834 175.780,31.164 168.400 C 33.215 157.020,34.894 150.743,36.561 148.233 C 37.348 147.047,38.517 144.664,39.158 142.938 C 41.123 137.650,41.839 136.235,43.549 134.259 C 44.455 133.212,45.804 131.061,46.547 129.478 C 47.290 127.895,48.752 125.616,49.796 124.412 C 50.840 123.209,52.574 120.920,53.651 119.325 C 54.727 117.730,56.346 115.745,57.249 114.913 C 58.152 114.081,59.437 112.590,60.105 111.600 C 60.773 110.610,62.688 108.419,64.360 106.730 C 70.667 100.362,73.126 97.756,74.161 96.344 C 74.748 95.543,75.987 94.393,76.914 93.789 C 77.841 93.185,79.786 91.500,81.235 90.045 C 85.615 85.649,96.343 76.507,100.936 73.256 C 102.291 72.297,104.398 70.565,105.618 69.406 C 106.838 68.248,108.638 66.893,109.618 66.395 C 110.598 65.897,112.420 64.548,113.666 63.398 C 115.619 61.595,116.635 61.046,121.029 59.428 C 123.833 58.396,127.133 57.035,128.363 56.403 C 130.599 55.256,132.246 54.726,140.710 52.426 C 143.191 51.753,146.280 50.666,147.576 50.012 C 150.038 48.769,158.898 46.763,168.800 45.207 C 175.109 44.215,186.049 44.359,195.000 45.552 M207.502 126.746 C 210.472 127.486,211.696 128.030,213.695 129.502 C 215.066 130.511,217.781 132.094,219.730 133.020 C 222.635 134.400,223.830 135.271,226.363 137.852 C 228.062 139.583,230.087 141.540,230.862 142.200 C 232.107 143.259,232.357 143.806,232.988 146.850 L 233.704 150.301 232.651 152.601 C 231.758 154.551,229.779 156.716,219.699 166.770 C 206.021 180.412,205.198 181.031,201.244 180.633 C 196.719 180.177,195.840 179.791,193.526 177.236 C 192.357 175.945,190.230 174.213,188.800 173.386 C 187.370 172.560,185.448 171.278,184.528 170.538 C 177.139 164.591,163.840 163.433,160.521 168.447 L 159.444 170.074 159.496 178.937 C 159.556 189.346,160.300 195.507,161.842 198.365 C 164.417 203.137,168.248 207.000,171.400 208.001 C 172.280 208.281,174.080 209.051,175.400 209.712 C 180.319 212.174,185.147 213.064,196.349 213.574 C 206.121 214.018,206.710 213.765,214.823 205.634 C 222.105 198.337,227.470 193.495,229.842 192.079 C 230.919 191.437,232.763 190.256,233.940 189.455 C 237.548 187.002,239.711 188.072,241.186 193.041 L 242.112 196.161 241.020 199.581 C 239.970 202.863,237.586 207.200,236.830 207.200 C 236.631 207.200,235.790 208.145,234.962 209.300 C 233.211 211.741,225.796 219.938,223.474 222.000 C 222.854 222.550,221.305 224.080,220.031 225.400 C 218.757 226.720,217.014 228.445,216.157 229.233 C 215.301 230.022,213.880 231.462,213.000 232.433 C 208.382 237.532,199.073 245.879,196.308 247.400 C 194.709 248.280,192.602 249.590,191.626 250.310 C 190.650 251.031,188.344 252.091,186.500 252.665 L 183.149 253.710 172.474 253.486 C 158.610 253.194,151.338 252.135,145.568 249.567 C 143.496 248.645,140.218 247.206,138.285 246.370 C 132.074 243.682,127.506 239.734,126.024 235.773 C 125.563 234.541,124.462 232.334,123.576 230.867 C 117.960 221.562,117.956 193.191,123.570 182.132 C 124.445 180.410,125.462 178.100,125.830 177.000 C 126.992 173.527,128.233 171.069,129.970 168.800 C 130.896 167.590,132.155 165.520,132.769 164.200 C 133.620 162.367,134.936 160.761,138.341 157.400 C 144.875 150.951,145.891 149.943,148.311 147.511 C 149.518 146.298,150.976 144.836,151.553 144.263 C 152.129 143.690,154.688 141.090,157.240 138.486 C 161.256 134.388,162.197 133.635,164.240 132.890 C 165.538 132.417,167.680 131.376,169.000 130.577 C 176.324 126.145,179.010 125.612,193.400 125.736 C 202.734 125.816,204.179 125.920,207.502 126.746 " stroke="none" fill="#ffffff" fill-rule="evenodd"></path></g></svg>
