<?xml version="1.0" encoding="UTF-8" standalone="no"?>
<!-- Created with Inkscape (http://www.inkscape.org/) -->

<svg
   xmlns:dc="http://purl.org/dc/elements/1.1/"
   xmlns:cc="http://creativecommons.org/ns#"
   xmlns:rdf="http://www.w3.org/1999/02/22-rdf-syntax-ns#"
   xmlns:svg="http://www.w3.org/2000/svg"
   xmlns="http://www.w3.org/2000/svg"
   xmlns:sodipodi="http://sodipodi.sourceforge.net/DTD/sodipodi-0.dtd"
   xmlns:inkscape="http://www.inkscape.org/namespaces/inkscape"
   version="1.1"
   id="svg10"
   xml:space="preserve"
   width="793.70001"
   height="1122.52"
   viewBox="0 0 793.70001 1122.52"
   sodipodi:docname="logo_arcadi.svg"
   inkscape:version="0.92.3 (2405546, 2018-03-11)"><metadata
     id="metadata16"><rdf:RDF><cc:Work
         rdf:about=""><dc:format>image/svg+xml</dc:format><dc:type
           rdf:resource="http://purl.org/dc/dcmitype/StillImage" /><dc:title></dc:title></cc:Work></rdf:RDF></metadata><defs
     id="defs14"><clipPath
       clipPathUnits="userSpaceOnUse"
       id="clipPath32"><path
         d="M 0,841.89 H 595.275 V 0 H 0 Z"
         id="path30"
         inkscape:connector-curvature="0" /></clipPath><clipPath
       clipPathUnits="userSpaceOnUse"
       id="clipPath224"><path
         d="m 228.14,325.325 h 52.536 v 17.63 H 228.14 Z"
         id="path222"
         inkscape:connector-curvature="0" /></clipPath><clipPath
       clipPathUnits="userSpaceOnUse"
       id="clipPath264"><path
         d="M 0,841.89 H 595.275 V 0 H 0 Z"
         id="path262"
         inkscape:connector-curvature="0" /></clipPath></defs><sodipodi:namedview
     pagecolor="#ffffff"
     bordercolor="#666666"
     borderopacity="1"
     objecttolerance="10"
     gridtolerance="10"
     guidetolerance="10"
     inkscape:pageopacity="0"
     inkscape:pageshadow="2"
     inkscape:window-width="1920"
     inkscape:window-height="1001"
     id="namedview12"
     showgrid="false"
     inkscape:zoom="0.71980899"
     inkscape:cx="396.85001"
     inkscape:cy="561.26001"
     inkscape:window-x="-9"
     inkscape:window-y="-9"
     inkscape:window-maximized="1"
     inkscape:current-layer="g18" /><g
     id="g18"
     inkscape:groupmode="layer"
     inkscape:label="Arcadi-logo-officiel-10cm"
     transform="matrix(1.3333333,0,0,-1.3333333,0,1122.52)"><path
       d="M 494.009,363.606 H 210.544 v 107.777 h 283.465 z"
       style="fill:#ffffff;fill-opacity:1;fill-rule:nonzero;stroke:#918f90;stroke-width:0.60000002;stroke-linecap:butt;stroke-linejoin:miter;stroke-miterlimit:4;stroke-dasharray:none;stroke-opacity:1"
       id="path20"
       inkscape:connector-curvature="0" /><path
       d="M 494.009,302.275 H 307.204 v 52.205 h 186.805 z"
       style="fill:#ffffff;fill-opacity:1;fill-rule:nonzero;stroke:#918f90;stroke-width:0.60000002;stroke-linecap:butt;stroke-linejoin:miter;stroke-miterlimit:4;stroke-dasharray:none;stroke-opacity:1"
       id="path22"
       inkscape:connector-curvature="0" /><path
       d="m 298.133,302.275 h -87.589 v 52.229 h 87.589 z"
       style="fill:#ffffff;fill-opacity:1;fill-rule:nonzero;stroke:#918f90;stroke-width:0.60000002;stroke-linecap:butt;stroke-linejoin:miter;stroke-miterlimit:4;stroke-dasharray:none;stroke-opacity:1"
       id="path24"
       inkscape:connector-curvature="0" /><g
       id="g26"><g
         id="g28"
         clip-path="url(#clipPath32)"><g
           id="g34"
           transform="translate(229.4844,315.9766)"><path
             d="m 0,0 c -0.107,0 -0.2,-0.02 -0.314,-0.044 0,-0.308 -0.005,-0.871 -0.005,-1.301 0.059,-0.009 0.163,-0.019 0.231,-0.019 0.428,0 0.716,0.27 0.716,0.676 C 0.628,-0.29 0.361,0 0,0 m 1.346,-3.276 c -0.195,0 -0.306,0.027 -0.415,0.097 -0.171,0.117 -0.356,0.43 -0.459,0.606 -0.179,0.31 -0.376,0.639 -0.565,0.916 -0.034,-0.003 -0.058,-0.003 -0.079,-0.003 -0.053,0 -0.097,0.003 -0.147,0.003 v -0.277 c 0,-0.141 0.005,-0.28 0.005,-0.424 0.005,-0.279 0.01,-0.401 0.054,-0.51 0.05,-0.137 0.143,-0.203 0.319,-0.223 v -0.146 l -0.122,0.009 c -0.137,0.005 -0.324,0 -0.572,0 -0.239,0 -0.426,0.005 -0.563,0 l -0.127,-0.009 v 0.146 c 0.132,0.01 0.196,0.039 0.256,0.106 0.058,0.07 0.096,0.166 0.106,0.285 0.016,0.156 0.021,0.252 0.021,0.766 v 0.882 c 0,0.635 -0.021,0.793 -0.056,0.938 -0.037,0.146 -0.149,0.205 -0.327,0.224 v 0.144 c 0.104,-0.007 0.21,-0.005 0.314,-0.005 0.274,0 0.357,0 0.682,0.018 0.28,0.009 0.445,0.011 0.572,0.011 0.353,0 0.568,-0.049 0.743,-0.177 0.201,-0.14 0.332,-0.411 0.332,-0.682 0,-0.432 -0.283,-0.783 -0.763,-0.959 0.2,-0.252 0.357,-0.498 0.537,-0.791 0.171,-0.267 0.337,-0.496 0.469,-0.625 0.07,-0.078 0.119,-0.106 0.22,-0.135 V -3.237 C 1.644,-3.267 1.507,-3.276 1.346,-3.276"
             style="fill:#231f20;fill-opacity:1;fill-rule:nonzero;stroke:none"
             id="path36"
             inkscape:connector-curvature="0" /></g><g
           id="g38"
           transform="translate(233.5127,312.8076)"><path
             d="m 0,0 c -0.036,-0.068 -0.082,-0.078 -0.319,-0.078 -0.146,0 -0.291,0.008 -0.438,0.01 -0.206,0.007 -0.415,0.014 -0.621,0.014 -0.209,0 -0.415,0 -0.621,-0.014 v 0.125 c 0.196,0.019 0.279,0.127 0.298,0.319 0.012,0.13 0.012,0.269 0.012,0.491 v 1.228 c 0,0.227 -0.012,0.332 -0.046,0.423 -0.039,0.107 -0.117,0.163 -0.264,0.177 v 0.122 h 2.022 c 0,-0.124 -0.007,-0.251 -0.007,-0.378 0,-0.107 -0.003,-0.205 0.007,-0.31 h -0.156 c -0.03,0.337 -0.175,0.428 -0.691,0.428 -0.091,0 -0.218,-0.01 -0.322,-0.01 C -1.156,2.373 -1.159,2.322 -1.159,2.07 V 1.567 c 0.065,-0.004 0.117,-0.004 0.196,-0.004 0.449,0 0.587,0.066 0.611,0.297 h 0.157 C -0.202,1.795 -0.202,1.648 -0.202,1.434 c 0,-0.218 0.003,-0.35 0.007,-0.418 h -0.157 c -0.009,0.244 -0.13,0.31 -0.572,0.31 -0.078,0 -0.157,-0.01 -0.235,-0.01 0,-0.271 0.003,-0.546 0.003,-0.818 0,-0.181 0.033,-0.239 0.137,-0.264 0.065,-0.019 0.165,-0.021 0.3,-0.021 0.462,0 0.628,0.1 0.732,0.456 L 0.179,0.635 C 0.117,0.332 0.049,0.083 0,0 m -0.963,3.096 -0.204,0.125 0.428,0.632 0.498,-0.093 z"
             style="fill:#231f20;fill-opacity:1;fill-rule:nonzero;stroke:none"
             id="path40"
             inkscape:connector-curvature="0" /></g><g
           id="g42"
           transform="translate(235.3179,314.0234)"><path
             d="m 0,0 c -0.044,0 -0.063,0 -0.122,0.005 l -0.096,0.223 c 0.405,0.026 0.63,0.221 0.63,0.553 0,0.347 -0.236,0.591 -0.563,0.591 -0.054,0 -0.098,-0.005 -0.166,-0.019 0,-0.266 -0.009,-0.533 -0.009,-0.803 v -0.752 c 0,-0.574 0.004,-0.662 0.048,-0.775 0.039,-0.114 0.117,-0.17 0.263,-0.182 v -0.125 l -0.102,0.008 c -0.112,0.006 -0.269,0.006 -0.481,0.006 -0.201,0 -0.361,0 -0.468,-0.006 L -1.17,-1.284 v 0.125 c 0.198,0.019 0.279,0.127 0.299,0.319 0.013,0.13 0.013,0.208 0.013,0.638 v 1.081 c 0,0.227 -0.013,0.332 -0.049,0.423 -0.035,0.107 -0.114,0.163 -0.263,0.177 v 0.123 c 0.052,-0.005 0.014,-0.005 0.2,-0.005 0.073,0 0.177,0 0.314,0.005 0.221,0.004 0.441,0.019 0.662,0.019 0.614,0 0.98,-0.3 0.98,-0.801 C 0.986,0.347 0.568,0 0,0"
             style="fill:#231f20;fill-opacity:1;fill-rule:nonzero;stroke:none"
             id="path44"
             inkscape:connector-curvature="0" /></g><g
           id="g46"
           transform="translate(239.2437,315.4102)"><path
             d="m 0,0 c -0.047,-0.065 -0.067,-0.153 -0.078,-0.327 -0.008,-0.181 -0.013,-0.324 -0.013,-0.596 0,-0.099 0.005,-0.4 0.005,-0.695 0,-0.303 -0.046,-0.486 -0.173,-0.667 -0.199,-0.29 -0.527,-0.435 -0.96,-0.435 -0.274,0 -0.479,0.049 -0.674,0.181 -0.303,0.195 -0.42,0.449 -0.42,0.903 0,0.469 0.008,0.674 0.008,0.828 0,0.217 0.015,0.442 -0.024,0.664 -0.025,0.157 -0.108,0.222 -0.288,0.237 V 0.215 L -2.52,0.21 c 0.113,-0.002 0.274,-0.002 0.48,-0.002 0.209,0 0.367,0 0.479,0.002 L -1.46,0.215 V 0.093 c -0.135,-0.015 -0.199,-0.051 -0.243,-0.127 -0.039,-0.064 -0.055,-0.147 -0.06,-0.337 -0.009,-0.278 -0.014,-0.544 -0.014,-0.816 0,-0.742 0.019,-0.883 0.152,-1.04 0.103,-0.122 0.282,-0.202 0.489,-0.202 0.288,0 0.571,0.144 0.657,0.437 0.054,0.18 0.064,0.315 0.064,0.805 v 0.428 c 0,0.498 -0.013,0.645 -0.059,0.723 -0.048,0.075 -0.112,0.117 -0.224,0.129 v 0.122 c 0.171,-0.007 0.234,-0.007 0.449,-0.007 0.22,0 0.28,0 0.454,0.007 V 0.093 C 0.107,0.081 0.049,0.054 0,0"
             style="fill:#231f20;fill-opacity:1;fill-rule:nonzero;stroke:none"
             id="path48"
             inkscape:connector-curvature="0" /></g><g
           id="g50"
           transform="translate(240.9722,314.1943)"><path
             d="m 0,0 c -0.073,0 -0.15,-0.002 -0.264,-0.012 -0.003,-0.117 -0.003,-0.139 -0.003,-0.335 v -0.258 c 0,-0.245 0.008,-0.372 0.038,-0.461 0.035,-0.106 0.138,-0.16 0.318,-0.16 0.37,0 0.58,0.201 0.58,0.57 C 0.669,-0.256 0.407,0 0,0 m -0.013,1.209 c -0.078,0 -0.156,-0.013 -0.235,-0.013 -0.001,-0.28 -0.011,-0.761 -0.016,-0.944 0.049,-0.008 0.108,-0.01 0.191,-0.01 0.425,0 0.665,0.176 0.665,0.488 0,0.303 -0.224,0.479 -0.605,0.479 M 0.929,-1.25 C 0.728,-1.401 0.498,-1.457 0.055,-1.457 c -0.231,0 -0.47,0.017 -0.704,0.017 -0.093,0 -0.272,0 -0.391,-0.007 l -0.054,-0.008 v 0.125 c 0.205,0.019 0.283,0.119 0.298,0.319 0.015,0.13 0.016,0.208 0.016,0.638 v 0.812 c 0,0.406 -0.001,0.577 -0.045,0.692 -0.043,0.107 -0.122,0.163 -0.269,0.178 v 0.122 c 0.2,-0.007 0.314,-0.007 0.593,-0.007 0.252,0 0.628,0.01 0.877,0.01 0.4,0 0.762,-0.194 0.762,-0.643 0,-0.332 -0.209,-0.552 -0.619,-0.654 0.458,-0.093 0.702,-0.362 0.702,-0.783 0,-0.262 -0.096,-0.458 -0.292,-0.604"
             style="fill:#231f20;fill-opacity:1;fill-rule:nonzero;stroke:none"
             id="path52"
             inkscape:connector-curvature="0" /></g><g
           id="g54"
           transform="translate(244.6309,312.8057)"><path
             d="m 0,0 c -0.036,-0.066 -0.089,-0.076 -0.304,-0.076 -0.111,0 -0.22,0.005 -0.327,0.008 -0.269,0.009 -0.513,0.016 -0.806,0.016 -0.22,0 -0.366,0 -0.506,-0.014 v 0.125 c 0.11,0.006 0.164,0.029 0.213,0.085 0.075,0.092 0.098,0.2 0.098,0.52 0,0.217 0.005,0.391 0.005,0.612 v 0.462 c 0,0.586 -0.005,0.664 -0.049,0.782 -0.039,0.107 -0.121,0.163 -0.267,0.177 v 0.122 l 0.11,-0.005 c 0.114,-10e-4 0.274,-10e-4 0.49,-10e-4 0.214,0 0.375,0 0.489,10e-4 l 0.11,0.005 V 2.697 C -0.968,2.697 -1.061,2.58 -1.085,2.373 -1.095,2.297 -1.1,2.233 -1.1,1.738 v -0.72 c 0,-0.601 0.005,-0.676 0.058,-0.735 0.049,-0.047 0.142,-0.068 0.328,-0.068 0.235,0 0.366,0.026 0.475,0.085 0.12,0.063 0.21,0.195 0.254,0.376 L 0.179,0.632 C 0.132,0.381 0.049,0.07 0,0"
             style="fill:#231f20;fill-opacity:1;fill-rule:nonzero;stroke:none"
             id="path56"
             inkscape:connector-curvature="0" /></g><g
           id="g58"
           transform="translate(246.1382,312.7471)"><path
             d="m 0,0 c -0.111,0.007 -0.272,0.007 -0.474,0.007 -0.208,0 -0.361,0 -0.473,-0.007 l -0.106,-0.008 v 0.125 c 0.205,0.02 0.282,0.119 0.298,0.32 0.014,0.129 0.018,0.208 0.018,0.637 v 0.723 c 0,0.109 -0.004,0.226 -0.004,0.358 0,0.228 -0.009,0.332 -0.044,0.423 -0.039,0.108 -0.122,0.163 -0.268,0.178 v 0.122 l 0.106,-0.005 c 0.112,-0.002 0.265,-0.002 0.473,-0.002 0.202,0 0.363,0 0.474,0.002 L 0.103,2.878 V 2.756 C -0.083,2.744 -0.179,2.627 -0.195,2.432 -0.21,2.307 -0.21,2.188 -0.21,1.797 V 1.074 C -0.21,0.5 -0.205,0.412 -0.161,0.3 -0.122,0.186 -0.044,0.129 0.103,0.117 v -0.125 z"
             style="fill:#231f20;fill-opacity:1;fill-rule:nonzero;stroke:none"
             id="path60"
             inkscape:connector-curvature="0" /></g><g
           id="g62"
           transform="translate(248.1353,315.3857)"><path
             d="m 0,0 c -0.527,0 -0.902,-0.444 -0.902,-1.064 0,-0.748 0.444,-1.34 1.011,-1.34 0.532,0 0.908,0.449 0.908,1.076 C 1.017,-0.588 0.573,0 0,0 m 2.041,-3.42 c -0.337,0 -0.693,0.1 -1.035,0.295 -0.195,0.105 -0.469,0.291 -0.668,0.457 -0.146,-0.022 -0.201,-0.027 -0.341,-0.027 -0.871,0 -1.452,0.566 -1.452,1.43 0,0.921 0.626,1.558 1.543,1.558 0.89,0 1.481,-0.576 1.481,-1.428 0,-0.613 -0.313,-1.15 -0.802,-1.399 0.156,-0.078 0.312,-0.163 0.463,-0.259 0.44,-0.266 0.743,-0.381 1.027,-0.381 0.18,0 0.326,0.039 0.497,0.127 L 2.813,-3.195 C 2.598,-3.342 2.335,-3.42 2.041,-3.42"
             style="fill:#231f20;fill-opacity:1;fill-rule:nonzero;stroke:none"
             id="path64"
             inkscape:connector-curvature="0" /></g><g
           id="g66"
           transform="translate(252.7007,315.4102)"><path
             d="m 0,0 c -0.044,-0.065 -0.068,-0.153 -0.078,-0.327 -0.008,-0.181 -0.01,-0.324 -0.01,-0.596 0,-0.099 0.002,-0.4 0.002,-0.695 0,-0.303 -0.049,-0.486 -0.173,-0.667 -0.2,-0.29 -0.527,-0.435 -0.96,-0.435 -0.274,0 -0.48,0.049 -0.674,0.181 -0.299,0.195 -0.42,0.449 -0.42,0.903 0,0.469 0.008,0.674 0.008,0.828 0,0.217 0.012,0.442 -0.024,0.664 -0.025,0.157 -0.108,0.222 -0.292,0.237 V 0.215 L -2.52,0.21 c 0.113,-0.002 0.274,-0.002 0.479,-0.002 0.21,0 0.368,0 0.48,0.002 L -1.46,0.215 V 0.093 c -0.135,-0.015 -0.2,-0.051 -0.244,-0.127 -0.038,-0.064 -0.054,-0.147 -0.059,-0.337 -0.009,-0.278 -0.013,-0.544 -0.013,-0.816 0,-0.742 0.018,-0.883 0.15,-1.04 0.104,-0.122 0.283,-0.202 0.488,-0.202 0.288,0 0.572,0.144 0.659,0.437 0.056,0.18 0.064,0.315 0.064,0.805 v 0.428 c 0,0.498 -0.013,0.645 -0.062,0.723 -0.045,0.075 -0.112,0.117 -0.225,0.129 v 0.122 c 0.175,-0.007 0.235,-0.007 0.45,-0.007 0.223,0 0.283,0 0.454,0.007 V 0.093 C 0.107,0.081 0.045,0.054 0,0"
             style="fill:#231f20;fill-opacity:1;fill-rule:nonzero;stroke:none"
             id="path68"
             inkscape:connector-curvature="0" /></g><g
           id="g70"
           transform="translate(255.3374,312.8076)"><path
             d="m 0,0 c -0.039,-0.068 -0.083,-0.078 -0.321,-0.078 -0.146,0 -0.288,0.008 -0.436,0.01 -0.208,0.007 -0.415,0.014 -0.62,0.014 -0.21,0 -0.415,0 -0.625,-0.014 v 0.125 c 0.195,0.019 0.28,0.127 0.298,0.319 0.015,0.13 0.015,0.269 0.015,0.491 v 1.228 c 0,0.227 -0.015,0.332 -0.049,0.423 -0.039,0.107 -0.117,0.163 -0.264,0.177 v 0.122 h 2.023 c 0,-0.124 -0.005,-0.251 -0.005,-0.378 0,-0.107 -0.005,-0.205 0.005,-0.31 h -0.156 c -0.03,0.337 -0.173,0.428 -0.689,0.428 -0.093,0 -0.216,-0.01 -0.323,-0.01 C -1.156,2.373 -1.157,2.322 -1.157,2.07 V 1.567 c 0.063,-0.004 0.117,-0.004 0.192,-0.004 0.449,0 0.589,0.066 0.613,0.297 h 0.158 C -0.205,1.795 -0.205,1.648 -0.205,1.434 c 0,-0.218 0.006,-0.35 0.011,-0.418 h -0.158 c -0.013,0.244 -0.127,0.31 -0.574,0.31 -0.078,0 -0.157,-0.01 -0.231,-0.01 0,-0.271 0.001,-0.546 0.001,-0.818 0,-0.181 0.033,-0.239 0.135,-0.264 0.065,-0.019 0.167,-0.021 0.298,-0.021 0.469,0 0.632,0.1 0.729,0.456 L 0.176,0.635 C 0.117,0.332 0.045,0.083 0,0"
             style="fill:#231f20;fill-opacity:1;fill-rule:nonzero;stroke:none"
             id="path72"
             inkscape:connector-curvature="0" /></g><g
           id="g74"
           transform="translate(259.3364,315.3906)"><path
             d="m 0,0 c -0.005,0.376 -0.225,0.522 -0.815,0.522 -0.123,0 -0.235,-0.001 -0.367,-0.014 -0.009,-0.359 -0.009,-0.612 -0.009,-1.187 0.123,-0.002 0.185,-0.005 0.274,-0.005 0.487,0 0.635,0.081 0.658,0.365 h 0.191 c 0,-0.147 -0.01,-0.303 -0.01,-0.443 0,-0.195 0.01,-0.395 0.01,-0.591 h -0.191 c -0.033,0.313 -0.155,0.379 -0.706,0.379 -0.093,0 -0.129,0 -0.226,-0.007 v -0.586 c 0,-0.118 0,-0.237 0.001,-0.373 0.01,-0.291 0.034,-0.54 0.375,-0.565 v -0.146 l -0.127,0.009 c -0.131,0.005 -0.323,0.005 -0.57,0.005 -0.251,0 -0.44,0 -0.576,-0.005 l -0.124,-0.009 v 0.146 c 0.234,0.025 0.338,0.161 0.361,0.391 0.015,0.156 0.015,0.252 0.015,0.766 v 1.312 c 0,0.275 -0.015,0.402 -0.059,0.508 -0.047,0.138 -0.141,0.205 -0.317,0.224 V 0.84 H 0.192 C 0.182,0.742 0.182,0.571 0.182,0.354 c 0,-0.205 0,-0.237 0.01,-0.354 z"
             style="fill:#231f20;fill-opacity:1;fill-rule:nonzero;stroke:none"
             id="path76"
             inkscape:connector-curvature="0" /></g><g
           id="g78"
           transform="translate(261.1187,315.4131)"><path
             d="m 0,0 c -0.086,0 -0.165,-0.01 -0.259,-0.037 0,-0.254 -0.005,-0.715 -0.005,-1.076 0.049,-0.008 0.134,-0.01 0.191,-0.01 0.356,0 0.591,0.222 0.591,0.557 C 0.518,-0.237 0.298,0 0,0 m 1.11,-2.705 c -0.161,0 -0.251,0.021 -0.342,0.085 -0.142,0.093 -0.293,0.351 -0.381,0.501 -0.146,0.254 -0.309,0.527 -0.465,0.754 -0.025,-0.005 -0.047,-0.005 -0.067,-0.005 -0.041,0 -0.075,0.005 -0.119,0.005 v -0.227 c 0,-0.125 0.005,-0.234 0.005,-0.351 0.005,-0.235 0.007,-0.332 0.044,-0.423 0.041,-0.114 0.119,-0.171 0.264,-0.183 v -0.125 l -0.101,0.008 c -0.113,0.007 -0.269,0 -0.47,0 -0.201,0 -0.357,0.007 -0.468,0 l -0.104,-0.008 v 0.125 c 0.108,0.007 0.161,0.029 0.215,0.085 0.044,0.059 0.075,0.132 0.083,0.235 0.011,0.129 0.016,0.208 0.016,0.637 v 0.723 c 0,0.527 -0.016,0.654 -0.045,0.781 -0.033,0.109 -0.122,0.163 -0.269,0.178 v 0.122 c 0.085,-0.007 0.173,-0.005 0.259,-0.005 0.225,0 0.293,0 0.563,0.01 0.233,0.014 0.366,0.014 0.472,0.014 0.293,0 0.47,-0.043 0.615,-0.143 0.166,-0.115 0.274,-0.342 0.274,-0.567 0,-0.359 -0.233,-0.644 -0.63,-0.793 0.163,-0.203 0.293,-0.416 0.444,-0.652 0.137,-0.222 0.279,-0.408 0.386,-0.52 0.059,-0.064 0.099,-0.083 0.181,-0.105 V -2.674 C 1.357,-2.695 1.247,-2.705 1.11,-2.705"
             style="fill:#231f20;fill-opacity:1;fill-rule:nonzero;stroke:none"
             id="path80"
             inkscape:connector-curvature="0" /></g><g
           id="g82"
           transform="translate(263.9473,314.8662)"><path
             d="m 0,0 c -0.112,-0.296 -0.265,-0.674 -0.333,-0.887 h 0.641 z m 1.401,-2.119 c -0.109,0.007 -0.263,0.007 -0.463,0.007 -0.202,0 -0.357,0 -0.466,-0.007 L 0.371,-2.127 v 0.125 c 0.14,0.007 0.223,0.08 0.223,0.202 0,0.042 -0.013,0.103 -0.058,0.235 -0.049,0.159 -0.087,0.266 -0.137,0.413 h -0.83 l -0.088,-0.254 c -0.064,-0.194 -0.098,-0.335 -0.098,-0.408 0,-0.123 0.054,-0.181 0.196,-0.188 v -0.125 c -0.165,0.008 -0.225,0.015 -0.433,0.015 -0.206,0 -0.266,-0.007 -0.43,-0.015 v 0.125 c 0.067,0.007 0.088,0.02 0.135,0.061 0.08,0.076 0.166,0.222 0.295,0.551 l 0.408,1.048 c 0.113,0.28 0.283,0.733 0.401,1.101 H 0.248 C 0.287,0.625 0.379,0.41 0.438,0.256 l 0.607,-1.563 c 0.106,-0.258 0.179,-0.415 0.234,-0.512 0.062,-0.105 0.122,-0.157 0.225,-0.183 v -0.125 z"
             style="fill:#231f20;fill-opacity:1;fill-rule:nonzero;stroke:none"
             id="path84"
             inkscape:connector-curvature="0" /></g><g
           id="g86"
           transform="translate(268.4248,315.374)"><path
             d="M 0,0 C -0.046,-0.078 -0.056,-0.146 -0.065,-0.374 -0.075,-0.765 -0.083,-1.37 -0.083,-1.66 v -0.662 c 0,-0.098 0.015,-0.246 0.015,-0.313 h -0.295 c -0.282,0.369 -0.865,1.084 -0.865,1.084 -0.068,0.086 -0.609,0.75 -0.881,1.082 0,-0.088 -0.005,-0.029 -0.005,-0.315 v -0.279 c 0,-0.324 0.005,-0.644 0.017,-0.968 0.01,-0.184 0.027,-0.272 0.071,-0.355 0.042,-0.085 0.107,-0.122 0.232,-0.124 v -0.125 c -0.151,0.015 -0.307,0.015 -0.457,0.015 -0.156,0 -0.308,0 -0.464,-0.015 v 0.125 c 0.286,0.007 0.296,0.244 0.303,0.471 0.005,0.181 0.008,0.332 0.008,0.61 v 0.911 c 0,0.354 -0.015,0.442 -0.081,0.539 -0.041,0.069 -0.1,0.096 -0.23,0.108 v 0.122 c 0.145,-0.007 0.195,-0.007 0.38,-0.007 0.175,0 0.226,0 0.371,0.007 0.05,-0.095 0.131,-0.181 0.429,-0.544 0.425,-0.516 0.803,-0.947 1.164,-1.404 v 0.945 c 0,0.432 -0.01,0.539 -0.031,0.654 -0.029,0.137 -0.113,0.207 -0.272,0.227 v 0.122 c 0.176,-0.007 0.237,-0.007 0.459,-0.007 0.22,0 0.282,0 0.458,0.007 V 0.129 C 0.125,0.127 0.062,0.1 0,0"
             style="fill:#231f20;fill-opacity:1;fill-rule:nonzero;stroke:none"
             id="path88"
             inkscape:connector-curvature="0" /></g><g
           id="g90"
           transform="translate(271.4409,312.8467)"><path
             d="m 0,0 c -0.282,-0.112 -0.527,-0.156 -0.869,-0.156 l -0.039,-0.171 c 0.024,0.003 0.065,0 0.082,0 0.163,0 0.274,-0.117 0.274,-0.259 0,-0.234 -0.186,-0.402 -0.482,-0.402 -0.085,0 -0.163,0.019 -0.258,0.058 l 0.062,0.168 c 0.053,-0.019 0.107,-0.034 0.156,-0.034 0.118,0 0.201,0.062 0.201,0.169 0,0.085 -0.041,0.139 -0.109,0.139 -0.034,0 -0.063,-0.015 -0.092,-0.034 l -0.098,0.022 0.088,0.352 c -0.381,0.036 -0.658,0.158 -0.892,0.402 -0.269,0.273 -0.41,0.644 -0.41,1.082 0,0.93 0.603,1.496 1.59,1.496 0.299,0 0.591,-0.049 0.839,-0.127 C 0.034,2.605 0.034,2.508 0.034,2.41 0.034,2.334 0.041,2.178 0.043,2.08 h -0.168 c -0.069,0.311 -0.314,0.477 -0.71,0.477 -0.606,0 -0.98,-0.409 -0.98,-1.084 0,-0.78 0.438,-1.348 1.038,-1.348 0.361,0 0.608,0.188 0.709,0.529 L 0.094,0.623 C 0.059,0.474 0.016,0.225 0,0"
             style="fill:#231f20;fill-opacity:1;fill-rule:nonzero;stroke:none"
             id="path92"
             inkscape:connector-curvature="0" /></g><g
           id="g94"
           transform="translate(273.0391,314.8662)"><path
             d="m 0,0 c -0.112,-0.296 -0.266,-0.674 -0.332,-0.887 h 0.64 z m 1.401,-2.119 c -0.109,0.007 -0.265,0.007 -0.46,0.007 -0.205,0 -0.361,0 -0.469,-0.007 L 0.371,-2.127 v 0.125 c 0.14,0.007 0.223,0.08 0.223,0.202 0,0.042 -0.014,0.103 -0.057,0.235 -0.051,0.159 -0.084,0.266 -0.139,0.413 h -0.83 l -0.086,-0.254 c -0.065,-0.194 -0.099,-0.335 -0.099,-0.408 0,-0.123 0.055,-0.181 0.192,-0.188 v -0.125 c -0.163,0.008 -0.221,0.015 -0.429,0.015 -0.206,0 -0.266,-0.007 -0.427,-0.015 v 0.125 c 0.064,0.007 0.085,0.02 0.132,0.061 0.083,0.076 0.163,0.222 0.295,0.551 l 0.41,1.048 c 0.112,0.28 0.281,0.733 0.399,1.101 H 0.249 C 0.287,0.625 0.376,0.41 0.438,0.256 l 0.61,-1.563 C 1.15,-1.565 1.224,-1.722 1.279,-1.819 1.343,-1.924 1.401,-1.976 1.507,-2.002 v -0.125 z"
             style="fill:#231f20;fill-opacity:1;fill-rule:nonzero;stroke:none"
             id="path96"
             inkscape:connector-curvature="0" /></g><g
           id="g98"
           transform="translate(275.855,312.7471)"><path
             d="m 0,0 c -0.111,0.007 -0.272,0.007 -0.474,0.007 -0.205,0 -0.361,0 -0.473,-0.007 l -0.106,-0.008 v 0.125 c 0.203,0.02 0.282,0.119 0.298,0.32 0.013,0.129 0.017,0.208 0.017,0.637 v 0.723 c 0,0.109 -0.004,0.226 -0.004,0.358 0,0.228 -0.008,0.332 -0.043,0.423 -0.039,0.108 -0.119,0.163 -0.268,0.178 v 0.122 l 0.106,-0.005 c 0.112,-0.002 0.268,-0.002 0.473,-0.002 0.202,0 0.363,0 0.474,0.002 L 0.099,2.878 V 2.756 C -0.083,2.744 -0.179,2.627 -0.199,2.432 -0.21,2.307 -0.21,2.188 -0.21,1.797 V 1.074 C -0.21,0.5 -0.205,0.412 -0.162,0.3 -0.123,0.186 -0.044,0.129 0.099,0.117 v -0.125 z"
             style="fill:#231f20;fill-opacity:1;fill-rule:nonzero;stroke:none"
             id="path100"
             inkscape:connector-curvature="0" /></g><g
           id="g102"
           transform="translate(277.1943,312.6904)"><path
             d="M 0,0 C -0.249,0 -0.432,0.029 -0.725,0.145 -0.737,0.311 -0.769,0.557 -0.803,0.77 l 0.163,0.021 c 0.106,-0.344 0.335,-0.527 0.667,-0.527 0.308,0 0.513,0.156 0.513,0.4 0,0.195 -0.132,0.332 -0.327,0.454 l -0.454,0.286 c -0.308,0.198 -0.491,0.403 -0.491,0.788 0,0.482 0.366,0.796 0.937,0.796 0.276,0 0.506,-0.053 0.708,-0.156 C 0.911,2.725 0.911,2.695 0.911,2.559 c 0,-0.157 0,-0.205 0.002,-0.323 H 0.75 C 0.688,2.549 0.496,2.723 0.195,2.723 c -0.265,0 -0.461,-0.166 -0.461,-0.409 0,-0.207 0.142,-0.343 0.371,-0.49 L 0.472,1.587 C 0.823,1.357 1.021,1.138 1.021,0.791 1.021,0.32 0.608,0 0,0"
             style="fill:#231f20;fill-opacity:1;fill-rule:nonzero;stroke:none"
             id="path104"
             inkscape:connector-curvature="0" /></g><g
           id="g106"
           transform="translate(280.6709,312.8076)"><path
             d="m 0,0 c -0.039,-0.068 -0.08,-0.078 -0.319,-0.078 -0.147,0 -0.288,0.008 -0.438,0.01 -0.207,0.007 -0.415,0.014 -0.622,0.014 -0.208,0 -0.415,0 -0.623,-0.014 v 0.125 c 0.195,0.019 0.283,0.127 0.301,0.319 0.012,0.13 0.012,0.269 0.012,0.491 v 1.228 c 0,0.227 -0.012,0.332 -0.046,0.423 -0.042,0.107 -0.12,0.163 -0.267,0.177 v 0.122 h 2.024 c 0,-0.124 -0.004,-0.251 -0.004,-0.378 0,-0.107 -0.005,-0.205 0.004,-0.31 h -0.156 c -0.029,0.337 -0.174,0.428 -0.686,0.428 -0.095,0 -0.222,-0.01 -0.325,-0.01 C -1.152,2.373 -1.157,2.322 -1.157,2.07 V 1.567 c 0.063,-0.004 0.115,-0.004 0.193,-0.004 0.451,0 0.588,0.066 0.615,0.297 h 0.157 C -0.205,1.795 -0.205,1.648 -0.205,1.434 c 0,-0.218 0.005,-0.35 0.013,-0.418 h -0.157 c -0.014,0.244 -0.131,0.31 -0.576,0.31 -0.078,0 -0.154,-0.01 -0.232,-0.01 0,-0.271 0.005,-0.546 0.005,-0.818 0,-0.181 0.029,-0.239 0.131,-0.264 0.067,-0.019 0.167,-0.021 0.298,-0.021 0.469,0 0.633,0.1 0.731,0.456 L 0.179,0.635 C 0.115,0.332 0.049,0.083 0,0"
             style="fill:#231f20;fill-opacity:1;fill-rule:nonzero;stroke:none"
             id="path108"
             inkscape:connector-curvature="0" /></g><g
           id="g110"
           transform="translate(229.6406,320.1396)"><path
             d="m 0,0 c -0.036,-0.049 -0.099,-0.066 -0.254,-0.066 -0.202,0 -0.407,0.009 -0.612,0.017 -0.176,0.002 -0.311,0.007 -0.405,0.007 -0.125,0 -0.43,-0.005 -0.521,-0.007 l -0.06,-0.008 0.019,0.093 c 0.124,0.013 0.201,0.052 0.259,0.13 0.069,0.085 0.113,0.202 0.171,0.437 0.054,0.234 0.078,0.371 0.166,0.803 l 0.07,0.332 c 0.067,0.334 0.091,0.537 0.091,0.642 0,0.181 -0.068,0.259 -0.249,0.278 l 0.016,0.096 c 0.028,-0.003 0.048,-0.003 0.059,-0.003 0.156,0 0.308,-0.005 0.464,-0.005 0.244,0 0.405,0.005 0.477,0.005 0.011,0 0.036,0 0.068,0.003 L -0.26,2.658 C -0.391,2.653 -0.464,2.617 -0.527,2.536 -0.63,2.399 -0.688,2.217 -0.845,1.406 L -0.9,1.125 C -0.967,0.778 -0.993,0.661 -1.012,0.505 -1.022,0.459 -1.025,0.4 -1.025,0.373 c 0,-0.166 0.083,-0.215 0.351,-0.215 0.477,0 0.654,0.098 0.811,0.445 L 0.249,0.563 C 0.15,0.283 0.052,0.068 0,0"
             style="fill:#231f20;fill-opacity:1;fill-rule:nonzero;stroke:none"
             id="path112"
             inkscape:connector-curvature="0" /></g><g
           id="g114"
           transform="translate(230.4351,320.0391)"><path
             d="m 0,0 c -0.086,0 -0.14,0.044 -0.14,0.12 0,0.039 0.01,0.108 0.033,0.197 0.053,0.23 0.131,0.528 0.17,0.684 0.061,0.225 0.085,0.371 0.085,0.437 0,0.049 -0.024,0.079 -0.07,0.079 -0.039,0 -0.073,-0.013 -0.164,-0.039 L -0.117,1.468 -0.13,1.585 c 0.233,0.09 0.459,0.146 0.574,0.146 0.064,0 0.088,-0.019 0.088,-0.071 0,-0.054 -0.019,-0.19 -0.097,-0.483 L 0.373,0.933 C 0.269,0.521 0.241,0.376 0.241,0.308 0.241,0.249 0.275,0.21 0.338,0.21 c 0.038,0 0.116,0.018 0.23,0.059 L 0.578,0.151 C 0.356,0.062 0.114,0 0,0 m 0.456,2.148 c -0.129,0 -0.215,0.081 -0.215,0.208 0,0.149 0.111,0.254 0.262,0.254 0.127,0 0.205,-0.076 0.205,-0.195 0,-0.154 -0.103,-0.267 -0.252,-0.267"
             style="fill:#231f20;fill-opacity:1;fill-rule:nonzero;stroke:none"
             id="path116"
             inkscape:connector-curvature="0" /></g><g
           id="g118"
           transform="translate(232.7461,321.5869)"><path
             d="m 0,0 c -0.077,0 -0.167,-0.029 -0.285,-0.09 -0.124,-0.066 -0.21,-0.135 -0.258,-0.195 -0.054,-0.076 -0.102,-0.208 -0.165,-0.482 -0.063,-0.268 -0.093,-0.429 -0.093,-0.485 0,-0.081 0.093,-0.127 0.262,-0.127 0.173,0 0.319,0.08 0.43,0.236 0.166,0.24 0.295,0.623 0.295,0.897 C 0.186,-0.088 0.122,0 0,0 m 0.001,-1.35 c -0.162,-0.144 -0.354,-0.203 -0.652,-0.203 -0.33,0 -0.527,0.057 -0.527,0.142 0,0.032 0.005,0.073 0.045,0.249 l 0.22,0.957 c 0.072,0.303 0.127,0.552 0.204,0.896 0.04,0.203 0.058,0.313 0.058,0.364 0,0.053 -0.024,0.078 -0.073,0.078 -0.029,0 -0.122,-0.02 -0.184,-0.039 l -0.005,0.125 0.052,0.019 c 0.226,0.071 0.415,0.11 0.501,0.11 0.057,0 0.088,-0.022 0.088,-0.069 0,-0.041 -0.02,-0.151 -0.089,-0.461 L -0.488,0.262 c -0.044,-0.184 -0.055,-0.247 -0.065,-0.306 0.261,0.156 0.493,0.228 0.704,0.228 0.258,0 0.381,-0.13 0.381,-0.401 0,-0.388 -0.221,-0.869 -0.531,-1.133"
             style="fill:#231f20;fill-opacity:1;fill-rule:nonzero;stroke:none"
             id="path120"
             inkscape:connector-curvature="0" /></g><g
           id="g122"
           transform="translate(234.6309,321.6016)"><path
             d="m 0,0 c -0.204,0 -0.418,-0.278 -0.522,-0.688 h 0.042 c 0.392,0 0.685,0.205 0.685,0.476 C 0.205,-0.095 0.116,0 0,0 m -0.435,-0.845 c -0.029,0 -0.065,0 -0.122,0.005 -0.011,-0.075 -0.014,-0.137 -0.014,-0.202 0,-0.213 0.074,-0.325 0.221,-0.325 0.135,0 0.301,0.071 0.554,0.227 l 0.045,-0.146 c -0.309,-0.193 -0.55,-0.281 -0.762,-0.281 -0.26,0 -0.404,0.156 -0.404,0.437 0,0.695 0.469,1.299 1.015,1.299 0.263,0 0.42,-0.125 0.42,-0.332 0,-0.389 -0.412,-0.682 -0.953,-0.682"
             style="fill:#231f20;fill-opacity:1;fill-rule:nonzero;stroke:none"
             id="path124"
             inkscape:connector-curvature="0" /></g><g
           id="g126"
           transform="translate(236.8364,321.2256)"><path
             d="m 0,0 -0.14,0.01 c 0.01,0.053 0.013,0.112 0.013,0.166 0,0.078 -0.067,0.135 -0.171,0.135 -0.063,0 -0.127,-0.04 -0.181,-0.106 -0.159,-0.178 -0.223,-0.469 -0.317,-0.93 l -0.078,-0.41 c -0.161,-0.01 -0.204,-0.012 -0.366,-0.032 0.04,0.156 0.07,0.278 0.104,0.425 l 0.093,0.395 c 0.063,0.259 0.092,0.425 0.092,0.513 0,0.107 -0.026,0.154 -0.074,0.154 -0.025,0 -0.064,-0.007 -0.108,-0.019 L -1.235,0.264 -1.25,0.391 c 0.207,0.086 0.441,0.154 0.548,0.154 0.043,0 0.067,-0.018 0.077,-0.059 0.01,-0.051 0.02,-0.11 0.021,-0.185 0.194,0.156 0.36,0.246 0.477,0.246 0.08,0 0.182,-0.041 0.278,-0.112 C 0.084,0.281 0.034,0.145 0,0"
             style="fill:#231f20;fill-opacity:1;fill-rule:nonzero;stroke:none"
             id="path128"
             inkscape:connector-curvature="0" /></g><g
           id="g130"
           transform="translate(238.2622,321.5088)"><path
             d="m 0,0 -0.347,0.01 -0.179,-0.862 c -0.044,-0.222 -0.049,-0.286 -0.049,-0.32 0,-0.06 0.028,-0.09 0.083,-0.09 0.033,0 0.093,0.012 0.194,0.046 l 0.044,0.013 0.01,-0.125 c -0.215,-0.088 -0.444,-0.147 -0.567,-0.147 -0.087,0 -0.145,0.044 -0.145,0.125 0,0.071 0.018,0.176 0.053,0.305 0.035,0.145 0.068,0.272 0.099,0.435 l 0.132,0.62 -0.225,-0.002 0.029,0.137 c 0.287,0.048 0.386,0.275 0.468,0.519 l 0.2,0.039 -0.106,-0.493 0.35,0.003 z"
             style="fill:#231f20;fill-opacity:1;fill-rule:nonzero;stroke:none"
             id="path132"
             inkscape:connector-curvature="0" /></g><g
           id="g134"
           transform="translate(239.522,321.6016)"><path
             d="m 0,0 c -0.204,0 -0.415,-0.278 -0.522,-0.688 h 0.043 c 0.391,0 0.684,0.205 0.684,0.476 C 0.205,-0.095 0.112,0 0,0 m -0.435,-0.845 c -0.029,0 -0.068,0 -0.122,0.005 -0.013,-0.075 -0.018,-0.137 -0.018,-0.202 0,-0.213 0.077,-0.325 0.225,-0.325 0.135,0 0.306,0.071 0.55,0.227 l 0.046,-0.146 c -0.309,-0.193 -0.544,-0.281 -0.759,-0.281 -0.262,0 -0.405,0.156 -0.405,0.437 0,0.695 0.474,1.299 1.016,1.299 0.263,0 0.42,-0.125 0.42,-0.332 0,-0.389 -0.414,-0.682 -0.953,-0.682 M 0.034,0.43 -0.103,0.54 0.412,1.116 0.791,1.021 Z"
             style="fill:#231f20;fill-opacity:1;fill-rule:nonzero;stroke:none"
             id="path136"
             inkscape:connector-curvature="0" /></g><g
           id="g138"
           transform="translate(247.585,322.2783)"><path
             d="m 0,0 h -0.119 c 0.002,0.046 0.005,0.061 0.005,0.09 0,0.234 -0.15,0.312 -0.571,0.312 -0.14,0 -0.273,0 -0.414,-0.009 -0.088,-0.352 -0.146,-0.655 -0.216,-1.028 h 0.153 c 0.272,0 0.384,0.002 0.478,0.02 0.16,0.029 0.253,0.119 0.298,0.293 h 0.113 c -0.059,-0.252 -0.129,-0.606 -0.158,-0.819 h -0.116 c 0.004,0.03 0.008,0.054 0.008,0.069 0,0.183 -0.112,0.242 -0.457,0.242 -0.207,0 -0.283,-0.003 -0.358,-0.008 -0.02,-0.107 0,-0.012 -0.096,-0.5 -0.049,-0.232 -0.065,-0.381 -0.065,-0.457 0,-0.146 0.078,-0.185 0.358,-0.185 0.531,0 0.697,0.085 0.859,0.447 l 0.106,-0.039 c -0.093,-0.282 -0.194,-0.506 -0.252,-0.574 -0.044,-0.049 -0.099,-0.059 -0.275,-0.059 -0.147,0 -0.298,0.005 -0.448,0.008 -0.192,0.002 -0.391,0.009 -0.583,0.009 -0.198,0 -0.39,-0.007 -0.589,-0.007 l 0.015,0.092 c 0.127,0.013 0.203,0.052 0.262,0.13 0.068,0.085 0.109,0.202 0.171,0.437 0.054,0.237 0.07,0.332 0.166,0.804 l 0.068,0.332 c 0.065,0.329 0.093,0.537 0.093,0.641 0,0.181 -0.067,0.259 -0.249,0.279 l 0.016,0.095 H 0.121 C 0.072,0.422 0.029,0.197 0,0 m -0.797,0.898 -0.137,0.105 0.513,0.581 0.385,-0.093 z"
             style="fill:#231f20;fill-opacity:1;fill-rule:nonzero;stroke:none"
             id="path140"
             inkscape:connector-curvature="0" /></g><g
           id="g142"
           transform="translate(248.9229,319.9023)"><path
             d="m 0,0 c -0.143,0.054 -0.314,0.117 -0.49,0.169 -0.291,-0.076 -0.493,-0.286 -0.493,-0.535 0,-0.225 0.192,-0.376 0.495,-0.376 0.366,0 0.703,0.249 0.703,0.513 C 0.215,-0.124 0.155,-0.056 0,0 m -0.06,1.704 c -0.23,0 -0.415,-0.236 -0.415,-0.527 0,-0.196 0.114,-0.332 0.278,-0.332 0.225,0 0.402,0.234 0.402,0.522 0,0.21 -0.104,0.337 -0.265,0.337 M 0.741,1.614 0.454,1.616 C 0.506,1.528 0.522,1.46 0.522,1.367 c 0,-0.388 -0.323,-0.683 -0.743,-0.683 -0.082,0 -0.14,0.004 -0.23,0.032 -0.102,-0.069 -0.136,-0.096 -0.136,-0.135 0,-0.041 0.045,-0.068 0.231,-0.127 l 0.335,-0.102 c 0.337,-0.105 0.5,-0.21 0.5,-0.45 0,-0.446 -0.44,-0.798 -1.003,-0.798 -0.464,0 -0.746,0.217 -0.746,0.579 0,0.33 0.209,0.486 0.556,0.574 -0.21,0.075 -0.258,0.107 -0.258,0.178 0,0.092 0.121,0.205 0.375,0.346 -0.131,0.093 -0.194,0.215 -0.194,0.384 0,0.398 0.321,0.703 0.742,0.703 0.108,0 0.189,-0.013 0.282,-0.049 h 0.553 z"
             style="fill:#231f20;fill-opacity:1;fill-rule:nonzero;stroke:none"
             id="path144"
             inkscape:connector-curvature="0" /></g><g
           id="g146"
           transform="translate(251.0518,321.5869)"><path
             d="m 0,0 c -0.167,0 -0.337,-0.122 -0.48,-0.356 -0.16,-0.254 -0.273,-0.601 -0.273,-0.821 0,-0.134 0.063,-0.202 0.167,-0.202 0.156,0 0.433,0.139 0.536,0.244 0.058,0.059 0.092,0.147 0.133,0.303 0.068,0.254 0.132,0.498 0.169,0.771 C 0.16,-0.02 0.072,0 0,0 m 0.194,-1.553 c -0.073,0 -0.103,0.047 -0.137,0.254 -0.312,-0.178 -0.54,-0.256 -0.762,-0.256 -0.253,0 -0.4,0.127 -0.4,0.359 0,0.227 0.107,0.54 0.278,0.8 0.226,0.355 0.508,0.58 0.938,0.58 0.19,0 0.361,-0.038 0.542,-0.086 L 0.633,0.037 C 0.482,-0.449 0.37,-0.981 0.37,-1.164 c 0,-0.115 0.024,-0.176 0.078,-0.176 0.034,0 0.122,0.022 0.226,0.061 L 0.687,-1.408 C 0.472,-1.489 0.267,-1.553 0.194,-1.553"
             style="fill:#231f20;fill-opacity:1;fill-rule:nonzero;stroke:none"
             id="path148"
             inkscape:connector-curvature="0" /></g><g
           id="g150"
           transform="translate(253.1108,322.5127)"><path
             d="m 0,0 c -0.142,-0.564 -0.278,-1.185 -0.41,-1.777 -0.044,-0.196 -0.067,-0.323 -0.067,-0.389 0,-0.059 0.033,-0.09 0.093,-0.09 0.042,0 0.117,0.017 0.233,0.051 l 0.006,-0.117 C -0.36,-2.41 -0.62,-2.479 -0.732,-2.479 c -0.082,0 -0.127,0.047 -0.127,0.125 0,0.059 0.011,0.137 0.078,0.401 0.128,0.557 0.27,1.152 0.385,1.68 0.049,0.241 0.075,0.363 0.075,0.402 0,0.054 -0.026,0.076 -0.07,0.076 -0.044,0 -0.12,-0.017 -0.185,-0.039 l -0.01,0.127 c 0.215,0.07 0.451,0.129 0.568,0.129 C 0.041,0.422 0.073,0.4 0.073,0.354 0.073,0.313 0.054,0.215 0,0"
             style="fill:#231f20;fill-opacity:1;fill-rule:nonzero;stroke:none"
             id="path152"
             inkscape:connector-curvature="0" /></g><g
           id="g154"
           transform="translate(253.6934,320.0391)"><path
             d="m 0,0 c -0.083,0 -0.138,0.044 -0.138,0.12 0,0.039 0.014,0.108 0.034,0.197 0.055,0.23 0.132,0.528 0.172,0.684 0.059,0.225 0.087,0.371 0.087,0.437 0,0.049 -0.028,0.079 -0.073,0.079 -0.04,0 -0.074,-0.013 -0.165,-0.039 l -0.029,-0.01 -0.012,0.117 c 0.231,0.09 0.459,0.146 0.572,0.146 0.063,0 0.088,-0.019 0.088,-0.071 0,-0.054 -0.02,-0.19 -0.097,-0.483 L 0.376,0.933 C 0.272,0.521 0.244,0.376 0.244,0.308 0.244,0.249 0.278,0.21 0.342,0.21 c 0.039,0 0.112,0.018 0.229,0.059 L 0.581,0.151 C 0.36,0.062 0.121,0 0,0 m 0.462,2.148 c -0.131,0 -0.218,0.081 -0.218,0.208 0,0.149 0.111,0.254 0.262,0.254 0.127,0 0.205,-0.076 0.205,-0.195 0,-0.154 -0.102,-0.267 -0.249,-0.267"
             style="fill:#231f20;fill-opacity:1;fill-rule:nonzero;stroke:none"
             id="path156"
             inkscape:connector-curvature="0" /></g><g
           id="g158"
           transform="translate(255.811,321.5088)"><path
             d="m 0,0 -0.35,0.01 -0.177,-0.862 c -0.048,-0.222 -0.053,-0.286 -0.053,-0.32 0,-0.06 0.033,-0.09 0.087,-0.09 0.029,0 0.093,0.012 0.195,0.046 l 0.041,0.013 0.013,-0.125 c -0.22,-0.088 -0.448,-0.147 -0.57,-0.147 -0.088,0 -0.143,0.044 -0.143,0.125 0,0.071 0.016,0.176 0.05,0.305 0.039,0.145 0.069,0.272 0.103,0.435 l 0.13,0.62 -0.223,-0.002 0.029,0.137 c 0.287,0.048 0.385,0.275 0.464,0.519 l 0.2,0.039 -0.104,-0.493 0.349,0.003 z"
             style="fill:#231f20;fill-opacity:1;fill-rule:nonzero;stroke:none"
             id="path160"
             inkscape:connector-curvature="0" /></g><g
           id="g162"
           transform="translate(257.0674,321.6016)"><path
             d="m 0,0 c -0.2,0 -0.415,-0.278 -0.522,-0.688 h 0.043 c 0.391,0 0.687,0.205 0.687,0.476 C 0.208,-0.095 0.116,0 0,0 m -0.431,-0.845 c -0.029,0 -0.069,0 -0.122,0.005 -0.013,-0.075 -0.018,-0.137 -0.018,-0.202 0,-0.213 0.076,-0.325 0.223,-0.325 0.133,0 0.304,0.071 0.552,0.227 l 0.045,-0.146 c -0.309,-0.193 -0.547,-0.281 -0.762,-0.281 -0.26,0 -0.402,0.156 -0.402,0.437 0,0.695 0.469,1.299 1.013,1.299 0.267,0 0.418,-0.125 0.418,-0.332 0,-0.389 -0.41,-0.682 -0.947,-0.682 M 0.034,0.43 -0.099,0.54 0.414,1.116 0.791,1.021 Z"
             style="fill:#231f20;fill-opacity:1;fill-rule:nonzero;stroke:none"
             id="path164"
             inkscape:connector-curvature="0" /></g><g
           id="g166"
           transform="translate(265.0752,322.2852)"><path
             d="m 0,0 h -0.124 c 0.005,0.039 0.01,0.071 0.01,0.093 0,0.086 -0.029,0.154 -0.078,0.203 -0.081,0.075 -0.229,0.107 -0.547,0.107 -0.091,0 -0.208,-0.007 -0.312,-0.009 -0.077,-0.35 -0.142,-0.674 -0.219,-1.036 0.079,0 0.16,-0.003 0.238,-0.003 0.469,0 0.562,0.04 0.65,0.316 h 0.112 c -0.067,-0.276 -0.122,-0.545 -0.16,-0.823 h -0.117 c 0.005,0.032 0.008,0.053 0.008,0.073 0,0.068 -0.029,0.137 -0.078,0.176 -0.073,0.056 -0.156,0.066 -0.41,0.066 -0.135,0 -0.171,-0.003 -0.283,-0.008 l -0.054,-0.283 c -0.081,-0.402 -0.111,-0.596 -0.111,-0.708 0,-0.176 0.079,-0.254 0.249,-0.273 l -0.016,-0.093 -0.068,0.008 c -0.033,0 -0.215,0.002 -0.379,0.002 -0.166,0 -0.479,0 -0.533,-0.002 l -0.07,-0.008 0.015,0.093 c 0.127,0.012 0.202,0.051 0.26,0.13 0.067,0.084 0.116,0.202 0.17,0.436 0.06,0.239 0.078,0.366 0.167,0.804 l 0.069,0.332 c 0.067,0.332 0.092,0.537 0.092,0.641 0,0.181 -0.068,0.259 -0.25,0.279 L -1.75,0.608 H 0.121 C 0.077,0.415 0.034,0.195 0,0"
             style="fill:#231f20;fill-opacity:1;fill-rule:nonzero;stroke:none"
             id="path168"
             inkscape:connector-curvature="0" /></g><g
           id="g170"
           transform="translate(266.5093,321.2256)"><path
             d="m 0,0 -0.14,0.01 c 0.008,0.053 0.015,0.112 0.015,0.166 0,0.078 -0.069,0.135 -0.173,0.135 -0.062,0 -0.127,-0.04 -0.181,-0.106 -0.161,-0.178 -0.224,-0.469 -0.317,-0.93 l -0.079,-0.41 c -0.16,-0.01 -0.203,-0.012 -0.365,-0.032 0.04,0.156 0.07,0.278 0.102,0.425 l 0.093,0.395 c 0.064,0.259 0.094,0.425 0.094,0.513 0,0.107 -0.024,0.154 -0.074,0.154 -0.028,0 -0.064,-0.007 -0.108,-0.019 L -1.235,0.264 -1.25,0.391 c 0.205,0.086 0.441,0.154 0.547,0.154 0.043,0 0.068,-0.018 0.075,-0.059 0.014,-0.051 0.023,-0.11 0.024,-0.185 0.19,0.156 0.36,0.246 0.479,0.246 0.078,0 0.178,-0.041 0.276,-0.112 C 0.083,0.281 0.034,0.145 0,0"
             style="fill:#231f20;fill-opacity:1;fill-rule:nonzero;stroke:none"
             id="path172"
             inkscape:connector-curvature="0" /></g><g
           id="g174"
           transform="translate(267.9756,321.5869)"><path
             d="m 0,0 c -0.167,0 -0.337,-0.122 -0.48,-0.356 -0.162,-0.254 -0.273,-0.601 -0.273,-0.821 0,-0.134 0.063,-0.202 0.17,-0.202 0.153,0 0.427,0.139 0.533,0.244 0.058,0.059 0.092,0.147 0.136,0.303 0.065,0.254 0.129,0.498 0.166,0.771 C 0.159,-0.02 0.071,0 0,0 m 0.194,-1.553 c -0.074,0 -0.101,0.047 -0.14,0.254 -0.309,-0.178 -0.537,-0.256 -0.759,-0.256 -0.252,0 -0.4,0.127 -0.4,0.359 0,0.227 0.107,0.54 0.275,0.8 0.227,0.355 0.511,0.58 0.94,0.58 0.191,0 0.362,-0.038 0.543,-0.086 L 0.63,0.037 C 0.481,-0.449 0.371,-0.981 0.371,-1.164 c 0,-0.115 0.025,-0.176 0.077,-0.176 0.033,0 0.121,0.022 0.226,0.061 L 0.687,-1.408 C 0.472,-1.489 0.264,-1.553 0.194,-1.553"
             style="fill:#231f20;fill-opacity:1;fill-rule:nonzero;stroke:none"
             id="path176"
             inkscape:connector-curvature="0" /></g><g
           id="g178"
           transform="translate(270.1758,321.5088)"><path
             d="m 0,0 -0.346,0.01 -0.179,-0.862 c -0.046,-0.222 -0.051,-0.286 -0.051,-0.32 0,-0.06 0.029,-0.09 0.085,-0.09 0.028,0 0.093,0.012 0.194,0.046 l 0.04,0.013 0.013,-0.125 c -0.219,-0.088 -0.444,-0.147 -0.567,-0.147 -0.087,0 -0.141,0.044 -0.141,0.125 0,0.071 0.016,0.176 0.049,0.305 0.039,0.145 0.065,0.272 0.099,0.435 l 0.132,0.62 -0.221,-0.002 0.029,0.137 c 0.285,0.048 0.381,0.275 0.461,0.519 L -0.2,0.703 -0.307,0.21 0.044,0.213 Z"
             style="fill:#231f20;fill-opacity:1;fill-rule:nonzero;stroke:none"
             id="path180"
             inkscape:connector-curvature="0" /></g><g
           id="g182"
           transform="translate(271.4355,321.6016)"><path
             d="m 0,0 c -0.203,0 -0.418,-0.278 -0.522,-0.688 h 0.043 c 0.388,0 0.684,0.205 0.684,0.476 C 0.205,-0.095 0.113,0 0,0 m -0.434,-0.845 c -0.029,0 -0.067,0 -0.123,0.005 -0.009,-0.075 -0.017,-0.137 -0.017,-0.202 0,-0.213 0.076,-0.325 0.222,-0.325 0.137,0 0.305,0.071 0.554,0.227 l 0.044,-0.146 c -0.309,-0.193 -0.543,-0.281 -0.758,-0.281 -0.262,0 -0.406,0.156 -0.406,0.437 0,0.695 0.471,1.299 1.013,1.299 0.266,0 0.423,-0.125 0.423,-0.332 0,-0.389 -0.415,-0.682 -0.952,-0.682"
             style="fill:#231f20;fill-opacity:1;fill-rule:nonzero;stroke:none"
             id="path184"
             inkscape:connector-curvature="0" /></g><g
           id="g186"
           transform="translate(273.6396,321.2256)"><path
             d="m 0,0 -0.138,0.01 c 0.01,0.053 0.011,0.112 0.011,0.166 0,0.078 -0.065,0.135 -0.171,0.135 -0.063,0 -0.127,-0.04 -0.182,-0.106 -0.156,-0.178 -0.22,-0.469 -0.316,-0.93 l -0.08,-0.41 c -0.159,-0.01 -0.2,-0.012 -0.364,-0.032 0.042,0.156 0.071,0.278 0.106,0.425 l 0.092,0.395 c 0.061,0.259 0.09,0.425 0.09,0.513 0,0.107 -0.025,0.154 -0.073,0.154 -0.027,0 -0.064,-0.007 -0.108,-0.019 L -1.235,0.264 -1.25,0.391 c 0.208,0.086 0.442,0.154 0.55,0.154 0.039,0 0.065,-0.018 0.074,-0.059 0.014,-0.051 0.021,-0.11 0.023,-0.185 0.191,0.156 0.357,0.246 0.476,0.246 0.081,0 0.181,-0.041 0.278,-0.112 C 0.086,0.281 0.034,0.145 0,0"
             style="fill:#231f20;fill-opacity:1;fill-rule:nonzero;stroke:none"
             id="path188"
             inkscape:connector-curvature="0" /></g><g
           id="g190"
           transform="translate(275.3179,320.0342)"><path
             d="m 0,0 c -0.083,0 -0.132,0.049 -0.132,0.125 0,0.056 0.016,0.146 0.065,0.354 l 0.042,0.175 c 0.127,0.528 0.156,0.703 0.156,0.777 0,0.061 -0.029,0.097 -0.088,0.097 -0.072,0 -0.189,-0.044 -0.316,-0.117 C -0.409,1.336 -0.508,1.248 -0.56,1.172 -0.596,1.104 -0.625,1.001 -0.677,0.771 -0.746,0.467 -0.787,0.259 -0.82,0.059 -0.982,0.047 -1.025,0.044 -1.19,0.024 c 0.083,0.313 0.147,0.572 0.21,0.863 0.062,0.285 0.088,0.422 0.088,0.498 0,0.097 -0.031,0.143 -0.09,0.143 -0.037,0 -0.107,-0.016 -0.208,-0.053 L -1.197,1.6 c 0.201,0.078 0.42,0.136 0.52,0.136 0.091,0 0.122,-0.056 0.122,-0.254 V 1.45 c 0.321,0.179 0.647,0.286 0.877,0.286 0.137,0 0.192,-0.037 0.192,-0.117 C 0.514,1.528 0.488,1.392 0.4,1.045 0.352,0.857 0.303,0.649 0.288,0.557 0.264,0.435 0.249,0.356 0.249,0.313 c 0,-0.061 0.034,-0.098 0.093,-0.098 0.035,0 0.117,0.017 0.219,0.056 L 0.573,0.146 C 0.352,0.066 0.098,0 0,0"
             style="fill:#231f20;fill-opacity:1;fill-rule:nonzero;stroke:none"
             id="path192"
             inkscape:connector-curvature="0" /></g><g
           id="g194"
           transform="translate(276.6309,320.0391)"><path
             d="m 0,0 c -0.083,0 -0.14,0.044 -0.14,0.12 0,0.039 0.013,0.108 0.035,0.197 0.056,0.23 0.129,0.528 0.17,0.684 0.062,0.225 0.086,0.371 0.086,0.437 0,0.049 -0.024,0.079 -0.071,0.079 -0.036,0 -0.075,-0.013 -0.163,-0.039 l -0.029,-0.01 -0.015,0.117 c 0.231,0.09 0.459,0.146 0.571,0.146 0.066,0 0.09,-0.019 0.09,-0.071 0,-0.054 -0.019,-0.19 -0.097,-0.483 L 0.373,0.933 C 0.269,0.521 0.244,0.376 0.244,0.308 0.244,0.249 0.278,0.21 0.342,0.21 c 0.036,0 0.112,0.018 0.231,0.059 L 0.581,0.151 C 0.358,0.062 0.117,0 0,0 m 0.459,2.148 c -0.13,0 -0.215,0.081 -0.215,0.208 0,0.149 0.11,0.254 0.264,0.254 C 0.632,2.61 0.71,2.534 0.71,2.415 0.71,2.261 0.605,2.148 0.459,2.148"
             style="fill:#231f20;fill-opacity:1;fill-rule:nonzero;stroke:none"
             id="path196"
             inkscape:connector-curvature="0" /></g><g
           id="g198"
           transform="translate(278.7471,321.5088)"><path
             d="m 0,0 -0.349,0.01 -0.178,-0.862 c -0.046,-0.222 -0.051,-0.286 -0.051,-0.32 0,-0.06 0.031,-0.09 0.085,-0.09 0.032,0 0.093,0.012 0.193,0.046 l 0.044,0.013 0.01,-0.125 c -0.215,-0.088 -0.444,-0.147 -0.567,-0.147 -0.087,0 -0.141,0.044 -0.141,0.125 0,0.071 0.015,0.176 0.049,0.305 0.039,0.145 0.068,0.272 0.099,0.435 l 0.132,0.62 -0.224,-0.002 0.032,0.137 c 0.283,0.048 0.381,0.275 0.461,0.519 l 0.203,0.039 -0.106,-0.493 0.35,0.003 z"
             style="fill:#231f20;fill-opacity:1;fill-rule:nonzero;stroke:none"
             id="path200"
             inkscape:connector-curvature="0" /></g><g
           id="g202"
           transform="translate(280.0049,321.6016)"><path
             d="m 0,0 c -0.2,0 -0.415,-0.278 -0.522,-0.688 h 0.043 c 0.391,0 0.684,0.205 0.684,0.476 C 0.205,-0.095 0.112,0 0,0 m -0.433,-0.845 c -0.031,0 -0.068,0 -0.122,0.005 -0.011,-0.075 -0.019,-0.137 -0.019,-0.202 0,-0.213 0.078,-0.325 0.224,-0.325 0.135,0 0.303,0.071 0.552,0.227 l 0.047,-0.146 c -0.312,-0.193 -0.547,-0.281 -0.762,-0.281 -0.261,0 -0.405,0.156 -0.405,0.437 0,0.695 0.471,1.299 1.016,1.299 0.263,0 0.42,-0.125 0.42,-0.332 0,-0.389 -0.414,-0.682 -0.951,-0.682 M 0.034,0.43 -0.101,0.54 0.412,1.116 0.791,1.021 Z"
             style="fill:#231f20;fill-opacity:1;fill-rule:nonzero;stroke:none"
             id="path204"
             inkscape:connector-curvature="0" /></g><g
           id="g206"
           transform="translate(260.3081,320.8203)"><path
             d="M 0,0 C 0.28,0 0.509,0.228 0.509,0.511 0.509,0.794 0.28,1.019 0,1.019 -0.283,1.019 -0.513,0.794 -0.513,0.511 -0.513,0.228 -0.283,0 0,0"
             style="fill:#231f20;fill-opacity:1;fill-rule:nonzero;stroke:none"
             id="path208"
             inkscape:connector-curvature="0" /></g><g
           id="g210"
           transform="translate(242.7705,320.8203)"><path
             d="M 0,0 C 0.282,0 0.511,0.228 0.511,0.511 0.511,0.794 0.282,1.019 0,1.019 -0.28,1.019 -0.509,0.794 -0.509,0.511 -0.509,0.228 -0.28,0 0,0"
             style="fill:#231f20;fill-opacity:1;fill-rule:nonzero;stroke:none"
             id="path212"
             inkscape:connector-curvature="0" /></g><g
           id="g214"
           transform="translate(228.062,318.1787)"><path
             d="M 0,0 H 52.49"
             style="fill:none;stroke:#231f20;stroke-width:0.161;stroke-linecap:butt;stroke-linejoin:miter;stroke-miterlimit:4;stroke-dasharray:none;stroke-opacity:1"
             id="path216"
             inkscape:connector-curvature="0" /></g></g></g><g
       id="g218"><g
         id="g220"
         clip-path="url(#clipPath224)"><g
           id="g226"
           transform="translate(243.814,332.0049)"><path
             d="m 0,0 c -0.477,-0.144 -0.965,-0.163 -1.405,-0.403 1.045,0.039 2.085,-0.121 3.09,-0.444 0.361,-0.117 0.683,-0.279 1.002,-0.478 0.161,-0.117 0.243,-0.244 0.4,-0.322 0.204,-0.121 0.484,-0.121 0.687,-0.042 h 0.201 c 0.6,0.166 1.241,0.325 1.642,0.764 0,-0.039 0.042,-0.039 0.081,-0.039 -0.12,-0.322 -0.12,-0.683 -0.361,-0.967 0,-0.039 -0.039,-0.113 0.04,-0.156 h 0.082 c -0.042,0 -0.082,0 -0.082,-0.042 0,-0.078 0.121,0 0.16,-0.078 -0.2,-0.046 -0.4,-0.085 -0.521,-0.244 0,-0.039 0.082,-0.039 0.121,-0.039 -0.083,-0.078 -0.2,-0.039 -0.24,-0.12 0,0 0.04,-0.039 0.079,-0.039 -0.039,0 -0.079,0 -0.079,-0.039 V -2.81 c -0.122,0 -0.161,-0.078 -0.242,-0.12 0.159,-0.124 0.282,0 0.443,0 -0.443,-0.163 -0.805,-0.403 -1.245,-0.52 -0.079,0 0,-0.121 -0.079,-0.121 0.119,-0.081 0.201,0.039 0.319,0.039 -0.561,-0.322 -1.124,-0.602 -1.725,-0.967 0,0 -0.081,-0.078 -0.081,-0.156 H 2.129 C 2.046,-4.697 2.086,-4.817 2.007,-4.899 c 0.2,-0.118 0.441,0.163 0.561,0 0.041,0 -0.081,-0.036 -0.159,-0.036 -0.041,0 -0.041,-0.082 -0.08,-0.082 H 2.207 c -0.078,-0.078 -0.161,-0.12 -0.161,-0.245 -0.078,0 -0.16,0 -0.2,-0.08 0.883,0.119 1.806,0.041 2.648,0.486 0.643,0.318 1.245,0.761 1.766,1.324 0,0 0.04,-0.039 0.04,-0.078 C 6.178,-4.014 5.939,-4.297 5.617,-4.538 5.377,-4.655 5.216,-4.856 5.016,-4.935 4.897,-5.017 4.775,-5.095 4.655,-5.176 3.17,-5.701 1.403,-5.459 0.122,-6.463 c 0,0.044 -0.042,0.044 -0.083,0.044 -0.078,-0.083 -0.2,-0.124 -0.238,-0.202 0,-0.086 0.121,-0.039 0.16,-0.039 0.239,0.158 0.48,0.275 0.762,0.358 -0.321,-0.161 -0.643,-0.405 -0.962,-0.483 -0.684,-0.119 -1.327,-0.078 -2.007,0 0.4,0.242 0.802,0.522 1.245,0.762 -0.122,0.078 -0.243,0.078 -0.361,0.078 -0.204,-0.032 -0.443,0.086 -0.645,0 -0.6,-0.274 -1.405,-0.196 -1.723,-0.84 -4.014,-0.078 -8.067,0 -12.081,0 0.08,4.376 0,8.709 0.123,13.084 0.039,1.565 -0.043,3.135 -0.043,4.697 0.057,-0.046 24.037,0.039 24.037,0.039 C 7.827,10.791 7.266,10.593 6.904,10.149 6.582,9.749 6.26,9.349 6.139,8.867 5.617,8.545 5.298,8.06 5.016,7.581 4.655,6.901 4.132,6.299 4.214,5.534 4.293,4.896 4.455,4.29 4.575,3.613 4.616,3.369 4.655,3.171 4.736,2.93 4.814,2.686 4.736,2.405 4.855,2.207 4.937,2.083 4.897,1.924 5.054,1.843 V 1.687 C 5.098,1.644 5.098,1.604 5.176,1.604 V 1.438 C 5.498,1.042 5.898,0.677 6.099,0.237 6.178,0 5.698,0.12 5.498,0.198 5.098,0.397 4.855,0.723 4.536,1.003 4.536,1.003 4.494,0.964 4.494,0.921 4.655,0.645 5.259,0.28 4.937,0.081 4.775,0 4.575,0.198 4.414,0.042 c -0.039,-0.081 0,-0.166 0,-0.244 C 4.171,-0.039 3.932,-0.124 3.691,-0.039 3.532,0 3.491,0.319 3.291,0.319 2.769,0.439 2.287,0.56 1.764,0.599 1.045,0.677 0.361,0.804 -0.36,0.677 -1.001,0.645 -1.484,0.159 -1.885,-0.322 v -0.12 c 0.279,-0.039 0.401,0.201 0.641,0.279 0.401,0.078 0.762,0.244 1.166,0.322 0.6,0.121 1.162,0.28 1.724,0.238 0.118,0 0.279,0.042 0.4,0 C 1.323,0.439 0.68,0.198 0,0"
             style="fill:#2e49a3;fill-opacity:1;fill-rule:nonzero;stroke:none"
             id="path228"
             inkscape:connector-curvature="0" /></g><g
           id="g230"
           transform="translate(241.5679,330.0742)"><path
             d="m 0,0 c -0.122,-0.029 -0.243,-0.113 -0.2,-0.198 0.118,-0.163 0.361,0.042 0.561,0.042 -0.242,-0.078 -0.522,-0.042 -0.722,-0.244 0.161,-0.121 0.322,-0.039 0.48,-0.039 0,-0.082 0.081,-0.082 0.12,-0.121 -0.2,-0.078 -0.36,-0.241 -0.4,-0.358 -0.082,-0.205 -0.282,-0.283 -0.401,-0.442 v -0.12 c -0.403,-0.366 -0.843,-0.603 -1.165,-1.049 0.042,0 0.042,-0.039 0.042,-0.078 -0.081,-0.118 -0.242,-0.16 -0.283,-0.28 0,-0.039 0,-0.082 0.041,-0.082 0.482,0.163 0.843,0.525 1.284,0.684 0.321,0.082 0.561,0.28 0.843,0.361 0.2,0.039 0.44,0.124 0.641,0.163 0,-0.039 0,-0.085 0.043,-0.085 H 1.203 C 1.164,-1.924 1.002,-1.885 1.042,-1.924 c 0.122,-0.12 0.361,-0.081 0.521,0 0.122,0.078 0.24,0.078 0.401,0.078 0.043,0 0.043,0.085 0.043,0.124 0.118,-0.039 0.2,-0.039 0.319,-0.039 0.965,0.198 1.888,0.401 2.768,0.843 -1.041,0.805 -2.368,1.081 -3.61,1.442 0.119,0 0.24,-0.117 0.362,0 -0.2,0.164 -0.443,0.081 -0.643,0.203 0.042,0 0.12,-0.039 0.159,0.035 C 1.042,0.928 0.723,0.928 0.4,1.006 0.601,1.042 0.723,1.208 0.723,1.406 0.723,1.449 0.64,1.449 0.601,1.449 0.119,1.208 -0.2,0.762 -0.404,0.241 -0.121,0.082 0.2,0.205 0.48,0.163 0.361,0.043 0.161,0.043 0,0"
             style="fill:#ffffff;fill-opacity:1;fill-rule:nonzero;stroke:none"
             id="path232"
             inkscape:connector-curvature="0" /></g><g
           id="g234"
           transform="translate(239.9224,331.6406)"><path
             d="m 0,0 c -0.409,-0.434 -0.843,-0.84 -1.366,-1.12 -0.361,-0.723 -0.761,-1.364 -1.284,-2.048 0,-0.039 0.039,-0.078 0.039,-0.078 0.965,1.081 1.849,2.002 3.091,2.764 0.082,0.039 -0.119,-0.118 0.042,-0.079 0.52,0.118 0.681,0.642 0.923,1.045 0.319,0.525 0.881,0.723 1.284,1.16 0,-0.037 0,-0.076 -0.042,-0.118 C 2.729,1.484 2.769,1.484 2.809,1.484 2.969,1.607 3.17,1.568 3.291,1.725 2.969,1.849 2.568,1.891 2.246,1.764 1.403,1.367 0.68,0.723 0,0"
             style="fill:#ffffff;fill-opacity:1;fill-rule:nonzero;stroke:none"
             id="path236"
             inkscape:connector-curvature="0" /></g><g
           id="g238"
           transform="translate(240.5229,330.8789)"><path
             d="m 0,0 c 0.036,0.074 0.08,0.081 0.122,0.162 0,0.039 0,0.075 -0.042,0.075 C -0.078,0.201 -0.2,0.042 -0.239,-0.117 -0.239,-0.16 -0.2,-0.16 -0.16,-0.16 -0.078,-0.117 -0.039,-0.078 0,0"
             style="fill:#ffffff;fill-opacity:1;fill-rule:nonzero;stroke:none"
             id="path240"
             inkscape:connector-curvature="0" /></g><g
           id="g242"
           transform="translate(243.7358,327.832)"><path
             d="m 0,0 c -0.161,-0.082 -0.444,-0.082 -0.483,-0.287 -0.039,-0.078 0.118,-0.039 0.201,-0.039 0.282,0.124 0.601,0 0.84,0.244 C 0.48,0 0.358,-0.043 0.278,0.078 0.2,0.12 0.078,0.039 0,0"
             style="fill:#ffffff;fill-opacity:1;fill-rule:nonzero;stroke:none"
             id="path244"
             inkscape:connector-curvature="0" /></g><g
           id="g246"
           transform="translate(248.1074,325.6641)"><path
             d="M 0,0 C 0.248,0.054 0.482,0.2 0.723,0.278 V 0.2 c 0.6,0.242 1.043,0.762 1.645,0.965 0.043,0 0.121,-0.086 0.2,-0.047 0.362,0.323 0.762,0.685 1.285,0.607 0,-0.039 0,-0.081 0.039,-0.081 0.042,0 0.081,0 0.081,0.042 C 3.812,1.565 3.652,1.441 3.49,1.324 3.451,1.282 3.49,1.246 3.534,1.246 3.734,1.324 3.853,1.484 4.056,1.565 4.012,1.523 4.012,1.441 3.973,1.406 3.211,0.84 2.65,0.2 2.046,-0.485 H 0.804 c 0,0.041 0,0.08 -0.044,0.08 -1.401,-0.117 -2.767,-0.08 -4.17,-0.08 0.801,0.119 1.603,0.363 2.408,0.441 0.318,0 0.641,-0.034 1.002,0.044"
             style="fill:#2e49a3;fill-opacity:1;fill-rule:nonzero;stroke:none"
             id="path248"
             inkscape:connector-curvature="0" /></g><g
           id="g250"
           transform="translate(263.9165,327.708)"><path
             d="M 0,0 C 0.099,0.293 0.202,0.605 0.044,0.886 -0.199,1.243 0.283,1.367 0.441,1.608 0.563,1.807 0.363,1.927 0.324,2.132 0.283,2.21 0.122,2.168 0.044,2.288 0.324,2.409 0.763,2.649 0.563,3.011 0.441,3.213 0.244,3.535 0.483,3.737 0.763,3.894 1.206,3.854 1.325,4.134 1.528,4.616 1.085,5.02 0.845,5.417 0.723,5.657 0.563,5.823 0.402,6.062 0.244,6.341 0.044,6.585 -0.039,6.904 -0.16,7.227 0,7.507 0,7.822 c 0.044,0.606 -0.117,1.208 -0.278,1.81 -0.122,0.28 -0.16,0.602 -0.282,0.883 -0.041,0.162 -0.08,0.318 -0.2,0.484 -0.039,0.078 -0.039,0.199 0,0.277 0.159,0.123 0.322,0.241 0.482,0.404 0.118,0.198 0.039,0.481 -0.16,0.598 -0.285,0.124 -0.241,-0.279 -0.444,-0.357 h -0.119 c -0.042,0.12 0.041,0.159 0.119,0.24 0,0.039 0,0.117 -0.039,0.117 -0.162,0 -0.323,0.046 -0.362,0.124 -0.402,0.56 -0.963,0.843 -1.564,1.084 0.161,-0.042 0.323,-0.081 0.484,-0.081 0.278,-0.039 0.6,-0.039 0.841,0.081 0.2,0.078 0.239,0.401 0.321,0.599 0.078,0.163 -0.043,0.4 -0.121,0.524 -0.2,0.32 -0.522,0.521 -0.845,0.684 H 16.855 C 16.896,9.355 16.816,3.408 16.774,-2.529 c -7.502,-0.117 -15.007,0 -22.51,0 0.239,0.802 0.682,1.564 1.405,2.09 0.161,0.081 0.358,0.12 0.561,0.159 0.684,0 1.364,-0.199 2.046,-0.28 0.08,0 0.161,-0.043 0.241,-0.078 0.239,-0.043 0.523,-0.043 0.76,0.035 C -0.438,-0.521 -0.117,-0.358 0,0"
             style="fill:#ed1c24;fill-opacity:1;fill-rule:nonzero;stroke:none"
             id="path252"
             inkscape:connector-curvature="0" /></g><g
           id="g254"
           transform="translate(262.3945,335.6182)"><path
             d="m 0,0 c -0.239,0.052 -0.444,0 -0.684,0 -0.318,-0.088 -0.602,-0.124 -0.88,-0.244 0.239,0.156 0.479,0.325 0.762,0.403 0.2,0.039 0.4,0.16 0.6,0.16 0.241,0.039 0.48,0.118 0.681,0.039 C 0.682,0.276 1.001,0.276 1.043,0.159 1.122,-0.088 0.921,-0.325 0.682,-0.485 0.64,-0.563 0.799,-0.605 0.799,-0.684 0.762,-0.769 0.64,-0.808 0.562,-0.808 0.479,-0.85 0.399,-0.964 0.321,-1.045 c 0.078,0 0,-0.12 0.078,-0.12 -0.16,-0.202 0.08,-0.606 -0.16,-0.684 -0.28,-0.078 -0.602,-0.078 -0.923,0 0.16,0.039 0.362,-0.039 0.482,0.12 v 0.16 c 0,0.039 -0.039,0.039 -0.081,0.039 -0.039,-0.039 -0.08,-0.039 -0.08,-0.039 0,0.085 -0.081,0.163 -0.12,0.163 -0.241,-0.039 -0.441,0.081 -0.602,0.241 0.122,0.035 0.244,0.078 0.361,0.035 0.122,0 0.079,0.202 0.2,0.28 h 0.122 c 0.239,0.329 0.723,0.408 0.801,0.726 C 0.399,-0.046 0.16,-0.046 0,0"
             style="fill:#918f90;fill-opacity:1;fill-rule:nonzero;stroke:none"
             id="path256"
             inkscape:connector-curvature="0" /></g></g></g><g
       id="g258"><g
         id="g260"
         clip-path="url(#clipPath264)"><g
           id="g266"
           transform="translate(341.8867,332.9004)"><path
             d="m 0,0 c -0.077,-0.033 -0.352,-0.114 -0.328,-0.121 -0.024,0.007 -0.039,0.01 -0.039,0.033 0.029,0.104 -0.453,-0.346 -0.478,-0.176 -0.014,0.033 0.025,-0.004 -0.044,0.013 0.176,-0.022 -1.08,-0.423 -1.08,-0.397 -0.062,0.127 -0.049,0.257 0.031,0.377 0.1,0.251 -0.215,0.603 -0.096,0.501 -0.087,0.085 -0.087,0.164 -0.003,0.254 0.055,-0.039 0.003,0.01 0.032,0.121 0.036,0.023 -0.067,0.16 0.026,0.114 C -1.9,0.742 -1.77,1.182 -1.864,1.5 -2.072,1.979 -1.982,5.445 -1.878,5.313 -1.841,5.553 -2.063,5.729 -1.956,5.901 -1.949,6.084 -2.122,6.094 -2.1,6.214 -2.192,6.582 -2.707,6.572 -2.651,6.65 -2.922,6.588 -3.926,4.98 -3.936,4.938 -3.873,5 -4.614,3.887 -4.602,3.883 -4.683,3.896 -4.774,3.756 -4.791,3.59 -4.8,3.57 -5.212,3.063 -5.166,3.16 -5.31,2.92 -5.476,2.695 -5.607,2.457 -5.505,2.52 -5.788,2.256 -5.744,2.266 -5.739,2.295 -6.066,1.484 -6.069,1.553 -6.038,1.663 -6.47,1.155 -6.516,1.152 -6.604,0.781 -7.976,1.686 -8.001,2.096 -7.998,2.112 -8.03,2.48 -8.215,2.525 c 0.08,-0.068 -0.974,0.889 -0.894,0.815 -0.552,0.732 -0.986,0.713 -1.801,1.429 0.005,0.006 -0.191,0.461 -0.33,0.622 -0.308,-0.076 -0.725,-0.557 -0.637,-0.674 -0.132,-0.053 -0.156,0.11 -0.208,0.169 -0.042,-0.183 0.135,-1.224 0.135,-1.224 -0.02,-0.146 0.072,-0.922 0.104,-0.808 l 0.061,-0.065 c 0,-0.01 -0.093,-0.113 0.02,-0.191 0.126,-0.219 0.38,-0.375 0.288,-0.684 -0.11,-0.056 0.015,-0.463 -0.004,-0.329 -0.125,-0.638 1.374,-1.836 1.167,-2.692 -0.096,-0.075 0.287,-0.528 0.207,-0.508 -0.129,-0.153 -0.516,-0.244 -0.787,-0.319 -0.08,-0.048 -0.163,-0.004 -0.246,0.02 -0.083,0.016 -0.762,0.293 -0.955,0.162 -0.007,-0.016 -0.563,0.131 -0.566,0.107 0.099,0.112 -0.637,-0.152 -0.526,0.085 0.047,0.183 -0.641,-0.198 -0.472,-0.097 -0.01,-0.003 -0.301,-0.169 -0.293,-0.12 0.024,0.061 -0.264,0.006 -0.196,-0.01 -0.043,0.013 -0.336,0.094 -0.293,0.068 -0.163,0.104 -0.198,-0.039 -0.388,0.055 -0.012,-0.025 -0.232,-0.052 -0.271,-0.045 -0.014,0.006 -0.43,-0.01 -0.43,0 0.032,0.013 -0.366,-0.117 -0.395,-0.01 0.015,0.016 -0.313,-0.234 -0.408,-0.078 0.042,0.127 -0.371,-0.107 -0.437,-0.114 -0.049,0.007 -0.258,0.1 -0.219,0.036 -0.032,-0.02 -0.291,-0.336 -0.291,-0.336 0.047,-0.016 1.419,-1.045 1.204,-0.885 0,0 0.148,-0.121 0.508,-0.336 -0.057,-0.152 0.531,-0.006 0.434,-0.338 0.546,0.323 1.664,-1.185 2.056,-0.941 0.051,0 0.217,-0.267 0.272,-0.247 -0.087,0.078 0.285,-0.12 0.167,-0.114 0.051,-0.059 0.032,-0.039 0.21,-0.218 0.447,0.017 0.637,-0.352 0.786,-0.476 0.491,-0.948 -1.545,-1.856 -1.723,-2.335 -0.005,-0.021 -0.005,-0.044 -0.034,-0.034 0.024,-0.024 -0.285,-0.132 -0.321,-0.28 l -0.304,-0.398 c -0.272,0.078 -0.962,-1.016 -1.242,-1.158 l -0.664,-0.307 c 0,0 -0.094,-0.09 -0.156,-0.186 -0.06,-0.098 -0.151,-0.205 -0.219,-0.229 -0.058,-0.02 -0.471,-0.43 -0.471,-0.43 l -0.103,-0.19 0.168,-0.074 c 0,0 -0.107,-0.127 -0.122,-0.18 -0.024,-0.049 -0.085,-0.186 0.045,-0.21 0.134,-0.035 0.21,-0.035 0.239,-0.098 0.029,-0.063 0.564,-0.103 0.608,-0.095 0.039,0.012 0.305,0.134 0.305,0.134 0.258,0.081 1.099,0.068 1.196,-0.017 -0.019,0.002 1.221,0.305 1.254,0.403 0.041,-0.005 0.763,0.254 0.763,0.254 0.197,0.092 0.649,0.166 0.795,0.332 -0.139,-0.03 0.581,0.219 0.784,0.122 0.064,-0.036 1.799,0.322 1.859,0.55 0.138,-0.018 0.155,-0.15 0.163,-0.157 -0.039,-0.227 -0.005,-0.867 -0.09,-0.976 0.002,0.095 -0.244,-0.164 -0.161,-0.301 0.176,-0.054 0.168,0.008 0.275,-0.249 -0.051,0.117 0.012,-0.513 -0.002,-0.739 0.007,-0.12 0.2,-0.526 -0.122,-0.684 0,0 -0.181,-0.379 -0.19,-0.371 0.024,0.188 0.024,-0.096 -0.01,-0.039 0.161,0.075 0.112,-0.423 0.077,-0.481 0.03,0.073 -0.085,-0.098 -0.097,-0.04 -0.263,-0.512 0.289,-0.571 -0.029,-0.629 0.137,-0.039 0.207,-0.723 0.2,-0.621 0.03,-0.229 0.01,-0.454 -0.059,-0.67 -0.046,0.143 -0.124,-0.262 -0.1,-0.372 0.054,-0.256 -0.073,-0.74 0.169,-0.852 -0.037,0.102 0.186,-0.234 0.186,-0.234 0.573,-0.242 0.713,0.503 0.966,0.625 0.088,0.019 0.186,0.364 0.269,0.336 0.01,0.028 0.353,1.67 0.617,1.587 -0.012,0 0.443,0.674 0.537,0.96 -0.005,-0.019 -0.217,0.237 0.238,0.432 0.221,-0.073 0.324,0.522 0.38,0.859 0.015,0.194 0.152,0.098 0.173,0.308 -0.005,-0.059 0.391,0.605 0.457,0.874 0.066,0 0.076,0.301 0.119,0.262 -0.122,0.104 0.11,0.231 0.079,0.324 0.042,0.164 0.029,0.312 0.101,0.298 0.066,0.315 0.265,0.179 0.31,0.151 0.094,-0.054 0.227,0.028 0.241,-0.21 -0.092,-0.117 0.299,-0.229 0.264,-0.303 -0.011,0.054 1.852,-2.138 2.365,-2.563 0.024,-0.02 1.469,-1.447 1.404,-1.436 0.162,-0.083 0.293,-0.371 0.305,-0.346 -0.061,-0.095 0.277,-0.249 0.336,-0.249 0.218,-0.381 0.228,-0.303 0.345,-0.237 0.039,-0.173 0.33,-0.09 0.436,-0.144 -0.033,0.083 0.226,0.156 0.17,0.244 0.078,-0.024 -0.052,0.311 0.019,0.272 -0.091,0.158 -0.638,0.885 -0.602,1.017 0.013,0.044 0.081,0.029 0.12,0.02 -0.009,0.044 -0.071,0.088 -0.107,0.117 0.098,0.005 0.123,0.056 0.068,0.161 -0.101,-0.049 -0.234,0.571 -0.15,0.657 0.034,0.156 -0.445,2.102 -0.673,2.287 0.016,0.074 -0.078,0.498 -0.095,0.537 -0.378,0.235 -0.067,0.704 -0.326,0.789 -0.062,-0.12 -0.332,0.325 -0.371,0.691 -0.123,0.229 0,0.781 -0.084,0.696 -0.074,0.085 0.39,0.28 0.505,0.031 0.982,-0.371 2.854,0.243 3.531,-0.283 0.16,0.303 0.518,0.069 0.329,0.127 -0.029,-0.039 0.033,-0.054 0.078,-0.068 -0.091,0.017 0.658,0.068 0.772,0.005 -0.289,0.071 0.423,0.024 0.396,0.034 -0.254,0.057 0.506,-0.088 1.316,0.41 0.29,0.093 0.235,0.244 0.358,0.522 -0.049,-0.239 0.075,0.235 -0.17,0.386 -1.435,0.36 -2.573,1.414 -4,1.788 -0.553,0.118 -1.448,1.469 -1.923,1.384 0.864,0.989 1.702,1.97 2.593,2.8 0.174,0.172 1.961,2.1 1.961,2.076 C 4.948,0.719 5.049,1.038 5.04,0.901 5.044,0.943 5.023,1.006 4.975,1.074 4.971,1.051 4.304,1.572 4.129,1.25 4.363,1.104 3.652,1.051 3.478,1.012 3.425,0.979 3.379,0.992 3.34,0.999 3.161,1.045 2.928,0.843 2.81,0.816 2.547,1.051 1.893,0.615 1.596,0.514 1.621,0.53 1.469,0.498 1.235,0.55 1.138,0.387 1.14,0.433 1.166,0.449 1.078,0.4 1.006,0.322 0.658,0.211 0.697,0.191 0.435,0.084 0.336,0.107 0.346,0.064 0.297,-0.059 0.144,-0.033 0.027,0 0.043,0.042 0,0"
             style="fill:#ee2722;fill-opacity:1;fill-rule:nonzero;stroke:none"
             id="path268"
             inkscape:connector-curvature="0" /></g><g
           id="g270"
           transform="translate(354.8848,333.707)"><path
             d="m 0,0 h -3.121 l 2.728,3.627 H 3.314 L 6.049,0 H 2.927 L 1.463,1.953 0,0 m 3.532,-14.015 h -4.144 v 12.647 h 4.144 z"
             style="fill:#ee2722;fill-opacity:1;fill-rule:nonzero;stroke:none"
             id="path272"
             inkscape:connector-curvature="0" /></g><path
           d="m 360.439,319.692 h 4.147 v 17.403 h -4.147 z"
           style="fill:#ee2722;fill-opacity:1;fill-rule:nonzero;stroke:none"
           id="path274"
           inkscape:connector-curvature="0" /><g
           id="g276"
           transform="translate(369.8301,325.0049)"><path
             d="m 0,0 c 0.072,-1.729 1.074,-2.876 2.833,-2.876 0.991,0 1.973,0.464 2.363,1.397 h 3.879 c -0.754,-2.93 -3.466,-4.195 -6.298,-4.195 -4.121,0 -6.924,2.481 -6.924,6.724 0,3.873 3.096,6.653 6.829,6.653 C 7.22,7.703 9.488,4.288 9.293,0 H 0 M 5.146,2.313 C 5.072,3.735 4.072,4.903 2.682,4.903 1.221,4.903 0.244,3.855 0,2.313 h 5.146"
             style="fill:#ee2722;fill-opacity:1;fill-rule:nonzero;stroke:none"
             id="path278"
             inkscape:connector-curvature="0" /></g><g
           id="g280"
           transform="translate(389.1895,319.6924)"><path
             d="m 0,0 h -1.632 v 1.343 h -0.039 c -0.539,-1.094 -1.808,-1.572 -3.173,-1.572 -3.06,0 -4.578,2.424 -4.578,5.224 0,2.806 1.501,5.169 4.539,5.169 1.018,0 2.48,-0.378 3.212,-1.556 h 0.039 v 5.111 H 0 L 0,0 m -4.619,1.216 c 2.194,0 3.043,1.878 3.043,3.74 0,1.963 -0.888,3.766 -3.134,3.766 -2.231,0 -2.985,-1.901 -2.985,-3.839 0,-1.865 0.966,-3.667 3.076,-3.667"
             style="fill:#ee2722;fill-opacity:1;fill-rule:nonzero;stroke:none"
             id="path282"
             inkscape:connector-curvature="0" /></g><g
           id="g284"
           transform="translate(399.2275,322.8447)"><path
             d="m 0,0 c -0.442,-2.19 -2.015,-3.382 -4.25,-3.382 -3.172,0 -4.676,2.191 -4.767,5.225 0,2.981 1.957,5.169 4.671,5.169 3.517,0 4.598,-3.284 4.5,-5.687 h -7.441 c -0.059,-1.735 0.927,-3.262 3.095,-3.262 1.347,0 2.288,0.655 2.579,1.937 L 0,0 m -1.581,2.766 c -0.072,1.557 -1.244,2.803 -2.862,2.803 -1.711,0 -2.734,-1.285 -2.844,-2.803 h 5.706"
             style="fill:#ee2722;fill-opacity:1;fill-rule:nonzero;stroke:none"
             id="path286"
             inkscape:connector-curvature="0" /></g><g
           id="g288"
           transform="translate(400.4453,337.0957)"><path
             d="M 0,0 H 12.825 V -3.633 H 4.531 v -3.555 h 7.171 v -3.511 H 4.531 v -6.704 H 0 Z"
             style="fill:#ee2722;fill-opacity:1;fill-rule:nonzero;stroke:none"
             id="path290"
             inkscape:connector-curvature="0" /></g><g
           id="g292"
           transform="translate(414.1006,332.3398)"><path
             d="M 0,0 H 4.024 V -2.213 H 4.07 c 0.615,1.605 2.024,2.464 3.809,2.464 0.314,0 0.654,-0.036 0.975,-0.105 v -3.775 c -0.537,0.15 -1.022,0.247 -1.588,0.247 -2.05,0 -3.125,-1.419 -3.125,-3.001 v -6.264 H 0 L 0,0"
             style="fill:#ee2722;fill-opacity:1;fill-rule:nonzero;stroke:none"
             id="path294"
             inkscape:connector-curvature="0" /></g><g
           id="g296"
           transform="translate(422.9551,328.4434)"><path
             d="m 0,0 c 0.071,1.654 0.853,2.729 1.974,3.389 1.122,0.629 2.581,0.876 4.025,0.876 2.999,0 5.904,-0.661 5.904,-4.242 v -5.532 c 0,-1.069 0,-2.238 0.489,-3.242 H 8.216 C 8.07,-8.355 8.021,-7.97 7.972,-7.56 6.903,-8.678 5.315,-9.112 3.802,-9.112 c -2.414,0 -4.317,1.216 -4.317,3.826 0,4.118 4.49,3.796 7.365,4.382 0.71,0.146 1.1,0.39 1.1,1.172 0,0.95 -1.144,1.314 -2,1.314 C 4.799,1.582 4.075,1.068 3.877,0 H 0 m 5.364,-6.556 c 1.973,0 2.633,1.12 2.535,3.728 C 7.317,-3.194 6.243,-3.272 5.341,-3.509 4.415,-3.724 3.634,-4.114 3.634,-5.118 c 0,-1.026 0.801,-1.438 1.73,-1.438"
             style="fill:#ee2722;fill-opacity:1;fill-rule:nonzero;stroke:none"
             id="path298"
             inkscape:connector-curvature="0" /></g><g
           id="g300"
           transform="translate(436.3672,332.3398)"><path
             d="m 0,0 h 4.025 v -1.729 h 0.049 c 0.76,1.293 2.464,2.097 3.979,2.097 4.219,0 4.561,-3.069 4.561,-4.902 v -8.113 H 8.467 v 6.118 c 0,1.728 0.195,3.482 -2.073,3.482 -1.56,0 -2.244,-1.311 -2.244,-2.701 v -6.899 H 0 V 0"
             style="fill:#ee2722;fill-opacity:1;fill-rule:nonzero;stroke:none"
             id="path302"
             inkscape:connector-curvature="0" /></g><g
           id="g304"
           transform="translate(458.7646,327.708)"><path
             d="m 0,0 c -0.024,1.074 -0.977,1.833 -2.026,1.833 -2.318,0 -2.686,-1.977 -2.686,-3.73 0,-1.636 0.713,-3.316 2.466,-3.316 1.44,0 2.178,0.83 2.365,2.166 h 4.027 c -0.365,-3.382 -2.999,-5.33 -6.368,-5.33 -3.803,0 -6.638,2.607 -6.638,6.48 C -8.86,2.126 -6.297,5 -2.222,5 0.925,5 3.732,3.34 4.028,0 H 0"
             style="fill:#ee2722;fill-opacity:1;fill-rule:nonzero;stroke:none"
             id="path306"
             inkscape:connector-curvature="0" /></g><g
           id="g308"
           transform="translate(467.3018,325.0049)"><path
             d="m 0,0 c 0.071,-1.729 1.072,-2.876 2.83,-2.876 0.999,0 1.978,0.464 2.363,1.397 h 3.882 c -0.76,-2.93 -3.467,-4.195 -6.297,-4.195 -4.121,0 -6.925,2.481 -6.925,6.724 0,3.873 3.097,6.653 6.826,6.653 C 7.22,7.703 9.487,4.288 9.295,0 H 0 M 5.147,2.313 C 5.071,3.735 4.073,4.903 2.679,4.903 1.216,4.903 0.244,3.855 0,2.313 h 5.147"
             style="fill:#ee2722;fill-opacity:1;fill-rule:nonzero;stroke:none"
             id="path310"
             inkscape:connector-curvature="0" /></g><g
           id="g312"
           transform="translate(251.4263,385.1543)"><path
             d="m 0,0 c -2.446,0 -4.365,-1.411 -4.365,-4.248 0,-2.836 1.919,-4.243 4.365,-4.243 2.446,0 4.365,1.407 4.365,4.243 C 4.365,-1.411 2.446,0 0,0 m 0,1.38 c 4.307,0 5.957,-2.879 5.957,-5.628 0,-2.744 -1.65,-5.625 -5.957,-5.625 -4.307,0 -5.957,2.881 -5.957,5.625 0,2.749 1.65,5.628 5.957,5.628"
             style="fill:#918f90;fill-opacity:1;fill-rule:nonzero;stroke:none"
             id="path314"
             inkscape:connector-curvature="0" /></g><g
           id="g316"
           transform="translate(258.7896,383.4121)"><path
             d="M 0,0 H 1.499 V -1.437 H 1.53 c 0.706,1.242 1.712,1.709 2.701,1.709 0.375,0 0.57,-0.018 0.857,-0.092 v -1.617 c -0.376,0.088 -0.661,0.148 -1.067,0.148 -1.485,0 -2.522,-0.87 -2.522,-2.579 v -3.993 l -1.499,0 z"
             style="fill:#918f90;fill-opacity:1;fill-rule:nonzero;stroke:none"
             id="path318"
             inkscape:connector-curvature="0" /></g><g
           id="g320"
           transform="translate(268.9604,382.332)"><path
             d="m 0,0 c -1.832,0 -2.896,-1.201 -2.896,-2.817 0,-1.621 1.064,-2.779 2.896,-2.779 1.816,0 2.895,1.158 2.895,2.779 C 2.895,-1.201 1.816,0 0,0 m 2.895,1.08 h 1.501 v -7.198 c 0,-2.822 -1.349,-3.964 -4.577,-3.964 -1.694,0 -3.646,0.272 -3.96,2.445 h 1.499 c 0.27,-1.019 1.187,-1.274 2.613,-1.274 2.129,0 2.924,1.079 2.924,2.368 V -5.4 H 2.866 c -0.84,-1.216 -2.026,-1.455 -3.047,-1.455 -2.1,0 -4.306,1.138 -4.306,4.048 0,2.929 2.206,4.067 4.292,4.067 1.289,0 2.475,-0.434 3.061,-1.333 h 0.029 z"
             style="fill:#918f90;fill-opacity:1;fill-rule:nonzero;stroke:none"
             id="path322"
             inkscape:connector-curvature="0" /></g><g
           id="g324"
           transform="translate(281.1104,379.6621)"><path
             d="m 0,0 c -0.225,-0.255 -0.63,-0.361 -1.472,-0.465 l -1.694,-0.21 c -1.17,-0.151 -1.785,-0.468 -1.785,-1.289 0,-0.737 0.735,-1.249 1.829,-1.249 1.698,0 3.122,0.902 3.122,2.207 z m -6.105,1.289 c 0.195,1.967 1.542,2.733 3.901,2.733 1.605,0 3.613,-0.405 3.613,-2.236 v -4.233 c 0,-0.464 0.212,-0.674 0.677,-0.674 0.165,0 0.375,0.029 0.524,0.058 V -4.111 C 2.251,-4.171 1.8,-4.2 1.44,-4.2 c -0.749,0 -1.245,0.21 -1.349,1.095 -0.601,-0.811 -2.07,-1.276 -3.346,-1.276 -2.611,0 -3.197,1.353 -3.197,2.369 0,1.445 0.855,2.177 3.377,2.446 l 1.711,0.181 C -0.524,0.703 0,0.854 0,1.562 c 0,1.079 -1.05,1.289 -2.266,1.289 -1.291,0 -2.384,-0.347 -2.43,-1.562 z"
             style="fill:#918f90;fill-opacity:1;fill-rule:nonzero;stroke:none"
             id="path326"
             inkscape:connector-curvature="0" /></g><g
           id="g328"
           transform="translate(284.6631,383.4121)"><path
             d="m 0,0 h 1.501 v -1.183 h 0.031 c 0.704,1.094 1.949,1.455 3.076,1.455 1.891,0 3.301,-0.81 3.301,-2.778 V -7.861 H 6.406 v 5.057 c 0,1.154 -0.718,1.817 -2.324,1.817 -1.365,0 -2.581,-0.796 -2.581,-2.343 V -7.861 H 0 Z"
             style="fill:#918f90;fill-opacity:1;fill-rule:nonzero;stroke:none"
             id="path330"
             inkscape:connector-curvature="0" /></g><path
           d="m 294.325,383.412 h 1.499 v -7.861 h -1.499 z m 0,2.942 h 1.499 v -1.653 h -1.499 z"
           style="fill:#918f90;fill-opacity:1;fill-rule:nonzero;stroke:none"
           id="path332"
           inkscape:connector-curvature="0" /><g
           id="g334"
           transform="translate(298.6279,378.0254)"><path
             d="m 0,0 c 0,-0.703 0.571,-1.576 2.476,-1.576 1.937,0 2.402,0.678 2.402,1.23 0,0.557 -0.286,0.888 -1.485,1.054 L 0.917,1.035 c -1.127,0.152 -2.133,0.874 -2.133,2.086 0,1.592 1.382,2.538 3.588,2.538 2.579,0 3.706,-1.112 3.839,-2.641 H 4.712 C 4.667,3.813 3.916,4.487 2.357,4.487 c -0.961,0 -2.07,-0.268 -2.07,-1.2 0,-0.527 0.239,-0.826 1.305,-0.976 L 3.721,2.027 c 1.982,-0.269 2.748,-0.976 2.748,-2.086 0,-1.83 -1.547,-2.685 -3.948,-2.685 -1.799,0 -3.855,0.465 -4.02,2.744 z"
             style="fill:#918f90;fill-opacity:1;fill-rule:nonzero;stroke:none"
             id="path336"
             inkscape:connector-curvature="0" /></g><g
           id="g338"
           transform="translate(318.3418,380.5498)"><path
             d="m 0,0 c 0,1.437 -0.915,1.875 -1.892,1.875 -1.363,0 -2.579,-0.645 -2.579,-2.118 V -4.999 H -5.972 V 0 c 0,1.437 -0.915,1.875 -1.891,1.875 -1.364,0 -2.579,-0.796 -2.579,-2.343 v -4.531 h -1.501 v 7.861 h 1.501 V 1.68 h 0.029 c 0.704,1.093 1.949,1.455 3.076,1.455 1.021,0 2.041,-0.42 2.671,-1.455 0.719,0.898 1.681,1.455 3.18,1.455 0.796,0 2.987,-0.376 2.987,-2.779 v -5.355 l -1.501,0 z"
             style="fill:#918f90;fill-opacity:1;fill-rule:nonzero;stroke:none"
             id="path340"
             inkscape:connector-curvature="0" /></g><g
           id="g342"
           transform="translate(328.4805,380.2031)"><path
             d="M 0,0 C -0.225,1.426 -1.337,2.222 -2.748,2.222 -4.126,2.222 -5.371,1.411 -5.598,0 Z m -5.644,-1.172 c 0.123,-1.621 1.563,-2.49 2.896,-2.49 0.856,0 2.026,0.288 2.538,1.396 h 1.59 c -0.75,-1.889 -2.507,-2.656 -4.051,-2.656 -3.061,0 -4.56,1.934 -4.56,4.199 0,2.266 1.499,4.204 4.56,4.204 2.07,0 4.261,-1.201 4.261,-4.458 v -0.195 z"
             style="fill:#918f90;fill-opacity:1;fill-rule:nonzero;stroke:none"
             id="path344"
             inkscape:connector-curvature="0" /></g><g
           id="g346"
           transform="translate(344.4854,378.4316)"><path
             d="m 0,0 c -0.631,-2.354 -2.055,-3.15 -4.096,-3.15 -3.122,0 -4.276,2.115 -4.276,4.156 0,2.324 1.425,4.247 4.261,4.247 2.099,0 3.766,-0.946 4.081,-2.899 h -1.591 c -0.18,1.024 -0.989,1.639 -2.386,1.639 -1.921,0 -2.774,-1.26 -2.774,-2.944 0,-1.68 0.853,-2.94 2.774,-2.94 1.351,0 2.086,0.586 2.415,1.891 z"
             style="fill:#918f90;fill-opacity:1;fill-rule:nonzero;stroke:none"
             id="path348"
             inkscape:connector-curvature="0" /></g><g
           id="g350"
           transform="translate(353.7402,375.5508)"><path
             d="M 0,0 H -1.501 V 1.186 H -1.53 C -2.236,0.088 -3.48,-0.27 -4.606,-0.27 c -1.891,0 -3.301,0.811 -3.301,2.779 v 5.352 h 1.5 V 2.807 c 0,-1.157 0.719,-1.817 2.325,-1.817 1.366,0 2.581,0.796 2.581,2.34 V 7.861 H 0 Z"
             style="fill:#918f90;fill-opacity:1;fill-rule:nonzero;stroke:none"
             id="path352"
             inkscape:connector-curvature="0" /></g><path
           d="m 355.494,386.354 h 1.498 V 375.55 h -1.498 z"
           style="fill:#918f90;fill-opacity:1;fill-rule:nonzero;stroke:none"
           id="path354"
           inkscape:connector-curvature="0" /><g
           id="g356"
           transform="translate(359.4072,385.8281)"><path
             d="M 0,0 H 1.501 V -2.416 H 3.75 V -3.584 H 1.501 v -4.848 c 0,-0.631 0.449,-0.855 1.214,-0.855 0.346,0 0.69,0.045 1.035,0.103 v -1.259 C 3.239,-10.532 2.686,-10.547 2.07,-10.547 0.6,-10.547 0,-9.828 0,-8.687 v 5.103 h -1.621 v 1.168 H 0 Z"
             style="fill:#918f90;fill-opacity:1;fill-rule:nonzero;stroke:none"
             id="path358"
             inkscape:connector-curvature="0" /></g><g
           id="g360"
           transform="translate(372.1289,375.5508)"><path
             d="M 0,0 H -1.501 V 1.186 H -1.53 C -2.236,0.088 -3.479,-0.27 -4.606,-0.27 c -1.891,0 -3.301,0.811 -3.301,2.779 v 5.352 h 1.501 V 2.807 c 0,-1.157 0.719,-1.817 2.324,-1.817 1.367,0 2.581,0.796 2.581,2.34 V 7.861 H 0 Z"
             style="fill:#918f90;fill-opacity:1;fill-rule:nonzero;stroke:none"
             id="path362"
             inkscape:connector-curvature="0" /></g><g
           id="g364"
           transform="translate(373.8799,383.4121)"><path
             d="m 0,0 h 1.501 v -1.437 h 0.032 c 0.703,1.242 1.709,1.709 2.699,1.709 0.377,0 0.57,-0.018 0.856,-0.092 v -1.617 c -0.374,0.088 -0.66,0.148 -1.065,0.148 -1.487,0 -2.522,-0.87 -2.522,-2.579 v -3.993 l -1.501,0 z"
             style="fill:#918f90;fill-opacity:1;fill-rule:nonzero;stroke:none"
             id="path366"
             inkscape:connector-curvature="0" /></g><g
           id="g368"
           transform="translate(386.7998,380.2031)"><path
             d="M 0,0 C -0.228,1.426 -1.338,2.222 -2.747,2.222 -4.127,2.222 -5.374,1.411 -5.599,0 Z m -5.641,-1.172 c 0.118,-1.621 1.559,-2.49 2.894,-2.49 0.856,0 2.024,0.288 2.536,1.396 h 1.592 c -0.752,-1.889 -2.507,-2.656 -4.053,-2.656 -3.06,0 -4.56,1.934 -4.56,4.199 0,2.266 1.5,4.204 4.56,4.204 2.07,0 4.26,-1.201 4.26,-4.458 v -0.195 z"
             style="fill:#918f90;fill-opacity:1;fill-rule:nonzero;stroke:none"
             id="path370"
             inkscape:connector-curvature="0" /></g><path
           d="m 389.841,386.354 h 1.5 V 375.55 h -1.5 z"
           style="fill:#918f90;fill-opacity:1;fill-rule:nonzero;stroke:none"
           id="path372"
           inkscape:connector-curvature="0" /><g
           id="g374"
           transform="translate(398.0303,383.4121)"><path
             d="m 0,0 h 1.5 v -1.437 h 0.033 c 0.703,1.242 1.709,1.709 2.699,1.709 0.377,0 0.569,-0.018 0.856,-0.092 V -1.437 C 4.713,-1.349 4.428,-1.289 4.023,-1.289 2.535,-1.289 1.5,-2.159 1.5,-3.868 V -7.861 H 0 Z"
             style="fill:#918f90;fill-opacity:1;fill-rule:nonzero;stroke:none"
             id="path376"
             inkscape:connector-curvature="0" /></g><g
           id="g378"
           transform="translate(408.5479,386.5205)"><path
             d="m 0,0 h 1.875 l -1.967,-2.103 h -1.201 z m 2.398,-6.317 c -0.224,1.425 -1.334,2.221 -2.744,2.221 -1.379,0 -2.627,-0.81 -2.851,-2.221 z m -5.64,-1.172 c 0.121,-1.621 1.558,-2.49 2.896,-2.49 0.854,0 2.026,0.288 2.537,1.396 h 1.588 c -0.748,-1.89 -2.506,-2.656 -4.049,-2.656 -3.064,0 -4.564,1.933 -4.564,4.199 0,2.266 1.5,4.204 4.564,4.204 2.071,0 4.26,-1.201 4.26,-4.458 v -0.195 z"
             style="fill:#918f90;fill-opacity:1;fill-rule:nonzero;stroke:none"
             id="path380"
             inkscape:connector-curvature="0" /></g><g
           id="g382"
           transform="translate(418.1318,382.332)"><path
             d="m 0,0 c -1.83,0 -2.895,-1.201 -2.895,-2.817 0,-1.621 1.065,-2.779 2.895,-2.779 1.816,0 2.896,1.158 2.896,2.779 C 2.896,-1.201 1.816,0 0,0 m 2.896,1.08 h 1.5 v -7.198 c 0,-2.822 -1.349,-3.964 -4.576,-3.964 -1.695,0 -3.646,0.272 -3.961,2.445 h 1.5 c 0.27,-1.019 1.186,-1.274 2.612,-1.274 2.129,0 2.925,1.079 2.925,2.368 V -5.4 H 2.867 C 2.023,-6.616 0.84,-6.855 -0.18,-6.855 c -2.103,0 -4.306,1.138 -4.306,4.048 0,2.929 2.203,4.067 4.291,4.067 1.291,0 2.476,-0.434 3.062,-1.333 h 0.029 z"
             style="fill:#918f90;fill-opacity:1;fill-rule:nonzero;stroke:none"
             id="path384"
             inkscape:connector-curvature="0" /></g><path
           d="m 424.188,383.412 h 1.502 v -7.861 h -1.502 z m 0,2.942 h 1.502 v -1.653 h -1.502 z"
           style="fill:#918f90;fill-opacity:1;fill-rule:nonzero;stroke:none"
           id="path386"
           inkscape:connector-curvature="0" /><g
           id="g388"
           transform="translate(431.6631,382.4248)"><path
             d="m 0,0 c -2.178,0 -2.973,-1.519 -2.973,-2.944 0,-1.421 0.795,-2.94 2.973,-2.94 2.175,0 2.968,1.519 2.968,2.94 C 2.968,-1.519 2.175,0 0,0 m 0,1.26 c 3.061,0 4.56,-1.939 4.56,-4.204 0,-2.266 -1.499,-4.2 -4.56,-4.2 -3.063,0 -4.564,1.934 -4.564,4.2 0,2.265 1.501,4.204 4.564,4.204"
             style="fill:#918f90;fill-opacity:1;fill-rule:nonzero;stroke:none"
             id="path390"
             inkscape:connector-curvature="0" /></g><g
           id="g392"
           transform="translate(437.6289,383.4121)"><path
             d="m 0,0 h 1.502 v -1.183 h 0.029 c 0.705,1.094 1.95,1.455 3.076,1.455 1.892,0 3.301,-0.81 3.301,-2.778 V -7.861 H 6.406 v 5.057 c 0,1.154 -0.718,1.817 -2.324,1.817 -1.367,0 -2.58,-0.796 -2.58,-2.343 V -7.861 H 0 Z"
             style="fill:#918f90;fill-opacity:1;fill-rule:nonzero;stroke:none"
             id="path394"
             inkscape:connector-curvature="0" /></g><g
           id="g396"
           transform="translate(453.3809,379.6621)"><path
             d="m 0,0 c -0.225,-0.255 -0.63,-0.361 -1.47,-0.465 l -1.696,-0.21 c -1.17,-0.151 -1.785,-0.468 -1.785,-1.289 0,-0.737 0.737,-1.249 1.831,-1.249 1.694,0 3.12,0.902 3.12,2.207 z m -6.105,1.289 c 0.195,1.967 1.544,2.733 3.898,2.733 1.606,0 3.618,-0.405 3.618,-2.236 v -4.233 c 0,-0.464 0.21,-0.674 0.677,-0.674 0.163,0 0.373,0.029 0.524,0.058 V -4.111 C 2.251,-4.171 1.802,-4.2 1.44,-4.2 c -0.749,0 -1.245,0.21 -1.352,1.095 -0.598,-0.811 -2.07,-1.276 -3.342,-1.276 -2.61,0 -3.196,1.353 -3.196,2.369 0,1.445 0.854,2.177 3.374,2.446 l 1.709,0.181 C -0.522,0.703 0,0.854 0,1.562 0,2.641 -1.05,2.851 -2.266,2.851 -3.557,2.851 -4.65,2.504 -4.697,1.289 Z"
             style="fill:#918f90;fill-opacity:1;fill-rule:nonzero;stroke:none"
             id="path398"
             inkscape:connector-curvature="0" /></g><path
           d="m 456.934,386.354 h 1.501 V 375.55 h -1.501 z"
           style="fill:#918f90;fill-opacity:1;fill-rule:nonzero;stroke:none"
           id="path400"
           inkscape:connector-curvature="0" /><g
           id="g402"
           transform="translate(268.6284,431.3604)"><path
             d="M 0,0 H -4.746 C -6,0 -7.16,-0.255 -8.236,-0.762 c -1.071,-0.504 -2.026,-1.173 -2.86,-2.011 -0.836,-0.835 -1.492,-1.836 -1.97,-2.998 -0.479,-1.163 -0.715,-2.368 -0.715,-3.624 V -10.02 L 0,-10.02 Z M 4.113,8.5 H 8.496 V 4.12 -36.23 h -8.857 v 17.529 h -13.42 V -36.23 h -8.858 v 17.353 9.307 c 0,4.886 1.701,9.121 5.101,12.7 1.73,1.728 3.695,3.057 5.905,3.984 2.204,0.922 4.502,1.386 6.887,1.386 z"
             style="fill:#231f20;fill-opacity:1;fill-rule:nonzero;stroke:none"
             id="path404"
             inkscape:connector-curvature="0" /></g><g
           id="g406"
           transform="translate(296.5332,421.6128)"><path
             d="m 0,0 h 9.216 c 1.252,0 2.341,0.425 3.264,1.281 0.927,0.859 1.387,1.997 1.387,3.416 0,1.652 -0.46,2.896 -1.387,3.722 -0.923,0.824 -2.012,1.236 -3.264,1.236 L 0,9.655 Z m 0.179,-26.483 h -8.856 v 40.166 4.476 h 4.385 13.508 c 1.848,0 3.577,-0.36 5.188,-1.074 1.611,-0.718 3.028,-1.688 4.248,-2.909 1.223,-1.22 2.193,-2.653 2.911,-4.297 0.716,-1.637 1.073,-3.383 1.073,-5.226 0,-3.759 -1.493,-6.862 -4.473,-9.31 1.31,-1.371 2.355,-2.892 3.13,-4.56 0.772,-1.67 1.163,-3.64 1.163,-5.903 v -11.363 h -8.857 v 11.627 c 0,0.951 -0.211,1.836 -0.625,2.641 -0.42,0.806 -0.953,1.477 -1.613,2.011 -0.656,0.54 -1.385,0.957 -2.189,1.25 -0.804,0.301 -1.626,0.45 -2.459,0.45 H 0.179 Z"
             style="fill:#231f20;fill-opacity:1;fill-rule:nonzero;stroke:none"
             id="path408"
             inkscape:connector-curvature="0" /></g><g
           id="g410"
           transform="translate(350.2998,409.1787)"><path
             d="m 0,0 h 8.857 c 0,-2.21 -0.405,-4.225 -1.211,-6.045 -0.808,-1.819 -1.927,-3.364 -3.364,-4.649 -1.437,-1.286 -3.111,-2.285 -5.025,-2.998 -1.914,-0.713 -3.949,-1.075 -6.1,-1.075 -2.214,0 -4.277,0.401 -6.192,1.211 -1.913,0.806 -3.588,1.923 -5.024,3.356 -1.435,1.429 -2.554,3.1 -3.364,5.007 -0.81,1.909 -1.211,3.964 -1.211,6.173 v 15.655 c 0,1.968 0.401,3.847 1.211,5.638 0.81,1.789 1.929,3.364 3.364,4.738 1.436,1.375 3.111,2.459 5.024,3.266 1.915,0.809 3.978,1.211 6.192,1.211 2.151,0 4.186,-0.402 6.1,-1.211 1.914,-0.807 3.588,-1.891 5.025,-3.266 1.437,-1.374 2.556,-2.949 3.364,-4.738 0.806,-1.791 1.211,-3.67 1.211,-5.638 H 0 c 0,0.898 -0.193,1.714 -0.581,2.459 -0.387,0.747 -0.908,1.388 -1.565,1.926 -0.658,0.537 -1.389,0.965 -2.194,1.293 -0.805,0.328 -1.656,0.497 -2.549,0.497 -1.788,0 -3.384,-0.601 -4.786,-1.795 -1.402,-1.197 -2.099,-2.661 -2.099,-4.401 V -0.074 c 0,-0.899 0.192,-1.723 0.581,-2.471 0.386,-0.749 0.907,-1.406 1.565,-1.975 0.654,-0.568 1.387,-0.998 2.19,-1.295 0.807,-0.301 1.655,-0.448 2.549,-0.448 1.312,0 2.402,0.194 3.265,0.586 0.863,0.394 1.566,0.894 2.105,1.499 0.536,0.606 0.922,1.287 1.163,2.039 C -0.121,-1.383 0,-0.67 0,0"
             style="fill:#231f20;fill-opacity:1;fill-rule:nonzero;stroke:none"
             id="path412"
             inkscape:connector-curvature="0" /></g><g
           id="g414"
           transform="translate(389.3057,431.3604)"><path
             d="m 0,0 h -4.742 c -1.251,0 -2.415,-0.255 -3.489,-0.762 -1.076,-0.504 -2.029,-1.173 -2.862,-2.011 -0.838,-0.835 -1.492,-1.836 -1.97,-2.998 -0.479,-1.163 -0.713,-2.368 -0.713,-3.624 V -10.02 L 0,-10.02 Z M 4.111,8.5 H 8.496 V 4.12 -36.23 H -0.36 v 17.529 H -13.776 V -36.23 h -8.857 v 17.353 9.307 c 0,4.886 1.698,9.121 5.097,12.7 1.729,1.728 3.698,3.057 5.906,3.984 2.206,0.922 4.501,1.386 6.888,1.386 z"
             style="fill:#231f20;fill-opacity:1;fill-rule:nonzero;stroke:none"
             id="path416"
             inkscape:connector-curvature="0" /></g><g
           id="g418"
           transform="translate(417.3955,431.2676)"><path
             d="m 0,0 v -27.46 h 4.563 c 1.253,0 2.416,0.238 3.488,0.717 1.073,0.476 2.011,1.119 2.818,1.922 0.801,0.805 1.442,1.756 1.92,2.863 0.479,1.1 0.72,2.281 0.72,3.531 v 9.485 c 0,1.255 -0.241,2.419 -0.72,3.488 -0.478,1.074 -1.119,2.015 -1.92,2.822 -0.807,0.801 -1.745,1.441 -2.818,1.923 C 6.979,-0.236 5.816,0 4.563,0 Z m -8.857,4.212 v 4.473 h 4.472 8.948 c 2.503,0 4.828,-0.482 6.976,-1.431 2.149,-0.957 4.024,-2.239 5.638,-3.852 1.606,-1.61 2.876,-3.506 3.799,-5.679 0.927,-2.178 1.386,-4.487 1.386,-6.937 v -8.854 c 0,-2.449 -0.459,-4.773 -1.386,-6.976 -0.923,-2.209 -2.193,-4.13 -3.799,-5.773 -1.614,-1.638 -3.489,-2.94 -5.638,-3.89 -2.148,-0.954 -4.473,-1.431 -6.976,-1.431 h -8.948 -4.472 v 4.564 z"
             style="fill:#231f20;fill-opacity:1;fill-rule:nonzero;stroke:none"
             id="path420"
             inkscape:connector-curvature="0" /></g><path
           d="m 458.008,395.13 h -8.857 v 44.73 h 8.857 z"
           style="fill:#231f20;fill-opacity:1;fill-rule:nonzero;stroke:none"
           id="path422"
           inkscape:connector-curvature="0" /><g
           id="g424"
           transform="translate(236.8657,421.4077)"><path
             d="m 0,0 h -8.885 c 0,19.733 15.499,35.781 34.554,35.781 V 26.895 C 11.517,26.895 0,14.835 0,0"
             style="fill:#ee2722;fill-opacity:1;fill-rule:nonzero;stroke:none"
             id="path426"
             inkscape:connector-curvature="0" /></g><path
           d="m 277.124,412.665 h -22.28 v 8.676 h 22.28 z"
           style="fill:#ee2722;fill-opacity:1;fill-rule:nonzero;stroke:none"
           id="path428"
           inkscape:connector-curvature="0" /></g></g></g></svg>
