<?xml version="1.0" encoding="UTF-8" standalone="no"?>
<!-- Created with Inkscape (http://www.inkscape.org/) -->

<svg
   xmlns:dc="http://purl.org/dc/elements/1.1/"
   xmlns:cc="http://creativecommons.org/ns#"
   xmlns:rdf="http://www.w3.org/1999/02/22-rdf-syntax-ns#"
   xmlns:svg="http://www.w3.org/2000/svg"
   xmlns="http://www.w3.org/2000/svg"
   xmlns:sodipodi="http://sodipodi.sourceforge.net/DTD/sodipodi-0.dtd"
   xmlns:inkscape="http://www.inkscape.org/namespaces/inkscape"
   version="1.1"
   id="svg10"
   xml:space="preserve"
   width="574.86267"
   height="331.57733"
   viewBox="0 0 574.86267 331.57733"
   sodipodi:docname="logo_valdemarne.svg"
   inkscape:version="0.92.3 (2405546, 2018-03-11)"><metadata
     id="metadata16"><rdf:RDF><cc:Work
         rdf:about=""><dc:format>image/svg+xml</dc:format><dc:type
           rdf:resource="http://purl.org/dc/dcmitype/StillImage" /><dc:title></dc:title></cc:Work></rdf:RDF></metadata><defs
     id="defs14"><clipPath
       clipPathUnits="userSpaceOnUse"
       id="clipPath26"><path
         d="M 0,248.683 H 431.147 V 0 H 0 Z"
         id="path24"
         inkscape:connector-curvature="0" /></clipPath></defs><sodipodi:namedview
     pagecolor="#ffffff"
     bordercolor="#666666"
     borderopacity="1"
     objecttolerance="10"
     gridtolerance="10"
     guidetolerance="10"
     inkscape:pageopacity="0"
     inkscape:pageshadow="2"
     inkscape:window-width="1920"
     inkscape:window-height="1001"
     id="namedview12"
     showgrid="false"
     inkscape:zoom="2.4368373"
     inkscape:cx="287.43134"
     inkscape:cy="165.78867"
     inkscape:window-x="-9"
     inkscape:window-y="-9"
     inkscape:window-maximized="1"
     inkscape:current-layer="g18" /><g
     id="g18"
     inkscape:groupmode="layer"
     inkscape:label="logo_valdemarne"
     transform="matrix(1.3333333,0,0,-1.3333333,0,331.57733)"><g
       id="g20"><g
         id="g22"
         clip-path="url(#clipPath26)"><g
           id="g28"
           transform="translate(109.9678,133.1147)"><path
             d="m 0,0 c 0,-2.549 -2.496,-3.222 -3.814,-3.222 -2.552,0 -3.624,2.008 -3.836,3.07 l -0.014,0.075 V 0 c 0,7.436 -6.436,7.557 -6.707,7.559 -3.053,0 -4.685,-2.273 -4.828,-2.461 L -54.085,-31.589 V 0.498 c -0.002,0.289 -0.101,7.061 -6.483,7.061 -1.692,0 -2.955,-0.444 -3.903,-1.105 v -60.325 c 1.774,-1.148 3.754,-1.19 3.903,-1.19 3.082,0 4.723,1.85 4.809,1.947 l 31.652,34.294 c 4.44,4.884 10.035,4.438 10.201,4.419 13.511,0 13.668,-14.831 13.668,-14.98 v -13.692 c 5.007,5.435 22.563,24.493 22.563,24.493 4.186,4.632 9.767,4.433 9.968,4.424 1.17,0 2.234,-0.117 3.217,-0.317 V 12.354 H -5.383 C -0.214,7.973 -0.002,0.119 0,0 m -28.048,-77.407 v 11.598 c -4.534,-4.501 -19.54,-19.39 -21.987,-21.817 h 25.467 c -3.416,4.351 -3.48,10.126 -3.48,10.219 m 46.654,-0.011 c 0,0 -0.15,9.947 -0.194,12.814 -4.557,-4.711 -19.842,-20.518 -22.264,-23.022 h 25.883 c -3.361,4.346 -3.425,10.117 -3.425,10.208 m -42.698,88.496 c 0.463,0.482 0.94,0.898 1.42,1.276 h -29.394 c 5.08,-4.256 5.167,-11.747 5.167,-11.866 0,0 -0.155,-10.64 -0.199,-13.682 5.098,5.378 23.003,24.269 23.006,24.272 m 16.428,-40.459 v -32.361 l 35.123,37.448 c 0.116,0.144 1.77,2.211 4.834,2.211 0.127,-0.003 1.669,-0.039 3.217,-0.895 v -60.769 c -0.852,-0.432 -1.902,-0.705 -3.217,-0.705 -6.4,0 -6.499,6.758 -6.499,7.045 V -45.3 L -9.088,-82.512 c -0.117,-0.143 -1.757,-2.196 -4.818,-2.196 -0.248,0.008 -6.726,0.342 -6.726,7.301 v 31.82 l -35.342,-36.659 c -0.122,-0.152 -1.767,-2.206 -4.837,-2.206 -0.142,0 -1.954,0.042 -3.66,1.081 v 21.076 c 1.162,-0.289 2.453,-0.46 3.903,-0.46 0.118,-0.026 5.508,-0.721 9.952,4.181 l 31.427,34.286 c 0.112,0.14 1.746,2.205 4.818,2.205 0.246,-0.012 6.707,-0.344 6.707,-7.298"
             style="fill:#00adef;fill-opacity:1;fill-rule:nonzero;stroke:none"
             id="path30"
             inkscape:connector-curvature="0" /></g><g
           id="g32"
           transform="translate(358.7642,76.7676)"><path
             d="m 0,0 -0.707,-3.731 h 3.73 L 2.606,-5.822 h -3.73 l -1.416,-7.56 c -0.193,-0.87 -0.322,-1.677 -0.322,-2.478 0,-0.934 0.45,-1.512 1.478,-1.512 0.484,0 0.903,0.031 1.257,0.13 l -0.13,-2.095 c -0.483,-0.19 -1.287,-0.287 -2.056,-0.287 -2.349,0 -3.283,1.415 -3.283,3.025 0,0.9 0.127,1.77 0.353,2.893 l 1.513,7.884 h -2.22 l 0.387,2.091 h 2.219 l 0.544,2.894 z m -24.033,-19.301 2.061,11.034 c 0.351,1.739 0.576,3.248 0.737,4.536 h 2.381 l -0.385,-3.057 h 0.062 c 1.385,2.187 3.508,3.41 5.762,3.41 1.863,0 3.957,-1.062 3.957,-4.31 0,-0.708 -0.129,-1.675 -0.291,-2.509 l -1.737,-9.104 h -2.64 l 1.708,9.007 c 0.097,0.611 0.19,1.318 0.19,1.995 0,1.542 -0.609,2.7 -2.445,2.7 -1.896,0 -4.598,-2.282 -5.306,-6.142 l -1.417,-7.56 z m -6.339,13.831 c -2.543,0 -4.439,-2.475 -5.113,-4.922 4.213,-0.065 7.495,0.515 7.495,2.96 0,1.255 -0.966,1.962 -2.382,1.962 m 2.959,-12.964 c -1.158,-0.642 -3.055,-1.221 -5.146,-1.221 -4.12,0 -5.92,2.828 -5.92,6.273 0,4.698 3.474,10.004 8.493,10.004 2.958,0 4.571,-1.769 4.571,-4.021 0,-4.084 -4.605,-5.148 -10.363,-5.048 -0.129,-0.68 -0.032,-2.126 0.324,-2.963 0.61,-1.417 1.865,-2.092 3.475,-2.092 1.833,0 3.214,0.547 4.182,1.062 z m -37.191,-0.867 2.059,11.034 c 0.321,1.739 0.549,3.248 0.706,4.536 h 2.349 l -0.384,-2.928 h 0.064 c 1.447,2.188 3.411,3.281 5.467,3.281 2.381,0 3.508,-1.511 3.635,-3.476 1.384,2.253 3.379,3.445 5.696,3.476 1.801,0 3.796,-1.157 3.796,-4.084 0,-0.709 -0.097,-1.773 -0.258,-2.64 l -1.737,-9.199 h -2.606 l 1.673,8.973 c 0.131,0.614 0.227,1.385 0.227,2.029 0,1.64 -0.615,2.7 -2.35,2.7 -1.928,0 -4.247,-2.252 -4.891,-5.725 l -1.479,-7.977 h -2.575 l 1.738,9.136 c 0.129,0.708 0.194,1.286 0.194,1.898 0,1.319 -0.355,2.668 -2.315,2.668 -1.934,0 -4.378,-2.572 -4.986,-5.884 l -1.415,-7.818 z m -6.338,13.831 c -2.543,0 -4.438,-2.475 -5.115,-4.921 4.21,-0.066 7.493,0.514 7.493,2.959 0,1.255 -0.964,1.962 -2.378,1.962 m 2.959,-12.964 c -1.161,-0.642 -3.057,-1.221 -5.149,-1.221 -4.118,0 -5.92,2.828 -5.92,6.273 0,4.698 3.475,10.005 8.495,10.005 2.96,-0.001 4.57,-1.77 4.57,-4.022 0,-4.084 -4.603,-5.148 -10.362,-5.048 -0.13,-0.679 -0.033,-2.126 0.323,-2.963 0.611,-1.417 1.866,-2.092 3.472,-2.092 1.837,0 3.219,0.547 4.187,1.062 z M -82.269,0 -82.974,-3.731 h 3.731 l -0.423,-2.091 h -3.73 l -1.415,-7.56 c -0.192,-0.87 -0.321,-1.677 -0.321,-2.478 0,-0.934 0.451,-1.512 1.481,-1.512 0.481,0 0.898,0.033 1.255,0.13 l -0.129,-2.095 c -0.482,-0.19 -1.288,-0.287 -2.058,-0.287 -2.351,0 -3.283,1.417 -3.283,3.026 0,0.899 0.129,1.769 0.355,2.892 L -86,-5.822 h -2.221 l 0.386,2.091 h 2.222 l 0.546,2.897 z m -17.919,-19.301 1.898,10.034 c 0.353,2.03 0.612,4.09 0.773,5.536 h 2.348 c -0.128,-1.094 -0.258,-2.189 -0.418,-3.377 h 0.097 c 0.997,2.121 2.669,3.731 4.761,3.731 0.257,0 0.545,-0.032 0.771,-0.063 l -0.514,-2.64 c -0.195,0.03 -0.451,0.065 -0.74,0.065 -2.318,0 -4.375,-2.798 -5.051,-6.432 l -1.287,-6.854 z m -4.762,13.574 c -0.356,0.128 -0.934,0.228 -1.835,0.228 -4.055,0 -7.367,-4.184 -7.367,-8.527 0,-1.738 0.612,-3.444 2.669,-3.444 2.219,0 4.861,2.897 5.632,7.046 z m -1.738,-13.574 c 0,0.932 0.163,2.415 0.354,4.019 h -0.064 c -1.675,-3.248 -3.83,-4.373 -6.049,-4.373 -2.767,0 -4.47,2.185 -4.47,5.146 0,5.437 3.989,11.132 10.776,11.132 1.511,0 3.12,-0.259 4.214,-0.575 l -1.608,-8.144 c -0.514,-2.702 -0.71,-5.467 -0.644,-7.205 z m -24.226,2.604 c 0.707,-0.545 1.705,-0.866 2.991,-0.866 3.443,0 6.304,4.279 6.304,8.363 0,1.639 -0.704,3.601 -2.991,3.601 -2.09,0 -4.697,-2.379 -5.5,-6.752 z m -4.376,-8.974 3.121,16.404 c 0.354,1.901 0.676,3.991 0.867,5.569 h 2.447 l -0.419,-2.961 h 0.065 c 1.382,2.058 3.442,3.282 5.598,3.282 3.347,0 4.76,-2.767 4.76,-5.63 0,-5.502 -3.924,-10.648 -9.105,-10.648 -1.638,0 -2.732,0.354 -3.346,0.708 h -0.062 l -1.254,-6.724 z m 0.384,28.439 -4.28,-4.602 h -2.09 l 3.186,4.602 z m -5.308,-8.238 c -2.54,0 -4.439,-2.475 -5.116,-4.921 4.216,-0.066 7.497,0.514 7.497,2.96 0,1.254 -0.967,1.961 -2.381,1.961 m 2.957,-12.964 c -1.155,-0.642 -3.055,-1.221 -5.144,-1.221 -4.116,0 -5.918,2.828 -5.918,6.273 0,4.698 3.473,10.005 8.492,10.005 2.96,0 4.567,-1.77 4.567,-4.022 0,-4.084 -4.598,-5.148 -10.357,-5.048 -0.13,-0.679 -0.032,-2.126 0.32,-2.963 0.611,-1.417 1.866,-2.092 3.476,-2.092 1.834,0 3.215,0.547 4.181,1.062 z m -16.052,12.257 c -0.514,0.385 -1.415,0.678 -2.54,0.678 -3.732,0 -6.63,-3.991 -6.63,-8.141 0,-1.864 0.647,-3.83 2.93,-3.83 2.057,0 4.535,2.352 5.212,5.857 z m 4.472,9.717 -3.41,-17.891 c -0.291,-1.638 -0.547,-3.439 -0.643,-4.95 h -2.445 l 0.418,3.09 h -0.064 c -1.415,-2.223 -3.379,-3.444 -5.598,-3.444 -3.025,0 -4.665,2.477 -4.665,5.66 0,5.533 4.117,10.618 9.619,10.618 0.998,0 2.092,-0.226 2.768,-0.55 l 1.38,7.467 z m -28.698,-9.01 c -2.541,0 -4.44,-2.475 -5.114,-4.921 4.211,-0.066 7.494,0.514 7.494,2.96 0,1.254 -0.962,1.961 -2.38,1.961 m 2.961,-12.964 c -1.159,-0.642 -3.059,-1.221 -5.148,-1.221 -4.119,0 -5.92,2.828 -5.92,6.273 0,4.698 3.475,10.005 8.492,10.005 2.962,0 4.57,-1.77 4.57,-4.022 0,-4.084 -4.6,-5.148 -10.36,-5.048 -0.128,-0.679 -0.034,-2.126 0.323,-2.963 0.609,-1.417 1.864,-2.092 3.476,-2.092 1.83,0 3.213,0.547 4.181,1.062 z m -20.397,20.816 h 2.667 l -3.697,-19.366 h 8.749 l -0.451,-2.317 h -11.386 z"
             style="fill:#00adef;fill-opacity:1;fill-rule:nonzero;stroke:none"
             id="path34"
             inkscape:connector-curvature="0" /></g><g
           id="g36"
           transform="translate(353.8257,145.457)"><path
             d="M 0,0 H 31.828 V -8.666 H 9.114 v -9.711 h 18.198 v -8.665 H 9.114 v -9.786 h 22.714 v -8.666 H 0 Z m -22.201,-45.494 -16.064,33.822 v -33.822 h -9.113 V 0 h 12.55 l 16.061,-33.824 V 0 h 9.114 v -45.494 z m -59.8,27.117 h 12.739 c 0.92,0 1.672,0.031 2.258,0.094 0.586,0.062 1.046,0.219 1.382,0.47 0.334,0.25 0.564,0.626 0.688,1.126 0.126,0.501 0.19,1.211 0.19,2.13 v 2.067 c 0,0.918 -0.064,1.669 -0.19,2.254 -0.124,0.585 -0.354,1.054 -0.688,1.409 -0.336,0.355 -0.796,0.595 -1.382,0.721 -0.586,0.125 -1.338,0.188 -2.258,0.188 h -12.739 z m -9.114,19.124 h 23.677 c 1.591,0 3.097,-0.314 4.521,-0.941 1.425,-0.628 2.681,-1.485 3.771,-2.573 1.087,-1.088 1.947,-2.353 2.575,-3.796 0.628,-1.442 0.94,-2.959 0.94,-4.549 v -4.078 c 0,-1.339 -0.219,-2.625 -0.66,-3.859 -0.439,-1.234 -1.058,-2.353 -1.854,-3.357 -0.798,-1.004 -1.73,-1.872 -2.799,-2.603 -1.07,-0.733 -2.21,-1.286 -3.427,-1.662 l 7.484,-18.823 h -9.732 l -7.283,18.452 h -8.099 v -18.452 h -9.114 z m -31.488,-28.91 h 11.045 l -5.584,17.695 z m 13.681,-8.665 h -16.379 l -2.636,-8.666 h -9.599 L -123.417,0 h 12.676 l 14.119,-45.494 h -9.602 z m -76.115,27.541 v -36.207 h -9.114 V 0 h 14.877 L -168.602,-34.137 -157.93,0 h 14.877 v -45.494 h -9.114 v 36.207 l -11.542,-36.207 h -9.786 z"
             style="fill:#00adef;fill-opacity:1;fill-rule:nonzero;stroke:none"
             id="path38"
             inkscape:connector-curvature="0" /></g><g
           id="g40"
           transform="translate(281.6812,182.7266)"><path
             d="M 0,0 C 0.812,1.63 2.166,2.834 3.625,3.222 4.475,3.447 5.255,3.363 5.819,2.985 6.002,2.864 6.006,2.817 6.011,2.768 6.014,2.742 6.016,2.715 6.016,2.687 6.016,1.978 5.213,0.452 3.653,-1.108 L 2.638,-2.129 C 0.957,-3.826 -0.551,-5.323 -1.929,-6.667 -1.646,-4.414 -1.032,-2.067 0,0 m -20.549,0.676 c -0.175,-0.532 -0.343,-1.032 -0.499,-1.455 -1.922,-5.217 -12.45,-15.135 -15.13,-15.595 -0.364,0.341 -0.635,1.492 -0.635,3.182 0,2.677 0.677,6.67 2.727,10.774 1.27,2.542 3.289,4.24 6.004,5.05 3.193,0.953 6.819,0.169 7.9,-0.464 0,0 -0.037,-0.442 -0.367,-1.492 m 1.448,6.148 c -2.405,1.13 -6.32,1.681 -10.372,0.472 -2.79,-0.832 -6.609,-2.815 -8.966,-7.54 -3.272,-6.544 -4.184,-14.16 -2.169,-18.11 0.809,-1.589 2.107,-2.605 3.655,-2.862 3.841,-0.65 10.889,5.545 15.702,11.399 0.492,-4.532 1.942,-11.437 6.235,-12.295 1.518,-0.304 3.397,0.056 9.464,5.386 0.348,-0.694 0.757,-1.33 1.24,-1.882 1.671,-1.912 3.889,-2.958 6.416,-3.028 7.299,-0.2 15.279,7.749 16.166,8.656 l -3.481,3.402 c -2.004,-2.043 -8.159,-7.316 -12.558,-7.192 -1.178,0.033 -2.093,0.468 -2.88,1.366 -0.442,0.507 -0.783,1.286 -1.03,2.223 2.183,2.062 4.73,4.553 7.774,7.626 l 0.997,1.004 c 1.454,1.453 3.791,4.256 3.791,7.247 0,0.183 -0.009,0.368 -0.028,0.552 C 10.701,4.812 9.894,6.12 8.523,7.034 6.781,8.198 4.597,8.516 2.376,7.926 -0.455,7.174 -2.909,5.077 -4.356,2.171 -6.023,-1.17 -7.021,-5.472 -7.021,-9.462 c 0,-0.662 0.062,-1.3 0.118,-1.938 -4.273,-3.924 -6.285,-5.326 -7.228,-5.767 -1.062,1.121 -2.512,6.022 -2.512,11.313 0,1.087 0.313,2.976 0.791,5.245 2.169,6.723 5.247,19.685 5.388,20.289 l -4.696,1.264 c -0.364,-1.201 -2.302,-7.666 -3.941,-14.12"
             style="fill:#00adef;fill-opacity:1;fill-rule:nonzero;stroke:none"
             id="path42"
             inkscape:connector-curvature="0" /></g><g
           id="g44"
           transform="translate(199.4829,203.1909)"><path
             d="m 0,0 h 9.113 v -36.829 h 20.458 v -8.665 H 0 Z m -31.488,-28.163 h 11.045 l -5.586,17.695 z m 13.68,-8.666 h -16.378 l -2.635,-8.665 h -9.602 L -32.304,0 h 12.677 L -5.509,-45.494 H -15.11 Z M -54.392,0 h 9.601 L -58.784,-45.494 H -71.46 L -85.579,0 h 9.602 l 10.792,-35.14 z"
             style="fill:#00adef;fill-opacity:1;fill-rule:nonzero;stroke:none"
             id="path46"
             inkscape:connector-curvature="0" /></g></g></g></g></svg>
