<svg id="svg" version="1.1" width="400" height="260.8" viewBox="0 0 400 260.8" xmlns="http://www.w3.org/2000/svg" xmlns:xlink="http://www.w3.org/1999/xlink" ><g id="svgg"><path id="path0" d="M0.000 125.636 L 0.000 251.272 16.373 251.276 C 33.827 251.280,33.482 251.253,33.353 252.604 L 33.268 253.490 16.634 253.557 L 0.000 253.624 0.000 257.275 L 0.000 260.926 28.050 260.926 L 56.099 260.926 56.095 254.338 C 56.090 246.595,56.286 247.141,53.482 247.043 L 51.272 246.967 51.272 245.662 L 51.272 244.357 57.273 244.284 C 64.517 244.195,64.449 244.184,64.449 245.484 C 64.449 246.870,64.104 247.097,61.983 247.101 C 59.357 247.107,59.544 246.584,59.446 254.210 L 59.361 260.927 66.797 260.927 L 74.234 260.927 74.151 253.291 C 74.098 248.391,74.167 245.398,74.342 244.936 L 74.616 244.216 79.774 244.287 L 84.932 244.357 84.932 245.662 L 84.932 246.967 81.419 247.040 C 77.501 247.122,77.505 247.119,77.499 248.939 C 77.493 250.853,77.717 250.989,81.018 251.071 L 83.888 251.142 83.888 252.316 L 83.888 253.490 80.897 253.564 C 77.492 253.649,77.505 253.641,77.499 255.723 C 77.493 257.976,77.593 258.035,81.539 258.116 L 84.932 258.187 84.920 259.556 L 84.909 260.926 90.008 260.926 L 95.108 260.927 95.028 252.947 C 94.970 247.108,95.031 244.868,95.256 244.597 C 95.669 244.099,101.360 244.092,103.217 244.586 C 107.416 245.704,108.497 250.381,105.216 253.234 L 104.310 254.022 105.743 256.757 C 106.531 258.261,107.251 259.814,107.344 260.209 L 107.512 260.926 112.529 260.926 L 117.547 260.927 117.465 253.114 C 117.408 247.774,117.473 245.131,117.670 244.764 C 118.042 244.069,123.755 243.968,125.944 244.618 C 129.936 245.803,130.937 250.066,127.945 253.136 C 126.860 254.251,126.863 254.274,128.535 257.297 C 129.177 258.459,129.771 259.750,129.855 260.168 L 130.007 260.926 134.997 260.926 L 139.987 260.927 139.902 253.686 C 139.856 249.703,139.892 245.946,139.983 245.336 L 140.149 244.227 145.300 244.227 C 150.900 244.227,151.076 244.271,151.076 245.662 C 151.076 246.983,150.765 247.097,147.162 247.097 C 143.411 247.097,143.247 247.173,143.253 248.911 C 143.259 250.799,143.364 250.864,146.695 251.011 L 149.641 251.142 149.641 252.316 L 149.641 253.490 146.787 253.564 C 143.347 253.654,143.249 253.719,143.249 255.877 C 143.249 257.977,143.410 258.056,147.684 258.056 C 151.154 258.056,151.312 258.152,150.959 260.036 L 150.792 260.926 162.610 260.926 L 174.429 260.927 174.352 253.164 C 174.254 243.260,173.926 244.227,177.387 244.227 C 180.693 244.227,182.395 244.650,184.007 245.874 C 188.574 249.341,187.332 258.615,182.089 260.186 C 179.937 260.830,181.526 260.926,194.361 260.926 L 207.639 260.926 207.807 260.030 C 207.970 259.164,212.960 245.641,213.467 244.695 C 213.921 243.845,216.505 244.035,216.869 244.945 C 217.447 246.391,218.187 248.318,218.898 250.228 C 219.299 251.305,220.290 253.938,221.102 256.080 C 221.936 258.284,222.511 260.181,222.425 260.450 C 222.282 260.903,222.607 260.926,228.973 260.926 C 235.249 260.926,235.661 260.897,235.489 260.470 C 235.389 260.219,235.025 259.191,234.682 258.187 C 234.339 257.182,233.464 254.658,232.738 252.577 C 229.629 243.671,229.690 244.227,231.819 244.227 C 233.675 244.227,233.631 244.153,235.526 250.553 C 236.365 253.386,237.122 255.705,237.208 255.706 C 237.525 255.709,238.179 253.872,239.715 248.663 C 239.948 247.873,240.370 246.553,240.652 245.727 L 241.166 244.227 242.783 244.227 C 245.064 244.227,245.095 243.638,242.407 251.272 C 241.674 253.353,240.796 255.877,240.456 256.882 C 240.116 257.886,239.651 259.145,239.423 259.679 C 239.195 260.212,239.008 260.711,239.008 260.787 C 239.008 260.864,242.443 260.926,246.641 260.926 L 254.273 260.927 254.193 252.947 C 254.135 247.108,254.196 244.868,254.421 244.597 C 254.831 244.103,264.299 244.051,264.788 244.540 C 265.207 244.959,265.187 246.440,264.758 246.796 C 264.561 246.960,262.983 247.112,261.040 247.154 L 257.665 247.228 257.583 248.515 C 257.423 251.044,257.381 251.011,260.796 251.011 C 263.768 251.011,263.788 251.015,263.950 251.663 C 264.389 253.412,264.095 253.597,260.728 253.677 L 257.665 253.751 257.589 255.602 C 257.490 258.023,257.492 258.024,261.596 258.113 L 264.971 258.187 264.960 259.556 L 264.948 260.926 270.048 260.926 L 275.147 260.927 275.147 252.642 L 275.147 244.357 276.538 244.278 C 278.167 244.185,278.377 244.324,279.516 246.243 C 279.983 247.031,280.541 247.949,280.757 248.283 C 280.972 248.617,281.841 250.043,282.688 251.451 C 283.534 252.859,284.268 254.061,284.318 254.120 C 284.661 254.528,284.817 253.248,284.932 249.098 L 285.062 244.357 286.416 244.279 C 288.406 244.164,288.372 244.001,288.276 253.114 L 288.193 260.927 293.734 260.926 L 299.275 260.926 299.344 252.642 L 299.413 244.357 300.767 244.279 C 302.757 244.164,302.723 244.001,302.627 253.114 L 302.544 260.927 308.085 260.926 L 313.626 260.926 313.695 252.642 L 313.764 244.357 317.025 244.278 C 323.249 244.125,325.634 245.521,325.634 249.315 C 325.634 251.059,325.161 252.076,323.772 253.317 C 322.974 254.030,322.959 254.082,323.333 254.816 C 323.546 255.235,324.269 256.648,324.939 257.957 C 325.609 259.265,326.158 260.469,326.158 260.631 C 326.158 260.843,328.001 260.926,332.681 260.926 C 339.676 260.926,339.844 260.892,337.955 259.851 C 335.253 258.361,334.611 255.447,336.985 255.447 C 338.200 255.447,338.410 255.587,339.207 256.933 C 340.691 259.437,345.569 258.034,344.152 255.510 C 343.865 254.998,343.080 254.553,341.030 253.739 C 336.920 252.108,335.483 250.437,335.978 247.862 C 336.788 243.650,344.530 242.661,347.074 246.445 C 348.399 248.414,348.189 249.185,346.327 249.185 C 345.200 249.185,344.955 249.029,343.950 247.668 C 343.653 247.266,343.136 247.015,342.403 246.917 C 340.190 246.620,338.633 248.034,339.659 249.408 C 340.092 249.988,340.755 250.322,344.292 251.743 C 348.584 253.467,349.272 258.701,345.401 260.181 C 343.611 260.866,345.798 260.926,372.342 260.926 L 400.000 260.926 400.000 257.275 L 400.000 253.624 383.366 253.557 L 366.732 253.490 366.647 252.604 C 366.518 251.253,366.173 251.280,383.627 251.276 L 400.000 251.272 400.000 234.703 L 400.000 218.135 200.457 218.069 L 0.913 218.004 0.848 129.694 C 0.803 69.543,0.867 41.298,1.050 41.116 C 1.197 40.968,2.166 40.771,3.203 40.677 C 7.056 40.329,11.151 39.908,13.177 39.652 C 14.325 39.507,16.497 39.282,18.004 39.151 C 19.511 39.020,21.977 38.785,23.483 38.628 C 24.990 38.471,27.926 38.165,30.007 37.948 C 32.087 37.731,35.492 37.380,37.573 37.168 C 39.654 36.956,43.001 36.613,45.010 36.406 C 47.019 36.199,50.483 35.843,52.707 35.616 C 54.932 35.388,58.337 35.035,60.274 34.833 C 62.211 34.631,65.675 34.277,67.971 34.047 C 70.267 33.818,73.150 33.519,74.378 33.385 C 75.605 33.250,78.423 32.959,80.640 32.739 C 84.538 32.351,87.475 32.052,96.021 31.174 C 101.614 30.599,106.609 30.087,109.850 29.758 C 111.357 29.605,114.351 29.301,116.504 29.082 C 118.656 28.863,121.357 28.568,122.505 28.426 C 123.653 28.285,125.825 28.062,127.332 27.931 C 128.839 27.800,131.305 27.565,132.811 27.408 C 134.318 27.251,137.254 26.948,139.335 26.734 C 141.416 26.520,144.762 26.173,146.771 25.962 C 151.814 25.434,157.226 24.883,162.166 24.395 C 164.462 24.168,167.926 23.815,169.863 23.610 C 174.861 23.081,183.161 22.222,190.150 21.510 C 192.195 21.301,195.541 20.959,197.586 20.750 C 206.592 19.828,209.625 19.520,213.150 19.170 C 215.216 18.964,217.271 18.735,217.716 18.661 C 218.161 18.587,219.876 18.408,221.526 18.263 C 225.572 17.909,232.012 17.251,239.530 16.424 C 240.894 16.274,243.183 16.044,244.618 15.914 C 246.053 15.783,248.402 15.554,249.837 15.404 C 260.407 14.300,266.818 13.638,271.298 13.186 C 280.846 12.224,283.440 11.960,286.758 11.613 C 288.695 11.410,292.100 11.057,294.325 10.829 C 296.549 10.601,300.013 10.246,302.022 10.039 C 304.031 9.832,307.378 9.488,309.459 9.274 C 311.539 9.060,314.475 8.758,315.982 8.603 C 317.489 8.447,320.365 8.153,322.374 7.948 C 324.384 7.743,327.759 7.397,329.876 7.180 C 337.136 6.434,341.165 6.027,344.031 5.751 C 345.610 5.599,347.782 5.362,348.858 5.223 C 349.935 5.084,351.755 4.903,352.903 4.819 C 354.051 4.735,355.753 4.557,356.686 4.423 C 357.619 4.289,359.733 4.060,361.383 3.914 C 363.033 3.768,366.027 3.481,368.037 3.275 C 370.046 3.069,372.922 2.775,374.429 2.622 C 380.828 1.971,385.207 1.517,388.389 1.173 C 390.254 0.971,392.750 0.730,393.933 0.637 C 395.117 0.544,396.086 0.362,396.086 0.234 C 396.086 0.096,314.560 0.000,198.043 0.000 L 0.000 0.000 0.000 125.636 M172.451 61.916 C 164.842 66.252,161.168 71.770,157.216 84.801 C 156.706 86.480,155.484 92.086,154.882 95.499 C 153.575 102.918,153.253 105.589,152.112 118.461 C 151.742 122.628,151.596 123.039,149.583 125.542 C 144.935 131.325,141.155 137.782,139.753 142.335 C 137.788 148.717,139.917 153.236,144.065 151.488 C 146.244 150.570,150.500 143.993,152.520 138.421 C 152.780 137.704,153.074 136.999,153.174 136.856 C 153.634 136.192,155.853 128.381,156.176 126.288 C 156.663 123.128,179.817 103.327,183.025 103.327 C 183.452 103.327,182.983 104.273,181.276 106.854 C 169.824 124.171,169.162 130.706,178.313 136.069 L 179.513 136.773 182.712 136.341 C 187.296 135.722,188.251 135.444,192.172 133.589 C 200.251 129.766,203.330 120.535,199.451 111.767 C 199.250 111.315,199.087 110.866,199.087 110.769 C 199.087 110.673,198.588 109.806,197.978 108.844 C 195.957 105.655,195.175 103.630,195.167 101.560 C 195.150 97.163,191.587 94.864,187.732 96.763 C 187.155 97.047,186.216 97.357,185.644 97.453 C 182.460 97.987,177.097 100.338,173.584 102.739 C 172.757 103.305,171.366 104.258,170.492 104.859 C 168.176 106.451,164.450 109.466,160.964 112.571 C 159.284 114.067,157.840 115.222,157.754 115.137 C 157.252 114.634,158.660 105.624,160.497 97.586 C 161.541 93.017,163.706 85.740,164.397 84.478 C 164.533 84.229,164.648 83.877,164.653 83.696 C 164.658 83.514,164.889 82.896,165.166 82.322 C 165.444 81.748,165.674 81.179,165.679 81.058 C 165.732 79.749,170.615 71.477,172.258 69.914 C 173.884 68.367,173.491 68.220,179.380 72.564 C 180.955 73.726,182.416 74.922,182.626 75.222 C 184.112 77.343,185.413 77.176,186.662 74.703 C 187.349 73.344,187.192 72.452,185.923 70.522 C 179.790 61.190,176.930 59.363,172.451 61.916 M97.807 62.750 C 97.737 62.820,96.866 63.047,95.872 63.254 C 91.107 64.247,84.119 66.159,79.974 67.603 C 79.543 67.753,78.363 68.153,77.351 68.491 C 76.338 68.830,74.827 69.409,73.991 69.778 C 73.156 70.148,72.372 70.450,72.249 70.450 C 71.944 70.450,68.014 72.267,64.840 73.876 C 55.884 78.415,49.271 83.886,47.063 88.584 C 46.171 90.482,46.252 91.116,47.554 92.457 L 48.663 93.600 54.795 93.766 C 58.167 93.857,64.331 93.943,68.493 93.956 C 79.614 93.990,82.521 94.183,83.330 94.943 C 84.532 96.073,83.056 98.080,79.951 99.537 C 75.271 101.733,66.296 106.396,63.536 108.067 C 63.105 108.328,62.577 108.621,62.361 108.719 C 60.582 109.530,50.769 115.967,47.358 118.560 C 39.894 124.237,30.267 134.380,30.267 136.568 C 30.267 136.647,29.983 137.331,29.635 138.088 C 26.221 145.523,28.764 149.066,38.617 150.600 C 48.158 152.087,69.240 148.010,82.583 142.099 C 83.014 141.908,83.888 141.531,84.527 141.261 C 89.099 139.326,97.853 134.519,103.853 130.647 C 106.816 128.735,112.322 124.698,120.131 118.709 C 123.983 115.756,123.974 115.753,123.295 119.765 C 119.953 139.524,110.129 146.941,86.787 147.329 C 79.905 147.443,79.843 147.451,79.843 148.192 C 79.843 148.770,80.661 149.328,82.061 149.705 C 82.635 149.860,83.932 150.226,84.943 150.518 C 91.960 152.544,102.341 152.313,106.977 150.026 C 107.194 149.919,108.017 149.556,108.806 149.220 C 114.824 146.656,120.531 141.125,124.523 133.986 C 125.318 132.565,127.071 128.943,127.071 128.722 C 127.071 128.647,127.242 128.215,127.452 127.763 C 127.886 126.823,129.426 122.162,130.008 120.026 C 130.854 116.917,131.221 115.055,132.266 108.565 C 132.470 107.299,132.858 106.363,133.854 104.739 C 136.196 100.921,138.517 95.812,139.535 92.237 C 140.440 89.057,140.664 88.107,141.025 85.910 C 142.161 79.002,140.769 74.024,137.953 74.929 C 135.076 75.854,129.247 85.470,126.985 93.020 C 125.699 97.311,125.030 101.102,124.681 106.067 C 124.421 109.778,124.327 110.295,123.838 110.726 C 123.265 111.231,116.869 115.449,112.901 117.939 C 111.643 118.728,109.826 119.886,108.862 120.512 C 106.833 121.830,98.922 126.549,98.741 126.549 C 98.675 126.549,98.182 126.823,97.646 127.157 C 96.765 127.708,95.169 128.605,91.846 130.416 C 79.689 137.043,67.232 142.130,57.926 144.266 C 48.331 146.468,38.370 146.253,35.907 143.790 C 32.416 140.299,39.277 131.283,53.620 120.514 C 57.771 117.397,61.831 114.732,63.666 113.918 C 64.599 113.504,66.125 112.820,67.058 112.398 C 69.269 111.398,79.187 106.429,80.365 105.730 C 80.868 105.432,81.861 104.873,82.573 104.487 C 94.211 98.183,99.069 91.314,94.225 88.016 C 91.106 85.893,71.622 84.541,62.492 85.815 C 59.277 86.264,58.017 84.771,59.791 82.618 C 64.185 77.288,88.415 66.536,96.034 66.536 C 97.262 66.536,99.028 65.302,99.217 64.312 C 99.391 63.403,98.330 62.227,97.807 62.750 M205.657 74.238 C 204.031 74.635,203.482 75.069,202.928 76.394 C 201.734 79.252,201.320 81.661,201.920 82.257 C 202.407 82.742,205.594 82.585,206.819 82.017 C 208.944 81.031,217.903 81.669,222.290 83.119 C 228.446 85.153,231.236 88.573,231.214 94.058 C 231.198 98.104,230.621 99.709,227.272 105.023 C 220.474 115.808,215.487 125.050,212.519 132.361 C 212.156 133.255,211.745 134.190,211.605 134.439 C 211.465 134.688,211.350 135.016,211.350 135.167 C 211.350 135.319,211.012 136.171,210.598 137.062 C 209.177 140.122,209.350 141.683,211.108 141.683 C 212.439 141.683,214.783 140.247,215.404 139.052 C 216.545 136.856,225.293 128.048,231.449 122.896 C 232.221 122.250,233.680 121.017,234.691 120.155 C 240.159 115.494,242.914 113.390,243.189 113.665 C 243.326 113.802,243.214 115.500,242.917 117.784 C 241.674 127.337,241.903 132.496,243.644 134.175 C 246.840 137.258,249.559 136.944,256.304 132.709 C 259.140 130.928,262.019 128.710,265.101 125.928 C 268.348 122.998,268.637 122.985,267.095 125.840 C 265.651 128.512,263.748 132.079,263.068 133.387 C 261.796 135.834,263.497 137.769,266.918 137.769 C 267.795 137.769,268.046 137.588,269.549 135.877 C 270.462 134.837,272.518 132.665,274.117 131.050 C 277.703 127.429,277.981 127.358,279.233 129.746 C 281.676 134.404,287.002 137.278,293.909 137.666 C 296.211 137.795,297.690 137.687,301.631 137.103 C 302.435 136.984,302.686 137.102,303.725 138.086 C 304.374 138.701,305.431 139.612,306.073 140.111 C 306.715 140.609,307.299 141.084,307.371 141.166 C 309.541 143.640,319.828 147.869,326.941 149.210 C 334.916 150.714,338.697 150.922,354.116 150.702 C 365.023 150.546,366.478 150.574,368.111 150.968 C 371.346 151.749,373.487 149.666,372.327 146.866 C 371.602 145.115,371.455 145.093,361.538 145.260 C 336.951 145.677,321.633 143.430,314.286 138.331 C 310.443 135.664,310.294 134.642,313.572 133.449 C 324.322 129.536,333.546 121.680,335.952 114.385 C 340.083 101.859,327.641 95.128,315.216 103.168 C 307.621 108.082,302.888 117.102,301.439 129.419 L 301.239 131.115 299.543 131.413 C 291.775 132.778,287.378 131.110,283.753 125.422 C 281.512 121.905,280.675 120.951,279.485 120.559 C 277.975 120.061,277.844 119.812,278.447 118.591 C 282.316 110.757,279.175 108.132,272.016 113.217 C 268.487 115.723,259.854 122.883,255.139 127.214 C 252.140 129.969,248.689 130.215,247.523 127.758 C 247.032 126.724,246.928 121.676,247.348 119.243 C 247.800 116.622,248.392 113.654,248.804 111.937 C 249.877 107.470,249.210 105.153,246.852 105.153 C 244.824 105.153,235.456 112.778,225.297 122.697 C 222.111 125.807,221.787 126.057,221.787 125.399 C 221.787 125.068,224.706 119.220,225.186 118.591 C 225.295 118.447,225.763 117.626,226.225 116.765 C 226.933 115.446,229.807 110.602,231.181 108.413 C 231.607 107.734,233.932 104.015,235.748 101.109 C 237.375 98.504,237.573 97.597,237.573 92.759 L 237.573 88.584 236.690 87.019 C 231.455 77.735,216.527 71.587,205.657 74.238 M137.502 87.345 C 137.499 87.740,137.276 88.885,137.007 89.889 C 136.563 91.548,136.331 92.221,135.655 93.803 C 135.532 94.090,135.305 94.673,135.150 95.099 C 134.443 97.045,134.126 94.301,134.801 92.072 C 136.102 87.772,137.520 85.291,137.502 87.345 M327.170 104.777 C 335.517 107.256,329.647 119.536,317.079 125.884 C 309.968 129.476,308.780 129.554,308.885 126.419 C 309.245 115.673,314.753 106.932,322.635 104.595 C 324.279 104.107,325.015 104.137,327.170 104.777 M192.138 109.656 C 194.880 114.410,195.144 115.267,194.616 117.727 C 192.660 126.850,182.854 133.740,179.638 128.252 C 177.381 124.402,179.476 120.275,188.020 111.742 C 191.249 108.517,191.429 108.426,192.138 109.656 M149.511 136.077 C 149.511 136.437,149.402 136.936,149.269 137.186 C 149.136 137.435,148.527 138.662,147.916 139.912 C 146.825 142.144,146.282 142.733,145.779 142.230 C 145.491 141.943,145.875 141.090,147.828 137.678 C 149.185 135.308,149.511 134.998,149.511 136.077 M151.150 167.987 C 150.652 168.059,148.206 171.218,148.206 171.790 C 148.206 171.878,148.823 171.942,149.576 171.931 C 150.892 171.912,153.767 169.522,153.807 168.413 C 153.817 168.140,152.053 167.857,151.150 167.987 M86.019 173.429 C 85.923 173.525,85.845 177.930,85.845 183.218 L 85.845 192.834 92.042 192.764 L 98.239 192.694 98.326 192.080 C 98.373 191.743,98.342 191.185,98.255 190.841 L 98.098 190.215 94.091 190.215 C 91.104 190.215,90.011 190.128,89.800 189.873 C 89.612 189.647,89.501 186.939,89.473 181.850 C 89.449 177.625,89.323 173.963,89.193 173.712 C 88.954 173.249,86.424 173.024,86.019 173.429 M101.529 173.612 C 101.317 173.867,101.252 176.638,101.301 183.331 L 101.370 192.694 107.763 192.694 L 114.155 192.694 114.234 191.758 C 114.354 190.327,114.077 190.237,109.309 190.157 L 105.023 190.085 104.949 187.156 L 104.875 184.228 108.733 184.156 L 112.590 184.083 112.590 182.779 L 112.590 181.474 108.806 181.344 L 105.023 181.213 104.888 179.517 C 104.813 178.584,104.797 177.440,104.851 176.973 L 104.949 176.125 109.074 176.125 C 111.343 176.125,113.385 176.054,113.612 175.967 C 114.110 175.776,114.182 174.039,113.712 173.568 C 113.230 173.087,101.931 173.127,101.529 173.612 M124.897 173.429 C 124.801 173.525,124.723 177.928,124.723 183.214 L 124.723 192.825 128.627 192.825 C 136.489 192.825,139.174 190.338,139.194 183.040 C 139.209 177.469,137.211 174.473,132.864 173.549 C 131.381 173.234,125.185 173.140,124.897 173.429 M143.427 173.424 C 143.329 173.523,143.249 177.928,143.249 183.214 L 143.249 192.825 149.656 192.825 L 156.063 192.825 155.983 191.585 L 155.903 190.346 151.742 190.274 C 146.457 190.182,146.595 190.276,146.697 186.840 L 146.771 184.344 150.163 184.281 C 154.675 184.196,154.729 184.180,154.729 182.957 C 154.729 181.432,154.508 181.344,150.665 181.344 C 146.506 181.344,146.591 181.406,146.695 178.434 L 146.771 176.256 151.337 176.125 L 155.903 175.995 155.903 174.690 L 155.903 173.386 149.755 173.316 C 146.373 173.277,143.525 173.326,143.427 173.424 M159.528 173.561 C 159.424 173.730,159.348 178.104,159.359 183.281 L 159.378 192.694 161.033 192.694 L 162.688 192.694 162.818 189.302 L 162.948 185.910 165.949 185.712 C 170.816 185.390,173.071 184.169,173.746 181.490 C 174.735 177.561,173.015 174.501,169.291 173.563 C 167.639 173.147,159.785 173.146,159.528 173.561 M180.626 173.770 C 180.272 174.337,173.516 192.245,173.516 192.616 C 173.516 192.744,174.309 192.814,175.277 192.771 L 177.038 192.694 177.578 191.129 C 178.587 188.198,178.266 188.388,182.201 188.393 C 186.298 188.398,186.070 188.283,186.887 190.737 L 187.538 192.694 189.333 192.694 C 190.395 192.694,191.105 192.587,191.070 192.433 C 190.986 192.058,190.241 189.917,189.980 189.302 C 189.858 189.015,189.615 188.428,189.439 187.997 C 189.072 187.097,185.364 177.281,184.819 175.768 C 183.975 173.422,183.809 173.255,182.313 173.255 C 181.237 173.255,180.879 173.364,180.626 173.770 M194.158 173.612 C 193.946 173.867,193.881 176.638,193.930 183.331 L 193.999 192.694 195.695 192.694 L 197.391 192.694 197.521 189.172 L 197.652 185.649 199.454 185.649 L 201.257 185.649 202.848 188.650 C 203.723 190.300,204.589 191.915,204.773 192.237 C 205.063 192.749,205.318 192.825,206.750 192.825 C 209.109 192.825,209.209 193.389,205.703 186.897 C 204.846 185.310,204.587 184.214,205.068 184.214 C 206.318 184.214,207.944 181.395,207.953 179.213 C 207.964 176.234,206.445 174.289,203.582 173.615 C 201.503 173.126,194.563 173.124,194.158 173.612 M209.682 173.668 C 209.595 173.895,209.524 174.355,209.524 174.690 C 209.524 176.067,209.648 176.125,212.561 176.125 C 215.906 176.125,215.566 175.162,215.615 184.793 L 215.656 192.694 217.352 192.694 L 219.048 192.694 219.117 184.410 L 219.185 176.125 221.770 176.125 C 225.008 176.125,225.179 176.061,225.179 174.845 C 225.179 173.235,225.279 173.255,217.197 173.255 C 210.730 173.255,209.821 173.305,209.682 173.668 M228.182 174.103 C 228.098 174.569,228.063 178.943,228.105 183.823 L 228.180 192.694 234.573 192.694 L 240.965 192.694 241.052 192.080 C 241.100 191.743,241.068 191.185,240.982 190.841 L 240.825 190.215 236.534 190.215 C 231.422 190.215,231.645 190.377,231.758 186.757 L 231.833 184.344 235.747 184.189 C 240.350 184.007,239.791 184.182,239.791 182.919 C 239.791 181.493,239.387 181.344,235.512 181.344 C 231.621 181.344,231.640 181.360,231.757 178.275 L 231.833 176.256 236.247 176.125 L 240.662 175.995 240.909 175.252 C 241.074 174.757,241.061 174.299,240.871 173.882 L 240.585 173.255 234.460 173.255 L 228.334 173.255 228.182 174.103 M244.517 173.612 C 244.305 173.867,244.240 176.638,244.289 183.331 L 244.357 192.694 246.053 192.694 L 247.750 192.694 247.687 186.205 L 247.625 179.716 248.144 180.375 C 248.429 180.738,248.663 181.105,248.663 181.191 C 248.663 181.381,250.387 185.847,250.902 186.993 C 251.106 187.445,251.272 187.983,251.272 188.189 C 251.272 188.395,251.360 188.650,251.466 188.757 C 251.573 188.864,251.970 189.794,252.347 190.823 L 253.033 192.694 254.380 192.694 L 255.727 192.694 256.626 190.476 C 257.121 189.256,257.527 188.159,257.530 188.037 C 257.532 187.915,257.701 187.445,257.904 186.993 C 258.229 186.271,259.783 182.272,260.227 181.018 C 260.315 180.766,260.509 180.561,260.657 180.561 C 260.805 180.561,260.926 180.326,260.926 180.039 C 260.926 179.752,261.045 179.517,261.190 179.517 C 261.348 179.517,261.395 179.912,261.306 180.496 C 261.225 181.034,261.135 183.999,261.107 187.084 L 261.057 192.694 262.753 192.694 L 264.449 192.694 264.517 183.331 C 264.596 172.532,264.770 173.255,262.092 173.255 L 260.190 173.255 259.670 174.364 C 259.383 174.974,258.179 178.085,256.992 181.279 C 254.705 187.436,254.223 188.151,253.653 186.236 C 253.514 185.770,253.148 184.742,252.839 183.953 C 252.530 183.164,252.177 182.224,252.055 181.866 C 251.933 181.507,251.604 180.626,251.323 179.909 C 251.043 179.191,250.448 177.628,250.000 176.436 C 248.734 173.064,248.931 173.255,246.729 173.255 C 245.426 173.255,244.718 173.369,244.517 173.612 M269.189 173.429 C 269.093 173.525,269.015 177.930,269.015 183.218 L 269.015 192.834 275.342 192.764 L 281.670 192.694 281.670 191.520 L 281.670 190.346 277.508 190.274 C 272.373 190.185,272.406 190.203,272.411 187.370 C 272.417 184.019,272.193 184.215,276.025 184.210 C 280.333 184.206,280.496 184.158,280.496 182.888 C 280.496 181.497,280.073 181.344,276.217 181.344 C 272.325 181.344,272.345 181.360,272.461 178.275 L 272.538 176.256 277.104 176.110 C 282.401 175.940,281.800 176.085,281.800 174.972 C 281.800 173.170,282.117 173.255,275.423 173.255 C 272.090 173.255,269.285 173.333,269.189 173.429 M285.221 173.612 C 285.009 173.867,284.944 176.638,284.993 183.331 L 285.062 192.694 286.823 192.771 L 288.584 192.848 288.588 186.900 C 288.592 181.386,288.755 179.866,289.288 180.392 C 289.493 180.594,290.179 181.670,293.137 186.432 C 293.940 187.723,295.156 189.661,295.841 190.737 L 297.085 192.694 298.901 192.694 L 300.718 192.694 300.793 183.823 C 300.887 172.746,300.964 173.255,299.192 173.255 C 297.142 173.255,297.195 173.078,297.195 179.970 C 297.195 187.621,297.551 187.625,292.759 179.923 C 292.544 179.576,291.840 178.458,291.194 177.436 C 290.548 176.415,289.901 175.379,289.755 175.135 C 288.668 173.304,288.596 173.255,287.021 173.255 C 286.067 173.255,285.409 173.386,285.221 173.612 M303.631 173.429 C 303.536 173.525,303.457 174.110,303.457 174.729 C 303.457 176.069,303.520 176.094,306.980 176.191 L 309.328 176.256 309.459 184.475 L 309.589 192.694 311.216 192.772 L 312.843 192.849 312.912 184.552 L 312.981 176.256 315.982 176.094 C 319.536 175.903,319.113 176.055,319.113 174.972 C 319.113 173.151,319.587 173.255,311.301 173.255 C 307.178 173.255,303.727 173.333,303.631 173.429 M133.061 176.641 C 137.881 179.100,136.653 189.016,131.416 189.928 C 127.954 190.531,128.115 190.872,128.115 182.934 C 128.115 179.381,128.193 176.395,128.289 176.299 C 128.698 175.890,132.060 176.130,133.061 176.641 M168.794 176.503 C 170.461 177.366,171.015 180.268,169.785 181.700 C 168.939 182.684,164.982 183.173,163.144 182.520 C 162.795 182.396,162.654 176.638,162.992 176.299 C 163.342 175.949,168.042 176.115,168.794 176.503 M203.018 176.568 C 204.761 177.598,204.895 180.617,203.251 181.832 C 202.445 182.428,199.426 182.856,198.200 182.548 L 197.521 182.378 197.521 179.425 C 197.521 177.802,197.599 176.395,197.695 176.299 C 198.086 175.909,202.258 176.120,203.018 176.568 M183.550 181.255 C 183.975 182.524,184.415 183.673,184.529 183.810 C 184.643 183.946,184.736 184.386,184.736 184.788 L 184.736 185.519 182.379 185.519 C 179.670 185.519,179.540 185.409,180.166 183.667 C 180.394 183.035,180.880 181.610,181.247 180.500 C 182.097 177.932,182.481 178.058,183.550 181.255 M199.870 244.759 C 199.870 246.915,198.522 249.204,197.380 248.986 C 196.484 248.814,196.450 248.685,196.878 247.076 C 197.085 246.298,197.255 245.241,197.257 244.727 C 197.261 243.537,197.369 243.444,198.739 243.444 L 199.870 243.444 199.870 244.759 M98.543 247.271 C 98.326 247.489,98.313 251.083,98.528 251.642 C 98.735 252.182,100.907 252.201,102.170 251.673 C 104.037 250.893,104.160 248.022,102.357 247.336 C 101.631 247.061,98.802 247.012,98.543 247.271 M120.983 247.271 C 120.765 247.489,120.753 251.083,120.967 251.642 C 121.229 252.324,123.904 252.203,125.007 251.460 C 126.643 250.357,126.546 248.002,124.838 247.352 C 124.081 247.064,121.249 247.005,120.983 247.271 M177.886 247.246 C 177.303 247.839,177.680 257.543,178.295 257.777 C 178.981 258.038,181.229 257.694,181.769 257.245 C 183.992 255.401,183.920 249.459,181.655 247.762 C 180.955 247.237,178.259 246.868,177.886 247.246 M317.221 247.247 C 316.808 247.665,316.998 251.727,317.438 251.896 C 320.453 253.053,323.512 250.198,321.736 247.886 C 321.229 247.226,317.731 246.731,317.221 247.247 M214.729 249.502 C 214.722 249.543,214.383 250.574,213.976 251.794 C 213.106 254.399,213.230 254.664,215.322 254.664 C 216.958 254.664,217.063 254.360,216.278 251.881 C 215.798 250.365,214.836 248.888,214.729 249.502 M278.555 251.039 C 278.486 251.239,278.395 253.545,278.354 256.165 L 278.278 260.927 281.605 260.927 C 284.588 260.926,285.444 260.752,284.706 260.296 C 284.522 260.182,280.365 253.438,279.295 251.518 C 278.866 250.747,278.695 250.637,278.555 251.039 M98.504 254.990 C 98.443 255.170,98.359 256.579,98.316 258.122 L 98.239 260.927 101.174 260.927 C 104.103 260.926,104.611 260.749,103.855 259.994 C 103.716 259.854,103.118 258.803,102.528 257.658 C 101.937 256.514,101.270 255.372,101.045 255.121 C 100.565 254.584,98.673 254.487,98.504 254.990 M120.953 255.251 C 120.883 255.574,120.792 256.983,120.752 258.382 L 120.678 260.927 123.614 260.926 C 125.228 260.926,126.549 260.833,126.549 260.718 C 126.549 260.604,125.962 259.406,125.245 258.056 C 124.527 256.706,123.940 255.513,123.940 255.403 C 123.940 254.534,121.139 254.391,120.953 255.251 M317.168 254.990 C 317.112 255.170,317.011 256.579,316.944 258.121 L 316.821 260.926 319.793 260.926 C 322.628 260.926,323.058 260.822,322.534 260.261 C 322.407 260.125,321.915 259.250,321.441 258.317 C 319.726 254.942,319.489 254.664,318.319 254.664 C 317.708 254.664,317.227 254.800,317.168 254.990 M211.732 258.643 C 210.627 261.017,210.487 260.926,215.264 260.926 C 217.560 260.926,219.439 260.863,219.439 260.785 C 219.439 260.708,219.204 260.184,218.917 259.622 C 218.630 259.059,218.395 258.422,218.395 258.206 C 218.395 257.522,217.458 257.273,214.878 257.273 L 212.370 257.273 211.732 258.643 " stroke="none" fill="#ffffff" fill-rule="evenodd"></path><path id="path1" d="M396.086 0.234 C 396.086 0.362,395.117 0.544,393.933 0.637 C 392.750 0.730,390.254 0.971,388.389 1.173 C 385.207 1.517,380.828 1.971,374.429 2.622 C 372.922 2.775,370.046 3.069,368.037 3.275 C 366.027 3.481,363.033 3.768,361.383 3.914 C 359.733 4.060,357.619 4.289,356.686 4.423 C 355.753 4.557,354.051 4.735,352.903 4.819 C 351.755 4.903,349.935 5.084,348.858 5.223 C 347.782 5.362,345.610 5.599,344.031 5.751 C 341.113 6.032,336.622 6.485,329.811 7.186 C 327.730 7.400,324.384 7.743,322.374 7.948 C 320.365 8.153,317.489 8.447,315.982 8.603 C 314.475 8.758,311.539 9.060,309.459 9.274 C 307.378 9.488,304.031 9.832,302.022 10.039 C 300.013 10.246,296.549 10.601,294.325 10.829 C 292.100 11.057,288.695 11.410,286.758 11.613 C 283.261 11.979,278.749 12.439,271.233 13.194 C 266.867 13.633,260.624 14.278,249.837 15.404 C 248.402 15.554,246.053 15.783,244.618 15.914 C 243.183 16.044,240.894 16.274,239.530 16.424 C 232.012 17.251,225.572 17.909,221.526 18.263 C 219.876 18.408,218.161 18.587,217.716 18.661 C 217.271 18.735,215.216 18.964,213.150 19.170 C 209.657 19.517,207.470 19.739,197.521 20.756 C 195.440 20.969,192.094 21.311,190.085 21.516 C 182.928 22.246,174.761 23.092,169.863 23.610 C 167.926 23.815,164.462 24.168,162.166 24.395 C 157.226 24.883,151.814 25.434,146.771 25.962 C 144.762 26.173,141.416 26.520,139.335 26.734 C 137.254 26.948,134.318 27.251,132.811 27.408 C 131.305 27.565,128.839 27.800,127.332 27.931 C 125.825 28.062,123.653 28.285,122.505 28.426 C 121.357 28.568,118.656 28.863,116.504 29.082 C 114.351 29.301,111.357 29.605,109.850 29.758 C 106.609 30.087,101.614 30.599,96.021 31.174 C 87.475 32.052,84.538 32.351,80.640 32.739 C 78.423 32.959,75.605 33.250,74.378 33.385 C 73.150 33.519,70.267 33.818,67.971 34.047 C 65.675 34.277,62.211 34.631,60.274 34.833 C 58.337 35.035,54.932 35.388,52.707 35.616 C 50.483 35.843,47.019 36.199,45.010 36.406 C 43.001 36.613,39.596 36.963,37.443 37.183 C 33.665 37.570,29.224 38.030,23.483 38.628 C 21.977 38.785,19.511 39.020,18.004 39.151 C 16.497 39.282,14.325 39.507,13.177 39.652 C 11.151 39.908,7.056 40.329,3.203 40.677 C 2.166 40.771,1.197 40.968,1.050 41.116 C 0.867 41.298,0.803 69.543,0.848 129.694 L 0.913 218.004 200.457 218.069 L 400.000 218.135 400.000 109.067 L 400.000 0.000 398.043 0.000 C 396.967 0.000,396.086 0.105,396.086 0.234 M178.079 61.451 C 180.234 62.775,182.723 65.654,185.923 70.522 C 188.538 74.502,185.328 79.080,182.626 75.222 C 182.416 74.922,180.955 73.726,179.380 72.564 C 173.491 68.220,173.884 68.367,172.258 69.914 C 170.615 71.477,165.732 79.749,165.679 81.058 C 165.674 81.179,165.444 81.748,165.166 82.322 C 164.889 82.896,164.658 83.514,164.653 83.696 C 164.648 83.877,164.533 84.229,164.397 84.478 C 163.706 85.740,161.541 93.017,160.497 97.586 C 158.660 105.624,157.252 114.634,157.754 115.137 C 157.840 115.222,159.284 114.067,160.964 112.571 C 164.450 109.466,168.176 106.451,170.492 104.859 C 171.366 104.258,172.757 103.305,173.584 102.739 C 177.097 100.338,182.460 97.987,185.644 97.453 C 186.216 97.357,187.155 97.047,187.732 96.763 C 191.587 94.864,195.150 97.163,195.167 101.560 C 195.175 103.630,195.957 105.655,197.978 108.844 C 198.588 109.806,199.087 110.673,199.087 110.769 C 199.087 110.866,199.250 111.315,199.451 111.767 C 203.330 120.535,200.251 129.766,192.172 133.589 C 188.251 135.444,187.296 135.722,182.712 136.341 L 179.513 136.773 178.313 136.069 C 169.162 130.706,169.824 124.171,181.276 106.854 C 182.983 104.273,183.452 103.327,183.025 103.327 C 179.817 103.327,156.663 123.128,156.176 126.288 C 155.853 128.381,153.634 136.192,153.174 136.856 C 153.074 136.999,152.780 137.704,152.520 138.421 C 150.500 143.993,146.244 150.570,144.065 151.488 C 139.917 153.236,137.788 148.717,139.753 142.335 C 141.155 137.782,144.935 131.325,149.583 125.542 C 151.596 123.039,151.742 122.628,152.112 118.461 C 153.253 105.589,153.575 102.918,154.882 95.499 C 155.484 92.086,156.706 86.480,157.216 84.801 C 161.168 71.770,164.842 66.252,172.451 61.916 C 174.854 60.547,176.399 60.419,178.079 61.451 M98.861 63.114 C 99.995 64.248,98.104 66.536,96.034 66.536 C 88.415 66.536,64.185 77.288,59.791 82.618 C 58.017 84.771,59.277 86.264,62.492 85.815 C 71.622 84.541,91.106 85.893,94.225 88.016 C 99.069 91.314,94.211 98.183,82.573 104.487 C 81.861 104.873,80.868 105.432,80.365 105.730 C 79.187 106.429,69.269 111.398,67.058 112.398 C 66.125 112.820,64.599 113.504,63.666 113.918 C 61.831 114.732,57.771 117.397,53.620 120.514 C 39.277 131.283,32.416 140.299,35.907 143.790 C 38.370 146.253,48.331 146.468,57.926 144.266 C 67.232 142.130,79.689 137.043,91.846 130.416 C 95.169 128.605,96.765 127.708,97.646 127.157 C 98.182 126.823,98.675 126.549,98.741 126.549 C 98.922 126.549,106.833 121.830,108.862 120.512 C 109.826 119.886,111.643 118.728,112.901 117.939 C 116.869 115.449,123.265 111.231,123.838 110.726 C 124.327 110.295,124.421 109.778,124.681 106.067 C 125.254 97.920,126.942 91.526,130.260 84.932 C 132.571 80.340,136.331 75.451,137.953 74.929 C 140.769 74.024,142.161 79.002,141.025 85.910 C 140.664 88.107,140.440 89.057,139.535 92.237 C 138.517 95.812,136.196 100.921,133.854 104.739 C 132.858 106.363,132.470 107.299,132.266 108.565 C 131.221 115.055,130.854 116.917,130.008 120.026 C 129.426 122.162,127.886 126.823,127.452 127.763 C 127.242 128.215,127.071 128.647,127.071 128.722 C 127.071 128.943,125.318 132.565,124.523 133.986 C 120.531 141.125,114.824 146.656,108.806 149.220 C 108.017 149.556,107.194 149.919,106.977 150.026 C 102.341 152.313,91.960 152.544,84.943 150.518 C 83.932 150.226,82.635 149.860,82.061 149.705 C 80.661 149.328,79.843 148.770,79.843 148.192 C 79.843 147.451,79.905 147.443,86.787 147.329 C 110.129 146.941,119.953 139.524,123.295 119.765 C 123.974 115.753,123.983 115.756,120.131 118.709 C 112.322 124.698,106.816 128.735,103.853 130.647 C 97.853 134.519,89.099 139.326,84.527 141.261 C 83.888 141.531,83.014 141.908,82.583 142.099 C 69.240 148.010,48.158 152.087,38.617 150.600 C 28.764 149.066,26.221 145.523,29.635 138.088 C 29.983 137.331,30.267 136.647,30.267 136.568 C 30.267 134.380,39.894 124.237,47.358 118.560 C 50.769 115.967,60.582 109.530,62.361 108.719 C 62.577 108.621,63.105 108.328,63.536 108.067 C 66.296 106.396,75.271 101.733,79.951 99.537 C 83.056 98.080,84.532 96.073,83.330 94.943 C 82.521 94.183,79.614 93.990,68.493 93.956 C 64.331 93.943,58.167 93.857,54.795 93.766 L 48.663 93.600 47.554 92.457 C 43.532 88.314,53.362 79.029,69.738 71.502 C 70.996 70.923,72.126 70.450,72.249 70.450 C 72.372 70.450,73.156 70.148,73.991 69.778 C 74.827 69.409,76.338 68.830,77.351 68.491 C 78.363 68.153,79.543 67.753,79.974 67.603 C 84.119 66.159,91.107 64.247,95.872 63.254 C 96.866 63.047,97.737 62.820,97.807 62.750 C 98.046 62.511,98.369 62.622,98.861 63.114 M215.917 74.240 C 225.483 75.582,232.768 80.064,236.690 87.019 L 237.573 88.584 237.573 92.759 C 237.573 97.597,237.375 98.504,235.748 101.109 C 233.932 104.015,231.607 107.734,231.181 108.413 C 229.807 110.602,226.933 115.446,226.225 116.765 C 225.763 117.626,225.295 118.447,225.186 118.591 C 224.706 119.220,221.787 125.068,221.787 125.399 C 221.787 126.057,222.111 125.807,225.297 122.697 C 235.456 112.778,244.824 105.153,246.852 105.153 C 249.210 105.153,249.877 107.470,248.804 111.937 C 248.392 113.654,247.800 116.622,247.348 119.243 C 246.928 121.676,247.032 126.724,247.523 127.758 C 248.689 130.215,252.140 129.969,255.139 127.214 C 259.854 122.883,268.487 115.723,272.016 113.217 C 279.175 108.132,282.316 110.757,278.447 118.591 C 277.844 119.812,277.975 120.061,279.485 120.559 C 280.675 120.951,281.512 121.905,283.753 125.422 C 287.378 131.110,291.775 132.778,299.543 131.413 L 301.239 131.115 301.439 129.419 C 302.888 117.102,307.621 108.082,315.216 103.168 C 327.641 95.128,340.083 101.859,335.952 114.385 C 333.546 121.680,324.322 129.536,313.572 133.449 C 310.294 134.642,310.443 135.664,314.286 138.331 C 321.633 143.430,336.951 145.677,361.538 145.260 C 371.455 145.093,371.602 145.115,372.327 146.866 C 373.487 149.666,371.346 151.749,368.111 150.968 C 366.478 150.574,365.023 150.546,354.116 150.702 C 338.697 150.922,334.916 150.714,326.941 149.210 C 319.828 147.869,309.541 143.640,307.371 141.166 C 307.299 141.084,306.715 140.609,306.073 140.111 C 305.431 139.612,304.374 138.701,303.725 138.086 C 302.686 137.102,302.435 136.984,301.631 137.103 C 297.690 137.687,296.211 137.795,293.909 137.666 C 287.002 137.278,281.676 134.404,279.233 129.746 C 277.981 127.358,277.703 127.429,274.117 131.050 C 272.518 132.665,270.462 134.837,269.549 135.877 C 268.046 137.588,267.795 137.769,266.918 137.769 C 263.497 137.769,261.796 135.834,263.068 133.387 C 263.748 132.079,265.651 128.512,267.095 125.840 C 268.637 122.985,268.348 122.998,265.101 125.928 C 258.609 131.786,251.249 136.281,248.121 136.298 C 245.983 136.309,243.003 134.247,242.366 132.315 C 241.950 131.054,242.262 122.820,242.917 117.784 C 243.214 115.500,243.326 113.802,243.189 113.665 C 242.914 113.390,240.159 115.494,234.691 120.155 C 233.680 121.017,232.221 122.250,231.449 122.896 C 225.293 128.048,216.545 136.856,215.404 139.052 C 214.783 140.247,212.439 141.683,211.108 141.683 C 209.350 141.683,209.177 140.122,210.598 137.062 C 211.012 136.171,211.350 135.319,211.350 135.167 C 211.350 135.016,211.465 134.688,211.605 134.439 C 211.745 134.190,212.156 133.255,212.519 132.361 C 215.487 125.050,220.474 115.808,227.272 105.023 C 230.621 99.709,231.198 98.104,231.214 94.058 C 231.236 88.573,228.446 85.153,222.290 83.119 C 217.903 81.669,208.944 81.031,206.819 82.017 C 205.594 82.585,202.407 82.742,201.920 82.257 C 201.128 81.470,202.499 76.179,203.801 75.000 C 205.035 73.884,210.803 73.522,215.917 74.240 M136.683 87.215 C 135.818 88.610,134.375 93.047,134.381 94.290 C 134.387 95.592,134.809 96.036,135.150 95.099 C 135.305 94.673,135.532 94.090,135.655 93.803 C 136.331 92.221,136.563 91.548,137.007 89.889 C 137.760 87.076,137.597 85.738,136.683 87.215 M322.635 104.595 C 314.753 106.932,309.245 115.673,308.885 126.419 C 308.788 129.304,308.826 129.321,312.313 127.990 C 326.142 122.713,334.999 111.312,329.384 106.016 C 327.804 104.526,324.918 103.918,322.635 104.595 M188.020 111.742 C 179.476 120.275,177.381 124.402,179.638 128.252 C 182.403 132.969,189.776 129.077,193.482 120.945 C 195.219 117.134,195.275 115.538,193.769 112.675 C 191.267 107.916,191.769 107.997,188.020 111.742 M147.828 137.678 C 145.875 141.090,145.491 141.943,145.779 142.230 C 146.282 142.733,146.825 142.144,147.916 139.912 C 148.527 138.662,149.136 137.435,149.269 137.186 C 149.559 136.643,149.591 135.420,149.315 135.422 C 149.207 135.422,148.538 136.438,147.828 137.678 M153.807 168.413 C 153.767 169.522,150.892 171.912,149.576 171.931 C 148.823 171.942,148.206 171.878,148.206 171.790 C 148.206 171.218,150.652 168.059,151.150 167.987 C 152.053 167.857,153.817 168.140,153.807 168.413 M89.193 173.712 C 89.323 173.963,89.449 177.625,89.473 181.850 C 89.501 186.939,89.612 189.647,89.800 189.873 C 90.011 190.128,91.104 190.215,94.091 190.215 L 98.098 190.215 98.255 190.841 C 98.342 191.185,98.373 191.743,98.326 192.080 L 98.239 192.694 92.042 192.764 L 85.845 192.834 85.845 183.218 C 85.845 177.930,85.923 173.525,86.019 173.429 C 86.424 173.024,88.954 173.249,89.193 173.712 M113.712 173.568 C 114.182 174.039,114.110 175.776,113.612 175.967 C 113.385 176.054,111.343 176.125,109.074 176.125 L 104.949 176.125 104.851 176.973 C 104.797 177.440,104.813 178.584,104.888 179.517 L 105.023 181.213 108.806 181.344 L 112.590 181.474 112.590 182.779 L 112.590 184.083 108.733 184.156 L 104.875 184.228 104.949 187.156 L 105.023 190.085 109.309 190.157 C 114.077 190.237,114.354 190.327,114.234 191.758 L 114.155 192.694 107.763 192.694 L 101.370 192.694 101.301 183.331 C 101.252 176.638,101.317 173.867,101.529 173.612 C 101.931 173.127,113.230 173.087,113.712 173.568 M132.864 173.549 C 137.211 174.473,139.209 177.469,139.194 183.040 C 139.174 190.338,136.489 192.825,128.627 192.825 L 124.723 192.825 124.723 183.214 C 124.723 177.928,124.801 173.525,124.897 173.429 C 125.185 173.140,131.381 173.234,132.864 173.549 M155.903 174.690 L 155.903 175.995 151.337 176.125 L 146.771 176.256 146.695 178.434 C 146.591 181.406,146.506 181.344,150.665 181.344 C 154.508 181.344,154.729 181.432,154.729 182.957 C 154.729 184.180,154.675 184.196,150.163 184.281 L 146.771 184.344 146.697 186.840 C 146.595 190.276,146.457 190.182,151.742 190.274 L 155.903 190.346 155.983 191.585 L 156.063 192.825 149.656 192.825 L 143.249 192.825 143.249 183.214 C 143.249 177.928,143.329 173.523,143.427 173.424 C 143.525 173.326,146.373 173.277,149.755 173.316 L 155.903 173.386 155.903 174.690 M169.291 173.563 C 173.015 174.501,174.735 177.561,173.746 181.490 C 173.071 184.169,170.816 185.390,165.949 185.712 L 162.948 185.910 162.818 189.302 L 162.688 192.694 161.033 192.694 L 159.378 192.694 159.359 183.281 C 159.348 178.104,159.424 173.730,159.528 173.561 C 159.785 173.146,167.639 173.147,169.291 173.563 M184.067 174.006 C 184.281 174.420,184.619 175.212,184.819 175.768 C 185.364 177.281,189.072 187.097,189.439 187.997 C 189.615 188.428,189.858 189.015,189.980 189.302 C 190.241 189.917,190.986 192.058,191.070 192.433 C 191.105 192.587,190.395 192.694,189.333 192.694 L 187.538 192.694 186.887 190.737 C 186.070 188.283,186.298 188.398,182.201 188.393 C 178.266 188.388,178.587 188.198,177.578 191.129 L 177.038 192.694 175.277 192.771 C 174.309 192.814,173.516 192.744,173.516 192.616 C 173.516 192.245,180.272 174.337,180.626 173.770 C 181.187 172.872,183.565 173.035,184.067 174.006 M203.582 173.615 C 206.445 174.289,207.964 176.234,207.953 179.213 C 207.944 181.395,206.318 184.214,205.068 184.214 C 204.587 184.214,204.846 185.310,205.703 186.897 C 209.209 193.389,209.109 192.825,206.750 192.825 C 205.318 192.825,205.063 192.749,204.773 192.237 C 204.589 191.915,203.723 190.300,202.848 188.650 L 201.257 185.649 199.454 185.649 L 197.652 185.649 197.521 189.172 L 197.391 192.694 195.695 192.694 L 193.999 192.694 193.930 183.331 C 193.881 176.638,193.946 173.867,194.158 173.612 C 194.563 173.124,201.503 173.126,203.582 173.615 M224.866 173.568 C 225.337 174.039,225.265 175.776,224.767 175.967 C 224.540 176.054,223.191 176.125,221.770 176.125 L 219.185 176.125 219.117 184.410 L 219.048 192.694 217.352 192.694 L 215.656 192.694 215.615 184.793 C 215.566 175.162,215.906 176.125,212.561 176.125 C 209.648 176.125,209.524 176.067,209.524 174.690 C 209.524 173.197,209.214 173.255,217.197 173.255 C 222.571 173.255,224.638 173.339,224.866 173.568 M240.871 173.882 C 241.061 174.299,241.074 174.757,240.909 175.252 L 240.662 175.995 236.247 176.125 L 231.833 176.256 231.757 178.275 C 231.640 181.360,231.621 181.344,235.512 181.344 C 239.387 181.344,239.791 181.493,239.791 182.919 C 239.791 184.182,240.350 184.007,235.747 184.189 L 231.833 184.344 231.758 186.757 C 231.645 190.377,231.422 190.215,236.534 190.215 L 240.825 190.215 240.982 190.841 C 241.068 191.185,241.100 191.743,241.052 192.080 L 240.965 192.694 234.573 192.694 L 228.180 192.694 228.105 183.823 C 228.063 178.943,228.098 174.569,228.182 174.103 L 228.334 173.255 234.460 173.255 L 240.585 173.255 240.871 173.882 M248.915 173.761 C 249.064 174.040,249.552 175.243,250.000 176.436 C 250.448 177.628,251.043 179.191,251.323 179.909 C 251.604 180.626,251.933 181.507,252.055 181.866 C 252.177 182.224,252.530 183.164,252.839 183.953 C 253.148 184.742,253.514 185.770,253.653 186.236 C 254.223 188.151,254.705 187.436,256.992 181.279 C 258.179 178.085,259.383 174.974,259.670 174.364 L 260.190 173.255 262.092 173.255 C 264.770 173.255,264.596 172.532,264.517 183.331 L 264.449 192.694 262.753 192.694 L 261.057 192.694 261.107 187.084 C 261.135 183.999,261.225 181.034,261.306 180.496 C 261.395 179.912,261.348 179.517,261.190 179.517 C 261.045 179.517,260.926 179.752,260.926 180.039 C 260.926 180.326,260.805 180.561,260.657 180.561 C 260.509 180.561,260.315 180.766,260.227 181.018 C 259.783 182.272,258.229 186.271,257.904 186.993 C 257.701 187.445,257.532 187.915,257.530 188.037 C 257.527 188.159,257.121 189.256,256.626 190.476 L 255.727 192.694 254.380 192.694 L 253.033 192.694 252.347 190.823 C 251.970 189.794,251.573 188.864,251.466 188.757 C 251.360 188.650,251.272 188.395,251.272 188.189 C 251.272 187.983,251.106 187.445,250.902 186.993 C 250.387 185.847,248.663 181.381,248.663 181.191 C 248.663 181.105,248.429 180.738,248.144 180.375 L 247.625 179.716 247.687 186.205 L 247.750 192.694 246.053 192.694 L 244.357 192.694 244.289 183.331 C 244.240 176.638,244.305 173.867,244.517 173.612 C 245.021 173.004,248.574 173.124,248.915 173.761 M281.642 173.668 C 281.795 174.067,281.868 175.813,281.735 175.914 C 281.699 175.941,279.615 176.029,277.104 176.110 L 272.538 176.256 272.461 178.275 C 272.345 181.360,272.325 181.344,276.217 181.344 C 280.073 181.344,280.496 181.497,280.496 182.888 C 280.496 184.158,280.333 184.206,276.025 184.210 C 272.193 184.215,272.417 184.019,272.411 187.370 C 272.406 190.203,272.373 190.185,277.508 190.274 L 281.670 190.346 281.670 191.520 L 281.670 192.694 275.342 192.764 L 269.015 192.834 269.015 183.218 C 269.015 177.930,269.093 173.525,269.189 173.429 C 269.608 173.010,281.477 173.238,281.642 173.668 M289.008 173.973 C 289.274 174.367,289.610 174.890,289.755 175.135 C 289.901 175.379,290.548 176.415,291.194 177.436 C 291.840 178.458,292.544 179.576,292.759 179.923 C 297.551 187.625,297.195 187.621,297.195 179.970 C 297.195 173.078,297.142 173.255,299.192 173.255 C 300.964 173.255,300.887 172.746,300.793 183.823 L 300.718 192.694 298.901 192.694 L 297.085 192.694 295.841 190.737 C 295.156 189.661,293.940 187.723,293.137 186.432 C 290.179 181.670,289.493 180.594,289.288 180.392 C 288.755 179.866,288.592 181.386,288.588 186.900 L 288.584 192.848 286.823 192.771 L 285.062 192.694 284.993 183.331 C 284.944 176.638,285.009 173.867,285.221 173.612 C 285.816 172.896,288.451 173.147,289.008 173.973 M318.954 173.668 C 319.107 174.066,319.181 175.829,319.048 175.899 C 319.012 175.918,317.632 176.006,315.982 176.094 L 312.981 176.256 312.912 184.552 L 312.843 192.849 311.216 192.772 L 309.589 192.694 309.459 184.475 L 309.328 176.256 306.980 176.191 C 303.520 176.094,303.457 176.069,303.457 174.729 C 303.457 174.110,303.536 173.525,303.631 173.429 C 304.052 173.008,318.789 173.238,318.954 173.668 M128.289 176.299 C 128.193 176.395,128.115 179.381,128.115 182.934 C 128.115 190.872,127.954 190.531,131.416 189.928 C 136.653 189.016,137.881 179.100,133.061 176.641 C 132.060 176.130,128.698 175.890,128.289 176.299 M162.992 176.299 C 162.654 176.638,162.795 182.396,163.144 182.520 C 164.982 183.173,168.939 182.684,169.785 181.700 C 171.015 180.268,170.461 177.366,168.794 176.503 C 168.042 176.115,163.342 175.949,162.992 176.299 M197.695 176.299 C 197.599 176.395,197.521 177.802,197.521 179.425 L 197.521 182.378 198.200 182.548 C 199.426 182.856,202.445 182.428,203.251 181.832 C 204.895 180.617,204.761 177.598,203.018 176.568 C 202.258 176.120,198.086 175.909,197.695 176.299 M181.247 180.500 C 180.880 181.610,180.394 183.035,180.166 183.667 C 179.540 185.409,179.670 185.519,182.379 185.519 L 184.736 185.519 184.736 184.788 C 184.736 184.386,184.643 183.946,184.529 183.810 C 184.415 183.673,183.975 182.524,183.550 181.255 C 182.481 178.058,182.097 177.932,181.247 180.500 M197.434 243.618 C 197.339 243.714,197.259 244.213,197.257 244.727 C 197.255 245.241,197.085 246.298,196.878 247.076 C 196.450 248.685,196.484 248.814,197.380 248.986 C 198.522 249.204,199.870 246.915,199.870 244.759 L 199.870 243.444 198.739 243.444 C 198.117 243.444,197.530 243.523,197.434 243.618 M340.221 244.199 C 333.974 245.491,334.452 251.129,341.030 253.739 C 343.080 254.553,343.865 254.998,344.152 255.510 C 345.569 258.034,340.691 259.437,339.207 256.933 C 338.410 255.587,338.200 255.447,336.985 255.447 C 334.651 255.447,335.236 258.291,337.886 259.827 C 338.539 260.206,339.113 260.608,339.161 260.721 C 339.283 261.009,344.684 260.979,344.684 260.691 C 344.684 260.561,345.007 260.332,345.401 260.181 C 349.272 258.701,348.584 253.467,344.292 251.743 C 340.755 250.322,340.092 249.988,339.659 249.408 C 338.633 248.034,340.190 246.620,342.403 246.917 C 343.136 247.015,343.653 247.266,343.950 247.668 C 344.955 249.029,345.200 249.185,346.327 249.185 C 348.189 249.185,348.399 248.414,347.074 246.445 C 345.895 244.692,342.777 243.670,340.221 244.199 M51.246 244.591 C 51.170 244.791,51.144 245.408,51.189 245.961 L 51.272 246.967 53.482 247.043 C 56.286 247.141,56.090 246.595,56.095 254.338 L 56.099 260.926 57.632 260.926 C 59.563 260.926,59.491 261.220,59.491 253.355 C 59.491 246.567,59.273 247.097,62.070 247.097 C 63.085 247.097,63.954 246.965,64.136 246.784 C 64.606 246.313,64.534 244.577,64.036 244.385 C 63.094 244.024,51.392 244.212,51.246 244.591 M74.360 244.891 C 74.080 245.627,73.999 258.774,74.266 260.111 L 74.429 260.926 79.610 260.926 L 84.791 260.926 84.947 260.306 C 85.033 259.964,85.064 259.348,85.017 258.936 L 84.932 258.187 81.539 258.116 C 77.593 258.035,77.493 257.976,77.499 255.723 C 77.505 253.641,77.492 253.649,80.897 253.564 L 83.888 253.490 83.888 252.316 L 83.888 251.142 81.018 251.071 C 77.717 250.989,77.493 250.853,77.499 248.939 C 77.505 247.119,77.501 247.122,81.419 247.040 L 84.932 246.967 84.932 245.662 L 84.932 244.357 79.774 244.287 L 74.616 244.216 74.360 244.891 M95.290 244.540 C 94.959 244.872,94.824 259.155,95.142 260.339 C 95.280 260.856,95.468 260.926,96.699 260.926 C 98.360 260.926,98.338 260.973,98.435 257.273 L 98.500 254.795 99.504 254.712 C 100.946 254.593,101.335 255.088,103.976 260.408 C 104.192 260.843,104.497 260.926,105.872 260.926 L 107.512 260.926 107.344 260.209 C 107.251 259.814,106.531 258.261,105.743 256.757 L 104.310 254.022 105.216 253.234 C 108.497 250.381,107.416 245.704,103.217 244.586 C 101.517 244.134,95.730 244.100,95.290 244.540 M117.687 244.732 C 117.393 245.282,117.299 258.707,117.580 260.111 C 117.738 260.900,117.787 260.926,119.118 260.926 C 120.784 260.926,120.809 260.880,120.809 257.795 C 120.809 254.905,120.900 254.664,121.990 254.664 C 123.514 254.664,124.013 255.306,126.402 260.337 C 126.647 260.853,126.877 260.922,128.343 260.924 L 130.007 260.926 129.855 260.168 C 129.771 259.750,129.177 258.459,128.535 257.297 C 126.863 254.274,126.860 254.251,127.945 253.136 C 130.937 250.066,129.936 245.803,125.944 244.618 C 123.824 243.988,118.042 244.068,117.687 244.732 M140.020 245.042 C 139.930 245.491,139.856 248.881,139.856 252.577 C 139.856 256.272,139.930 259.662,140.020 260.111 L 140.183 260.926 145.487 260.926 L 150.792 260.926 150.959 260.036 C 151.312 258.152,151.154 258.056,147.684 258.056 C 143.410 258.056,143.249 257.977,143.249 255.877 C 143.249 253.719,143.347 253.654,146.787 253.564 L 149.641 253.490 149.641 252.316 L 149.641 251.142 146.695 251.011 C 143.364 250.864,143.259 250.799,143.253 248.911 C 143.247 247.173,143.411 247.097,147.162 247.097 C 150.765 247.097,151.076 246.983,151.076 245.662 C 151.076 244.271,150.898 244.227,145.316 244.227 L 140.183 244.227 140.020 245.042 M174.457 244.640 C 174.370 244.867,174.299 248.438,174.299 252.577 C 174.299 256.715,174.370 260.287,174.457 260.514 C 174.631 260.967,181.083 261.155,181.083 260.707 C 181.083 260.586,181.536 260.351,182.089 260.186 C 188.705 258.203,188.301 246.631,181.546 244.625 C 179.636 244.058,174.676 244.068,174.457 244.640 M213.467 244.695 C 212.960 245.641,207.970 259.164,207.807 260.030 L 207.639 260.926 209.364 260.926 C 210.832 260.926,211.090 260.858,211.092 260.470 C 211.093 260.219,211.381 259.397,211.732 258.643 L 212.370 257.273 214.878 257.273 C 217.439 257.273,218.395 257.522,218.395 258.189 C 218.395 259.692,219.528 260.926,220.909 260.926 C 222.824 260.926,222.835 260.657,221.102 256.080 C 220.290 253.938,219.299 251.305,218.898 250.228 C 218.187 248.318,217.447 246.391,216.869 244.945 C 216.505 244.035,213.921 243.845,213.467 244.695 M230.248 244.575 C 230.111 244.932,230.437 245.981,232.735 252.577 C 233.460 254.658,234.292 257.065,234.584 257.926 C 235.676 261.143,235.480 260.926,237.296 260.926 L 238.912 260.926 239.469 259.556 C 239.774 258.803,240.262 257.482,240.552 256.621 C 240.842 255.760,241.678 253.353,242.409 251.272 C 245.095 243.631,245.063 244.227,242.783 244.227 L 241.166 244.227 240.652 245.727 C 240.370 246.553,239.948 247.873,239.715 248.663 C 238.179 253.872,237.525 255.709,237.208 255.706 C 237.122 255.705,236.365 253.386,235.526 250.553 C 233.631 244.153,233.675 244.227,231.819 244.227 C 230.861 244.227,230.337 244.343,230.248 244.575 M254.455 244.540 C 254.124 244.872,253.989 259.155,254.307 260.339 C 254.463 260.923,254.493 260.926,259.647 260.926 L 264.830 260.926 264.986 260.306 C 265.072 259.964,265.103 259.348,265.056 258.936 L 264.971 258.187 261.596 258.113 C 257.492 258.024,257.490 258.023,257.589 255.602 L 257.665 253.751 260.728 253.677 C 264.095 253.597,264.389 253.412,263.950 251.663 C 263.788 251.015,263.768 251.011,260.796 251.011 C 257.381 251.011,257.423 251.044,257.583 248.515 L 257.665 247.228 261.040 247.154 C 264.729 247.074,265.101 246.939,265.101 245.682 C 265.101 244.277,264.914 244.227,259.622 244.227 C 256.195 244.227,254.676 244.319,254.455 244.540 M275.190 244.401 C 274.973 244.618,274.958 259.949,275.175 260.514 C 275.291 260.818,275.695 260.926,276.710 260.926 C 278.439 260.926,278.400 261.054,278.405 255.397 C 278.408 251.040,278.592 250.161,279.240 251.390 C 279.697 252.257,283.241 258.125,284.252 259.687 C 285.052 260.924,285.056 260.926,286.525 260.926 C 288.402 260.926,288.324 261.308,288.324 252.203 C 288.324 244.018,288.356 244.149,286.358 244.276 L 285.062 244.357 284.932 249.098 C 284.817 253.248,284.661 254.528,284.318 254.120 C 284.268 254.061,283.534 252.859,282.688 251.451 C 281.841 250.043,280.972 248.615,280.757 248.278 C 280.541 247.941,280.026 247.097,279.612 246.403 C 278.390 244.356,278.218 244.227,276.715 244.227 C 275.972 244.227,275.286 244.305,275.190 244.401 M299.456 244.401 C 299.361 244.497,299.282 248.254,299.282 252.751 L 299.282 260.926 300.815 260.926 C 302.324 260.926,302.351 260.913,302.511 260.111 C 302.792 258.707,302.699 245.282,302.404 244.732 C 302.134 244.226,299.884 243.973,299.456 244.401 M313.807 244.401 C 313.712 244.497,313.633 248.254,313.633 252.751 L 313.633 260.926 315.199 260.926 C 316.260 260.926,316.775 260.821,316.796 260.600 C 316.814 260.421,316.902 259.041,316.992 257.534 L 317.156 254.795 318.252 254.715 C 319.483 254.625,319.650 254.813,321.451 258.317 C 322.863 261.065,322.699 260.926,324.525 260.926 C 326.500 260.926,326.491 260.986,324.939 257.957 C 324.269 256.648,323.546 255.235,323.333 254.816 C 322.959 254.082,322.974 254.030,323.772 253.317 C 327.057 250.382,326.105 245.806,321.966 244.637 C 320.493 244.221,314.170 244.038,313.807 244.401 M102.357 247.336 C 104.160 248.022,104.037 250.893,102.170 251.673 C 100.907 252.201,98.735 252.182,98.528 251.642 C 98.313 251.083,98.326 247.489,98.543 247.271 C 98.802 247.012,101.631 247.061,102.357 247.336 M124.838 247.352 C 126.546 248.002,126.643 250.357,125.007 251.460 C 123.904 252.203,121.229 252.324,120.967 251.642 C 120.753 251.083,120.765 247.489,120.983 247.271 C 121.249 247.005,124.081 247.064,124.838 247.352 M181.655 247.762 C 183.920 249.459,183.992 255.401,181.769 257.245 C 181.229 257.694,178.981 258.038,178.295 257.777 C 177.680 257.543,177.303 247.839,177.886 247.246 C 178.259 246.868,180.955 247.237,181.655 247.762 M321.736 247.886 C 323.512 250.198,320.453 253.053,317.438 251.896 C 316.998 251.727,316.808 247.665,317.221 247.247 C 317.731 246.731,321.229 247.226,321.736 247.886 M216.278 251.881 C 217.063 254.360,216.958 254.664,215.322 254.664 C 213.230 254.664,213.106 254.399,213.976 251.794 C 214.383 250.574,214.722 249.543,214.729 249.502 C 214.836 248.888,215.798 250.365,216.278 251.881 M0.000 252.448 L 0.000 253.624 16.634 253.557 L 33.268 253.490 33.353 252.604 C 33.482 251.253,33.827 251.280,16.373 251.276 L 0.000 251.272 0.000 252.448 M366.908 251.499 C 366.700 251.631,366.596 252.071,366.647 252.604 L 366.732 253.490 383.366 253.557 L 400.000 253.624 400.000 252.448 L 400.000 251.272 383.627 251.276 C 374.622 251.278,367.098 251.379,366.908 251.499 " stroke="none" fill="#00a9d4" fill-rule="evenodd"></path></g></svg>
