<?xml version="1.0" encoding="UTF-8"?>
<!DOCTYPE svg PUBLIC "-//W3C//DTD SVG 1.1//EN" "http://www.w3.org/Graphics/SVG/1.1/DTD/svg11.dtd">
<!-- Creator: CorelDRAW X6 -->
<svg xmlns="http://www.w3.org/2000/svg" xml:space="preserve" width="181mm" height="121mm" version="1.1" style="shape-rendering:geometricPrecision; text-rendering:geometricPrecision; image-rendering:optimizeQuality; fill-rule:evenodd; clip-rule:evenodd"
viewBox="0 0 18100 12100"
 xmlns:xlink="http://www.w3.org/1999/xlink"
 enable-background="new 0 0 741.053 145.837">
 <defs>
  <style type="text/css">
   <![CDATA[
    .str0 {stroke:#2B2A29;stroke-width:7.62}
    .fil1 {fill:none}
    .fil0 {fill:#FEFEFE}
    .fil2 {fill:#ED3626}
   ]]>
  </style>
 </defs>
 <g id="Слой_x0020_1">
  <metadata id="CorelCorpID_0Corel-Layer"/>
  <rect class="fil0" width="18100" height="12100"/>
  <g id="_336534048">
   <rect class="fil1" x="717" y="4410" width="16666" height="3280"/>
  </g>
  <path class="fil2" d="M2906 5633c-33,13 -86,29 -86,27 -6,-14 -5,-27 3,-39 10,-26 -22,-62 -10,-52l16 -523c4,-25 -19,-43 -8,-61 1,-19 -17,-19 -15,-32 -9,-38 -63,-37 -57,-45 -28,7 -131,172 -132,177 6,-6 -190,276 -186,275 1,-3 -33,81 -33,73 3,-11 -41,41 -46,42 -16,63 -271,-230 -267,-226 -51,-68 -128,-97 -200,-180 -95,-30 -100,-92 -106,21 -4,18 14,126 14,126 -6,44 69,282 90,313 31,46 108,233 100,230 -19,22 -84,21 -112,13l-401 -3 -172 21c-34,6 -21,-8 -53,31 5,2 146,107 124,91 44,37 335,192 336,192 -9,-8 29,13 17,12 13,15 66,41 102,72l-479 507c-45,17 -73,107 -50,112 26,21 74,11 118,6l493 -113 191 -56c14,1 16,15 17,16 0,2 -2,9 -4,17 -16,75 -30,612 -28,619 1,6 1,13 1,21 0,26 -3,58 16,66 -4,-10 19,24 19,24 94,40 324,-501 327,-525 -1,6 40,-63 47,-91 7,1 8,-31 12,-27 -13,-11 11,-24 8,-34 4,-17 3,-32 10,-30 7,-33 28,-19 32,-15 10,5 23,-3 25,21 -9,12 30,24 27,31 -1,-6 190,220 243,263 182,174 257,247 290,249 5,0 10,-8 6,-39l-4 -30 -57 -223 -20 -79c-21,-83 -121,-292 -125,-329 -33,-59 0,-73 43,-75l427 15c36,1 69,4 102,2 13,-1 119,-8 120,-8 30,-9 24,-25 37,-54 -5,25 8,-24 -18,-40l-212 -134c-77,-49 -347,-208 -385,-225 89,-102 175,-202 267,-289 13,-12 110,-117 165,-175 22,-23 37,-39 37,-38 12,-18 21,-31 9,-47 0,-10 -110,-2 -123,1 -168,47 -354,92 -505,149z"/>
  <g id="_355772632">
   <g>
    <path class="fil2" d="M4297 5651l426 0 0 1302 -426 0 0 -1302zm63 -141l-321 0 281 -373 381 0 281 373 -321 0 -151 -201 -150 201z"/>
    <rect class="fil2" x="4931" y="5162" width="427" height="1791"/>
    <path class="fil2" d="M5896 6168l530 0c-8,-146 -111,-266 -253,-266 -150,0 -251,108 -276,266zm0 238c8,178 110,296 291,296 102,0 203,-48 243,-143l399 0c-78,301 -357,432 -647,432 -424,0 -712,-256 -712,-692 0,-399 319,-685 702,-685 467,0 700,351 680,793l-956 0z"/>
    <path class="fil2" d="M7412 6828c226,0 313,-194 313,-386 0,-202 -91,-387 -322,-387 -229,0 -307,195 -307,395 0,192 99,377 316,377m475 125l-168 0 0 -138 -4 0c-55,112 -186,162 -326,162 -315,0 -471,-250 -471,-538 0,-289 154,-532 467,-532 104,0 255,39 330,160l4 0 0 -526 168 0 0 1412z"/>
    <path class="fil2" d="M8170 6344l587 0c-8,-160 -128,-288 -295,-288 -176,0 -281,132 -292,288zm749 285c-45,225 -208,348 -437,348 -327,0 -481,-225 -491,-538 0,-307 202,-532 481,-532 362,0 473,338 463,586l-765 0c-6,178 95,336 318,336 139,0 235,-68 265,-200l166 0m0 0l0 0 0 0z"/>
    <polygon class="fil2" points="9044,6953 9044,5162 10364,5162 10364,5535 9511,5535 9511,5902 10248,5902 10248,6263 9511,6263 9511,6953 "/>
    <path class="fil2" d="M10449 5651l414 0 0 228 5 0c63,-166 208,-253 392,-253 32,0 67,3 100,11l0 388c-55,-15 -105,-25 -163,-25 -210,0 -321,146 -321,309l0 645 -426 0m0 0l0 -1302 0 1302z"/>
    <path class="fil2" d="M11911 6727c203,0 271,-115 261,-384 -60,37 -171,45 -263,70 -95,22 -176,63 -176,166 0,105 82,148 178,148m-552 -675c8,-170 88,-281 203,-349 115,-65 266,-90 414,-90 308,0 607,68 607,437l0 569c0,110 0,231 50,334l-429 0c-15,-41 -20,-80 -25,-123 -110,115 -273,160 -429,160 -248,0 -444,-125 -444,-394 0,-424 462,-391 757,-451 73,-15 113,-40 113,-120 0,-98 -117,-135 -205,-135 -118,0 -193,53 -213,163l-399 0z"/>
    <path class="fil2" d="M12739 5651l414 0 0 178 5 0c78,-133 253,-216 408,-216 434,0 469,316 469,504l0 835 -426 0 0 -630c0,-178 20,-359 -214,-359 -160,0 -231,135 -231,278l0 710 -427 0m0 0l0 -1302 0 1302z"/>
    <path class="fil2" d="M15042 6128c-3,-110 -101,-188 -208,-188 -238,0 -276,203 -276,384 0,168 73,341 253,341 147,0 223,-85 243,-223l414 0c-38,348 -309,549 -655,549 -391,0 -682,-268 -682,-667 0,-414 264,-710 682,-710 324,0 613,171 643,514m0 0l-414 0 414 0z"/>
   </g>
   <path class="fil2" d="M15920 6168l529 0c-7,-146 -110,-266 -253,-266 -151,0 -251,108 -276,266zm0 238c8,178 110,296 291,296 103,0 203,-48 243,-143l399 0c-78,301 -357,432 -648,432 -424,0 -712,-256 -712,-692 0,-399 319,-685 702,-685 467,0 700,351 680,793l-956 0z"/>
  </g>
  <polygon class="fil1 str0" points="-2316,4985 -2326,5760 -1494,5633 -2105,6137 -1378,6589 -2232,6527 -2035,7294 -2632,6702 -3081,7334 -3071,6559 -3902,6686 -3292,6182 -4019,5730 -3165,5792 -3362,5025 -2765,5617 "/>
 </g>
</svg>
