<?xml version="1.0" encoding="UTF-8" standalone="no"?>
<!-- Created with Inkscape (http://www.inkscape.org/) -->

<svg
   xmlns:dc="http://purl.org/dc/elements/1.1/"
   xmlns:cc="http://creativecommons.org/ns#"
   xmlns:rdf="http://www.w3.org/1999/02/22-rdf-syntax-ns#"
   xmlns:svg="http://www.w3.org/2000/svg"
   xmlns="http://www.w3.org/2000/svg"
   xmlns:sodipodi="http://sodipodi.sourceforge.net/DTD/sodipodi-0.dtd"
   xmlns:inkscape="http://www.inkscape.org/namespaces/inkscape"
   version="1.1"
   id="svg188"
   xml:space="preserve"
   width="793.70135"
   height="1122.52"
   viewBox="0 0 793.70135 1122.52"
   sodipodi:docname="OREILLE.svg"
   inkscape:version="0.92.3 (2405546, 2018-03-11)"><metadata
     id="metadata194"><rdf:RDF><cc:Work
         rdf:about=""><dc:format>image/svg+xml</dc:format><dc:type
           rdf:resource="http://purl.org/dc/dcmitype/StillImage" /><dc:title></dc:title></cc:Work></rdf:RDF></metadata><defs
     id="defs192"><clipPath
       clipPathUnits="userSpaceOnUse"
       id="clipPath204"><path
         d="M 0,841.89 H 595.276 V 0 H 0 Z"
         id="path202"
         inkscape:connector-curvature="0" /></clipPath></defs><sodipodi:namedview
     pagecolor="#ffffff"
     bordercolor="#666666"
     borderopacity="1"
     objecttolerance="10"
     gridtolerance="10"
     guidetolerance="10"
     inkscape:pageopacity="0"
     inkscape:pageshadow="2"
     inkscape:window-width="640"
     inkscape:window-height="480"
     id="namedview190"
     showgrid="false"
     inkscape:zoom="0.21024124"
     inkscape:cx="396.85068"
     inkscape:cy="561.26001"
     inkscape:window-x="0"
     inkscape:window-y="0"
     inkscape:window-maximized="0"
     inkscape:current-layer="g196" /><g
     id="g196"
     inkscape:groupmode="layer"
     inkscape:label="OREILLE"
     transform="matrix(1.3333333,0,0,-1.3333333,0,1122.52)"><g
       id="g198"><g
         id="g200"
         clip-path="url(#clipPath204)"><g
           id="g206"
           transform="translate(307.3701,425.8624)"><path
             d="m 0,0 c 0,-28.746 -23.303,-52.049 -52.049,-52.049 -28.746,0 -52.049,23.303 -52.049,52.049 0,28.746 23.303,52.049 52.049,52.049 C -23.303,52.049 0,28.746 0,0"
             style="fill:#231f20;fill-opacity:1;fill-rule:nonzero;stroke:none"
             id="path208"
             inkscape:connector-curvature="0" /></g><g
           id="g210"
           transform="translate(368.0469,554.7125)"><path
             d="m 0,0 c 0,-9.318 -7.554,-16.873 -16.873,-16.873 -9.318,0 -16.872,7.555 -16.872,16.873 0,9.319 7.554,16.873 16.872,16.873 C -7.554,16.873 0,9.319 0,0"
             style="fill:#231f20;fill-opacity:1;fill-rule:nonzero;stroke:none"
             id="path212"
             inkscape:connector-curvature="0" /></g><g
           id="g214"
           transform="translate(225.6895,159.7394)"><path
             d="m 0,0 c 0,-9.318 -7.554,-16.873 -16.873,-16.873 -9.318,0 -16.873,7.555 -16.873,16.873 0,9.318 7.555,16.873 16.873,16.873 C -7.554,16.873 0,9.318 0,0"
             style="fill:#231f20;fill-opacity:1;fill-rule:nonzero;stroke:none"
             id="path216"
             inkscape:connector-curvature="0" /></g><g
           id="g218"
           transform="translate(142.5488,466.0875)"><path
             d="m 0,0 c 0,-9.318 -7.554,-16.873 -16.873,-16.873 -9.319,0 -16.873,7.555 -16.873,16.873 0,9.319 7.554,16.873 16.873,16.873 C -7.554,16.873 0,9.319 0,0"
             style="fill:#231f20;fill-opacity:1;fill-rule:nonzero;stroke:none"
             id="path220"
             inkscape:connector-curvature="0" /></g><g
           id="g222"
           transform="translate(318.082,682.8585)"><path
             d="m 0,0 c 0,-10.581 -8.578,-19.159 -19.159,-19.159 -10.581,0 -19.159,8.578 -19.159,19.159 0,10.581 8.578,19.159 19.159,19.159 C -8.578,19.159 0,10.581 0,0"
             style="fill:#231f20;fill-opacity:1;fill-rule:nonzero;stroke:none"
             id="path224"
             inkscape:connector-curvature="0" /></g><g
           id="g226"
           transform="translate(458.7656,646.8263)"><path
             d="m 0,0 c 0,-9.318 -7.555,-16.873 -16.873,-16.873 -9.318,0 -16.873,7.555 -16.873,16.873 0,9.319 7.555,16.873 16.873,16.873 C -7.555,16.873 0,9.319 0,0"
             style="fill:#231f20;fill-opacity:1;fill-rule:nonzero;stroke:none"
             id="path228"
             inkscape:connector-curvature="0" /></g><g
           id="g230"
           transform="translate(292.2891,700.7794)"><path
             d="m 0,0 20.076,-31.524 c -12.045,-14.091 -71.525,-57.15 -90.006,-73.11 -44.093,-38.08 21.979,-39.062 -85.011,-142.22 l -25.209,22.07 c 44.401,51.813 13.537,82.018 43.284,124.868 C -101.146,-48.462 0,0 0,0"
             style="fill:#231f20;fill-opacity:1;fill-rule:nonzero;stroke:none"
             id="path232"
             inkscape:connector-curvature="0" /></g><g
           id="g234"
           transform="translate(191.9434,159.7394)"><path
             d="m 0,0 c -3.819,48.144 217.708,178.903 146.263,384.491 v 21.044 l 91.899,93.606 h 23.574 C 399.599,276.231 25.675,-14.054 25.675,-14.054 Z"
             style="fill:#231f20;fill-opacity:1;fill-rule:nonzero;stroke:none"
             id="path236"
             inkscape:connector-curvature="0" /></g></g></g></g></svg>
